<?xml version="1.0" encoding="UTF-8"?>
<svg enable-background="new 0 0 24 24" version="1.1" viewBox="0 0 24 24" xml:space="preserve" xmlns="http://www.w3.org/2000/svg">
<style type="text/css">
	.st0{fill:#00B398;}
</style>
<path class="st0" d="M22,3.8v4.5c0,0.8-0.9,1.1-1.4,0.6l-1.2-1.3l-8.5,8.6c-0.3,0.3-0.9,0.3-1.2,0l-0.8-0.8  c-0.3-0.3-0.3-0.9,0-1.2l8.5-8.6l-1.2-1.3C15.6,3.9,16,3,16.7,3h4.4C21.6,3,22,3.4,22,3.8z M16.1,12.5l-0.6,0.6  c-0.2,0.2-0.2,0.4-0.2,0.6v5.1H4.2V7.5h9.2c0.2,0,0.4-0.1,0.6-0.2l0.6-0.6c0.5-0.5,0.2-1.4-0.6-1.4H3.7C2.7,5.2,2,6,2,6.9v12.4  C2,20.2,2.7,21,3.7,21h12.2c0.9,0,1.7-0.8,1.7-1.7v-6.2C17.6,12.4,16.7,12,16.1,12.5z"/>
</svg>
