<?xml version="1.0" encoding="UTF-8"?>
<svg enable-background="new 0 0 24 24" version="1.1" viewBox="0 0 24 24" xml:space="preserve" xmlns="http://www.w3.org/2000/svg">
<style type="text/css">
	.st0{fill:#B2BEC4;}
</style>
	<path class="st0" d="m12 7.1c-2.7 0-4.9 2.2-4.9 4.9s2.2 4.9 4.9 4.9 4.9-2.2 4.9-4.9-2.2-4.9-4.9-4.9zm0 8.1c-1.7 0-3.2-1.4-3.2-3.2s1.4-3.2 3.2-3.2 3.2 1.4 3.2 3.2-1.5 3.2-3.2 3.2z"/>
	<path class="st0" d="m17.1 5.8c-0.6 0-1.1 0.5-1.1 1.1s0.5 1.1 1.1 1.1 1.1-0.5 1.1-1.1-0.5-1.1-1.1-1.1z"/>
	<path class="st0" d="m21.4 8.1c-0.1-1.5-0.4-2.9-1.5-4s-2.5-1.5-4-1.5c-1.6-0.1-6.3-0.1-7.8 0-1.5 0-2.9 0.4-4 1.5s-1.5 2.5-1.5 4c-0.1 1.6-0.1 6.3 0 7.8s0.4 2.9 1.5 4 2.5 1.5 4 1.5c1.6 0.1 6.3 0.1 7.8 0s2.9-0.4 4-1.5 1.5-2.5 1.5-4c0.1-1.6 0.1-6.2 0-7.8zm-2 9.5c-0.3 0.8-1 1.5-1.8 1.8-1.3 0.5-4.2 0.4-5.6 0.4s-4.4 0.1-5.6-0.4c-0.8-0.3-1.5-1-1.8-1.8-0.5-1.3-0.4-4.2-0.4-5.6s-0.1-4.4 0.4-5.6c0.3-0.8 1-1.5 1.8-1.8 1.3-0.5 4.2-0.4 5.6-0.4s4.4-0.1 5.6 0.4c0.8 0.3 1.5 1 1.8 1.8 0.5 1.3 0.4 4.2 0.4 5.6s0.1 4.4-0.4 5.6z"/>
</svg>
