<?xml version="1.0" encoding="UTF-8"?>
<svg enable-background="new 0 0 363 26" version="1.1" viewBox="0 0 363 26" xml:space="preserve" xmlns="http://www.w3.org/2000/svg">
<style type="text/css">
	.st0{fill:#6A7B83;}
</style>
		<path class="st0" d="m240.3 24c-0.2-0.5-0.3-1.1-0.4-1.7s-0.2-1.2-0.2-1.8-0.1-1.2-0.1-1.8c-0.1-0.6-0.2-1.2-0.3-1.7-0.1-0.6-0.3-1.1-0.6-1.5-0.3-0.5-0.6-0.8-1.1-1.2-0.5-0.3-1-0.6-1.8-0.7v-0.1c1.5-0.4 2.6-1.2 3.3-2.3s1-2.5 1-4c0-2-0.7-3.6-2-4.8s-3.2-1.7-5.6-1.7h-11.5v24.9h3.3v-10.8h8.1c0.8 0 1.5 0.1 1.9 0.4 0.5 0.2 0.9 0.6 1.2 1s0.5 0.9 0.7 1.4c0.1 0.5 0.3 1.1 0.3 1.7 0.1 0.6 0.2 1.2 0.2 1.8s0 1.2 0.1 1.8c0 0.5 0.1 1 0.2 1.5 0.1 0.4 0.2 0.8 0.5 1h3.7c-0.4-0.4-0.7-0.9-0.9-1.4zm-5.1-12.8c-0.5 0.3-1.1 0.6-1.8 0.7s-1.4 0.2-2.2 0.2h-6.9v-8.7h8.2c1.6 0 2.7 0.4 3.4 1.2s1 1.8 1 3.1c0 0.9-0.2 1.6-0.5 2.2-0.2 0.5-0.7 1-1.2 1.3z"/>
		<path class="st0" d="m255.2 22.4c-0.8 0.6-1.8 0.9-3.1 0.9-1 0-1.8-0.2-2.5-0.5s-1.3-0.8-1.8-1.3-0.8-1.2-1-1.9-0.3-1.5-0.3-2.2h13.5c0-1.1-0.1-2.2-0.3-3.4s-0.7-2.3-1.3-3.3-1.5-1.9-2.5-2.5c-1.1-0.7-2.4-1-4-1-1.2 0-2.4 0.2-3.4 0.7s-1.9 1.1-2.7 1.9-1.3 1.8-1.8 3c-0.4 1.1-0.6 2.4-0.6 3.8s0.2 2.6 0.6 3.8 0.9 2.2 1.6 3 1.6 1.5 2.7 1.9c1.1 0.5 2.3 0.7 3.7 0.7 2 0 3.7-0.5 5.1-1.5 1.3-1 2.2-2.5 2.6-4.6h-2.9c-0.3 1-0.8 1.9-1.6 2.5zm-8.2-9.6c0.3-0.6 0.6-1.2 1-1.6 0.4-0.5 1-0.8 1.6-1.1s1.3-0.4 2.1-0.4c0.7 0 1.4 0.1 2 0.4s1.1 0.6 1.6 1.1 0.8 1 1.1 1.6 0.4 1.3 0.5 2h-10.3c0-0.8 0.1-1.4 0.4-2z"/>
		<path class="st0" d="m264.8 19.8c0 0.6 0.2 1.2 0.5 1.7s0.6 0.8 1.1 1.1 1 0.5 1.5 0.6c0.6 0.1 1.2 0.2 1.8 0.2 0.5 0 1 0 1.5-0.1s1-0.2 1.4-0.4 0.8-0.5 1.1-0.8c0.3-0.4 0.4-0.8 0.4-1.4 0-0.8-0.3-1.3-0.9-1.7s-1.3-0.7-2.2-1c-0.9-0.2-1.8-0.5-2.8-0.7s-2-0.5-2.8-0.8c-0.9-0.4-1.6-0.9-2.2-1.5s-0.9-1.6-0.9-2.7c0-0.9 0.2-1.7 0.6-2.3s0.9-1.2 1.6-1.6 1.4-0.7 2.2-0.9 1.6-0.3 2.4-0.3c1 0 2 0.1 2.8 0.3 0.9 0.2 1.6 0.5 2.3 0.9s1.2 1 1.6 1.7 0.6 1.6 0.7 2.7h-3c0-0.6-0.2-1.1-0.5-1.4-0.3-0.4-0.6-0.7-1-0.9s-0.8-0.4-1.3-0.5-1-0.2-1.4-0.2-0.9 0-1.3 0.1c-0.5 0.1-0.9 0.2-1.2 0.4-0.4 0.2-0.7 0.4-0.9 0.7s-0.3 0.7-0.3 1.1c0 0.5 0.2 0.9 0.5 1.3 0.4 0.3 0.8 0.6 1.4 0.8s1.2 0.4 1.9 0.6 1.4 0.3 2.1 0.5 1.5 0.4 2.2 0.6 1.3 0.5 1.9 0.9c0.5 0.4 1 0.9 1.3 1.4s0.5 1.3 0.5 2.2c0 1.1-0.2 2-0.7 2.7s-1 1.3-1.8 1.7c-0.7 0.4-1.6 0.7-2.5 0.9s-1.8 0.3-2.7 0.3c-1 0-1.9-0.1-2.9-0.3-0.9-0.2-1.7-0.6-2.4-1-0.7-0.5-1.3-1.1-1.7-1.9s-0.6-1.7-0.7-2.8h2.8z"/>
		<path class="st0" d="m291.3 22.4c-0.8 0.6-1.8 0.9-3.1 0.9-1 0-1.8-0.2-2.5-0.5s-1.3-0.8-1.8-1.3-0.8-1.2-1-1.9-0.3-1.5-0.3-2.2h13.5c0-1.1-0.1-2.2-0.3-3.4s-0.7-2.3-1.3-3.3-1.5-1.9-2.5-2.5c-1.1-0.7-2.4-1-4-1-1.2 0-2.4 0.2-3.4 0.7s-1.9 1.1-2.7 1.9-1.3 1.8-1.8 3c-0.4 1.1-0.6 2.4-0.6 3.8s0.2 2.6 0.6 3.8 0.9 2.2 1.6 3 1.6 1.5 2.7 1.9c1.1 0.5 2.3 0.7 3.7 0.7 2 0 3.7-0.5 5.1-1.5 1.3-1 2.2-2.5 2.6-4.6h-2.9c-0.3 1-0.8 1.9-1.6 2.5zm-8.2-9.6c0.3-0.6 0.6-1.2 1-1.6 0.4-0.5 1-0.8 1.6-1.1s1.3-0.4 2.1-0.4c0.7 0 1.4 0.1 2 0.4s1.1 0.6 1.6 1.1 0.8 1 1.1 1.6 0.4 1.3 0.5 2h-10.3c-0.1-0.8 0.1-1.4 0.4-2z"/>
		<path class="st0" d="m314.2 23.3c-0.5 0-0.7-0.2-0.8-0.5s-0.1-0.8-0.1-1.5v-9.3c0-1-0.2-1.9-0.6-2.5s-0.9-1.2-1.6-1.5c-0.6-0.4-1.4-0.6-2.2-0.7s-1.6-0.2-2.4-0.2c-1 0-2 0.1-2.9 0.3s-1.7 0.6-2.4 1c-0.7 0.5-1.3 1.1-1.7 1.9s-0.6 1.7-0.7 2.8h3c0.1-1.3 0.5-2.2 1.4-2.7 0.8-0.5 1.9-0.7 3.1-0.7 0.5 0 0.9 0 1.4 0.1s0.9 0.2 1.3 0.4 0.7 0.5 0.9 0.9 0.4 0.9 0.4 1.6c0 0.6-0.2 1-0.5 1.3s-0.8 0.5-1.3 0.7c-0.6 0.2-1.2 0.3-1.9 0.3-0.7 0.1-1.5 0.2-2.3 0.4-0.8 0.1-1.5 0.3-2.2 0.5s-1.4 0.5-1.9 0.9c-0.6 0.4-1 0.9-1.4 1.6-0.3 0.6-0.5 1.5-0.5 2.5 0 0.9 0.2 1.7 0.5 2.3s0.7 1.2 1.3 1.5c0.5 0.4 1.2 0.7 1.9 0.9s1.5 0.3 2.3 0.3c1.3 0 2.4-0.2 3.5-0.6s2-1.1 2.8-2.1c0 1 0.2 1.7 0.7 2.1s1.1 0.6 1.8 0.6c0.9 0 1.6-0.2 2.1-0.5v-2.3c-0.5 0.1-0.8 0.2-1 0.2zm-3.9-4.1c0 0.4-0.1 0.9-0.3 1.3-0.2 0.5-0.5 0.9-1 1.3-0.4 0.4-1 0.7-1.7 1s-1.5 0.4-2.5 0.4c-0.5 0-0.9 0-1.3-0.1s-0.8-0.2-1.1-0.5c-0.3-0.2-0.6-0.5-0.8-0.8s-0.3-0.7-0.3-1.2c0-0.7 0.2-1.3 0.5-1.8 0.3-0.4 0.8-0.8 1.3-1s1.1-0.4 1.8-0.5 1.3-0.2 2-0.3 1.3-0.2 1.9-0.3 1.1-0.3 1.5-0.6v3.1z"/>
		<path class="st0" d="m317.7 7.4h2.8v3.8h0.1c0.7-1.5 1.6-2.5 2.6-3.2s2.4-1 4-1v3.1c-1.2 0-2.2 0.2-3 0.5s-1.5 0.8-2 1.4-0.9 1.4-1.1 2.3-0.3 1.9-0.3 3.1v8h-3v-18z"/>
		<path class="st0" d="m341.6 13.2c-0.2-1.1-0.7-2-1.5-2.6-0.7-0.6-1.7-0.9-3-0.9-1.1 0-2 0.2-2.7 0.6s-1.3 0.9-1.7 1.6-0.7 1.4-0.9 2.2-0.3 1.7-0.3 2.6c0 0.8 0.1 1.6 0.3 2.4s0.5 1.5 0.9 2.1 1 1.1 1.6 1.5c0.7 0.4 1.5 0.6 2.4 0.6 1.5 0 2.6-0.4 3.4-1.1 0.8-0.8 1.3-1.8 1.5-3.2h3c-0.3 2.2-1.2 3.9-2.5 5.2-1.3 1.2-3.1 1.8-5.4 1.8-1.4 0-2.6-0.2-3.6-0.7-1.1-0.4-1.9-1.1-2.6-1.9s-1.2-1.8-1.6-2.9-0.5-2.4-0.5-3.7 0.2-2.6 0.5-3.8 0.9-2.2 1.6-3.1 1.6-1.6 2.7-2.1 2.3-0.7 3.7-0.7c1 0 2 0.1 2.9 0.4 0.9 0.2 1.7 0.6 2.4 1.1s1.2 1.2 1.7 1.9c0.4 0.8 0.7 1.7 0.8 2.8h-3.1z"/>
		<path class="st0" d="m348.1 0.6h3v9.5h0.1c0.2-0.6 0.6-1 1-1.4s0.9-0.7 1.4-0.9 1.1-0.4 1.6-0.5c0.6-0.1 1.1-0.2 1.7-0.2 1.2 0 2.2 0.2 3 0.5s1.4 0.8 1.9 1.4 0.8 1.3 1 2.1 0.3 1.7 0.3 2.7v11.8h-3v-12.3c0-1.1-0.3-2-1-2.6-0.6-0.6-1.5-1-2.7-1-0.9 0-1.7 0.1-2.3 0.4-0.7 0.3-1.2 0.7-1.7 1.2-0.4 0.5-0.8 1.1-1 1.8s-0.3 1.4-0.3 2.2v10.2h-3v-24.9z"/>
			<path class="st0" d="m202.4 5.6c0.2 0 0.4-0.1 0.6-0.1 0.2-0.1 0.3-0.2 0.5-0.3 0.1-0.1 0.2-0.3 0.3-0.5s0.1-0.4 0.1-0.7c0-0.6-0.2-1.1-0.6-1.3-0.4-0.3-0.9-0.4-1.6-0.4h-2.1v5.8h1.1v-2.4h0.7l1.4 2.5h1.2l-1.6-2.6zm-1.8-0.8v-1.6h0.9 0.4c0.1 0 0.3 0.1 0.4 0.1 0.1 0.1 0.2 0.1 0.3 0.2s0.1 0.2 0.1 0.4c0 0.4-0.1 0.6-0.3 0.7s-0.5 0.1-0.8 0.1h-1z"/>
			<path class="st0" d="m206.3 3.1c-0.3-0.6-0.7-1.2-1.1-1.6-0.5-0.4-1-0.8-1.7-1-0.6-0.2-1.3-0.4-2-0.4s-1.3 0.1-2 0.4c-0.6 0.2-1.2 0.6-1.7 1s-0.9 1-1.1 1.6c-0.3 0.6-0.4 1.4-0.4 2.1 0 0.8 0.1 1.5 0.4 2.2 0.3 0.6 0.7 1.2 1.1 1.6 0.5 0.5 1 0.8 1.7 1 0.6 0.2 1.3 0.4 2 0.4s1.3-0.1 2-0.4c0.6-0.2 1.2-0.6 1.7-1 0.5-0.5 0.9-1 1.1-1.6 0.3-0.6 0.4-1.4 0.4-2.2 0-0.7-0.1-1.4-0.4-2.1zm-1.3 3.8c-0.2 0.5-0.5 0.9-0.8 1.3s-0.7 0.7-1.2 0.9-1 0.3-1.5 0.3-1-0.1-1.5-0.3-0.9-0.5-1.2-0.9-0.6-0.8-0.8-1.3-0.3-1-0.3-1.6 0.1-1.1 0.3-1.6 0.5-0.9 0.8-1.3 0.7-0.6 1.2-0.8 1-0.3 1.5-0.3 1 0.1 1.5 0.3 0.9 0.5 1.2 0.8c0.3 0.4 0.6 0.8 0.8 1.3s0.3 1 0.3 1.6-0.1 1.1-0.3 1.6z"/>
			<path class="st0" d="m23.6 8c-0.6-1.6-1.4-3-2.4-4.2s-2.3-2.1-3.8-2.8-3.2-1-5.2-1c-1.9 0-3.6 0.3-5.1 1s-2.8 1.6-3.9 2.8c-1 1.2-1.8 2.6-2.4 4.2-0.5 1.5-0.8 3.3-0.8 5.1s0.3 3.5 0.8 5.1c0.6 1.6 1.4 2.9 2.4 4.1s2.3 2.1 3.8 2.7c1.5 0.7 3.2 1 5.1 1s3.6-0.3 5.2-1c1.5-0.7 2.8-1.6 3.8-2.7s1.8-2.5 2.4-4.1 0.8-3.3 0.8-5.1c0.1-1.8-0.1-3.6-0.7-5.1zm-5 8.2c-0.2 1-0.6 1.9-1.2 2.7-0.5 0.8-1.2 1.4-2.1 1.9s-1.9 0.7-3.1 0.7-2.3-0.2-3.1-0.7c-0.9-0.5-1.6-1.1-2.1-1.9s-0.9-1.7-1.2-2.7c-0.2-1-0.4-2-0.4-3 0.1-1.2 0.2-2.2 0.4-3.2 0.3-1.1 0.7-2 1.2-2.8s1.2-1.4 2.1-1.9 1.9-0.7 3.1-0.7 2.3 0.2 3.1 0.7c0.9 0.5 1.6 1.1 2.1 1.9s0.9 1.7 1.2 2.7c0.2 1 0.4 2.1 0.4 3.2s-0.2 2.1-0.4 3.1z"/>
			<path class="st0" d="m39.9 13.8c-0.3-2.1-1.5-3.1-3.7-3.1-0.8 0-1.5 0.2-2 0.5-0.5 0.4-1 0.8-1.3 1.4s-0.6 1.2-0.7 1.9-0.2 1.4-0.2 2 0.1 1.3 0.2 2 0.4 1.3 0.7 1.8 0.7 1 1.3 1.3c0.5 0.3 1.2 0.5 1.9 0.5 1.2 0 2.1-0.3 2.7-1s1-1.5 1.2-2.7h4.8c-0.3 2.4-1.3 4.2-2.8 5.5s-3.5 1.9-5.9 1.9c-1.3 0-2.6-0.2-3.7-0.7s-2.1-1.1-2.9-1.9-1.4-1.8-1.8-2.9-0.7-2.4-0.7-3.7c0-1.4 0.2-2.7 0.6-3.9s1-2.2 1.8-3.1 1.8-1.5 2.9-2c1.2-0.4 2.5-0.6 4-0.6 1.1 0 2.1 0.1 3.1 0.4s1.9 0.7 2.6 1.3c0.8 0.6 1.4 1.3 1.9 2.1s0.8 1.9 0.8 3h-4.8z"/>
			<path class="st0" d="m64.3 13.6c-0.3-1.3-0.9-2.4-1.6-3.4s-1.7-1.8-2.8-2.4-2.5-0.9-4-0.9c-1.4 0-2.6 0.2-3.7 0.7s-2.1 1.2-2.9 2-1.4 1.9-1.9 3-0.7 2.4-0.7 3.8 0.2 2.7 0.6 3.8c0.4 1.2 1 2.2 1.8 3s1.8 1.5 2.9 1.9c1.1 0.5 2.4 0.7 3.8 0.7 2 0 3.8-0.5 5.2-1.4s2.5-2.5 3.2-4.6h-4.2c-0.2 0.6-0.6 1.1-1.3 1.6s-1.6 0.7-2.6 0.7c-1.4 0-2.5-0.4-3.2-1.1s-1.1-1.9-1.2-3.5h13c0.1-1.2-0.1-2.6-0.4-3.9zm-12.6 0.9c0-0.3 0.1-0.7 0.2-1.2 0.1-0.4 0.3-0.9 0.7-1.3 0.3-0.4 0.7-0.7 1.3-1 0.5-0.3 1.2-0.4 2-0.4 1.2 0 2.1 0.3 2.7 1 0.6 0.6 1 1.6 1.2 2.9h-8.1z"/>
			<path class="st0" d="m83.9 23.8c-0.1-0.7-0.1-1.5-0.1-2.3v-9.4c0-1.1-0.2-2-0.7-2.6-0.5-0.7-1.1-1.2-1.9-1.5-0.8-0.4-1.6-0.6-2.5-0.7-1-0.3-2-0.3-2.9-0.3-1 0-2 0.1-3 0.3s-1.9 0.5-2.7 1-1.4 1.1-1.9 1.8c-0.5 0.8-0.8 1.7-0.9 2.9h4.9c0.1-1 0.4-1.7 1-2.1s1.3-0.6 2.3-0.6c0.4 0 0.9 0 1.2 0.1 0.4 0.1 0.7 0.2 1 0.3 0.3 0.2 0.5 0.4 0.7 0.7s0.3 0.7 0.3 1.3c0 0.5-0.1 0.9-0.5 1.2-0.3 0.3-0.8 0.5-1.3 0.6-0.6 0.1-1.2 0.2-1.9 0.3s-1.5 0.2-2.2 0.3-1.5 0.3-2.2 0.5-1.4 0.5-1.9 0.9c-0.6 0.4-1 0.9-1.4 1.6s-0.5 1.5-0.5 2.5c0 0.9 0.2 1.7 0.5 2.4s0.7 1.2 1.3 1.7c0.6 0.4 1.2 0.8 1.9 1s1.5 0.3 2.4 0.3c1.1 0 2.2-0.2 3.3-0.5s2-0.9 2.8-1.7c0 0.3 0.1 0.6 0.1 0.9 0.1 0.3 0.1 0.6 0.2 0.9h5c-0.2-0.5-0.3-1.1-0.4-1.8zm-5.1-5.3c0 0.3 0 0.6-0.1 1.1s-0.2 0.9-0.5 1.4-0.6 0.8-1.2 1.2c-0.5 0.3-1.3 0.5-2.3 0.5-0.4 0-0.8 0-1.1-0.1-0.4-0.1-0.7-0.2-1-0.4s-0.5-0.4-0.7-0.7-0.2-0.7-0.2-1.1c0-0.5 0.1-0.8 0.2-1.1 0.2-0.3 0.4-0.6 0.6-0.7s0.6-0.4 0.9-0.5c0.4-0.1 0.7-0.2 1.1-0.3s0.8-0.1 1.2-0.2c0.4 0 0.8-0.1 1.1-0.2 0.4-0.1 0.7-0.2 1-0.3s0.6-0.2 0.8-0.4v1.8z"/>
			<path class="st0" d="m87.6 7.4h4.7v2.6h0.1c0.6-1 1.4-1.8 2.4-2.3s2-0.7 3.1-0.7c1.3 0 2.4 0.2 3.3 0.5 0.8 0.4 1.5 0.9 2 1.5s0.8 1.4 1 2.3 0.3 1.9 0.3 3v11.1h-4.9v-10.1c0-1.5-0.2-2.6-0.7-3.3s-1.3-1.1-2.5-1.1c-1.3 0-2.3 0.4-2.9 1.2s-0.9 2.1-0.9 4v9.4h-4.9v-18.1z"/>
			<polygon class="st0" points="142.1 25.4 136.6 25.4 132.4 8.5 132.4 8.5 128.2 25.4 122.7 25.4 116.1 0.6 121.6 0.6 125.5 17.5 125.6 17.5 129.9 0.6 135 0.6 139.3 17.7 139.3 17.7 143.4 0.6 148.8 0.6"/>
			<rect class="st0" x="150.9" y=".6" width="4.9" height="4.1"/>
			<rect class="st0" x="150.9" y="7.4" width="4.9" height="18"/>
			<path class="st0" d="m163.6 19.6c0 0.5 0.1 1 0.3 1.4s0.5 0.7 0.9 0.9c0.3 0.2 0.7 0.4 1.2 0.5s0.9 0.2 1.4 0.2c0.3 0 0.7 0 1.1-0.1s0.7-0.2 1-0.4 0.6-0.4 0.8-0.7 0.3-0.7 0.3-1.1c0-0.7-0.5-1.3-1.5-1.7s-2.4-0.7-4.1-1.1l-2.1-0.6c-0.7-0.2-1.3-0.5-1.8-0.9s-1-0.8-1.3-1.4c-0.3-0.5-0.5-1.2-0.5-2 0-1.2 0.2-2.1 0.7-2.9 0.5-0.7 1-1.3 1.8-1.8 0.7-0.4 1.6-0.7 2.5-0.9s1.9-0.3 2.9-0.3 1.9 0.1 2.8 0.3 1.7 0.5 2.5 0.9c0.7 0.4 1.3 1 1.8 1.8s0.8 1.7 0.9 2.8h-4.7c-0.1-1-0.4-1.6-1.1-1.9-0.6-0.3-1.4-0.5-2.3-0.5-0.3 0-0.6 0-0.9 0.1-0.3 0-0.6 0.1-0.9 0.2s-0.5 0.3-0.7 0.5-0.3 0.5-0.3 0.9 0.2 0.8 0.5 1.1 0.7 0.5 1.3 0.7c0.5 0.2 1.1 0.3 1.8 0.5s1.4 0.3 2.1 0.5l2.1 0.6c0.7 0.2 1.3 0.5 1.8 0.9s1 0.9 1.3 1.4c0.3 0.6 0.5 1.3 0.5 2.1 0 1.2-0.2 2.2-0.7 3s-1.1 1.4-1.9 1.9-1.6 0.8-2.6 1-2 0.3-3 0.3-2.1-0.1-3.1-0.3-1.9-0.6-2.7-1c-0.8-0.5-1.4-1.1-1.9-1.9s-0.8-1.8-0.8-3h4.6z"/>
			<path class="st0" d="m195.1 13.6c-0.3-1.3-0.9-2.4-1.6-3.4s-1.7-1.8-2.8-2.4-2.5-0.9-4-0.9c-1.4 0-2.6 0.2-3.7 0.7s-2.1 1.2-2.9 2-1.4 1.9-1.9 3c-0.4 1.2-0.7 2.4-0.7 3.8s0.2 2.7 0.6 3.8c0.4 1.2 1 2.2 1.8 3s1.8 1.5 2.9 1.9c1.1 0.5 2.4 0.7 3.8 0.7 2 0 3.8-0.5 5.2-1.4s2.5-2.5 3.2-4.6h-4.4c-0.2 0.6-0.6 1.1-1.3 1.6s-1.6 0.7-2.6 0.7c-1.4 0-2.5-0.4-3.2-1.1s-1.1-1.9-1.2-3.5h13c0.3-1.2 0.1-2.6-0.2-3.9zm-12.6 0.9c0-0.3 0.1-0.7 0.2-1.2s0.3-0.9 0.7-1.3c0.3-0.4 0.7-0.7 1.3-1 0.5-0.3 1.2-0.4 2-0.4 1.2 0 2.1 0.3 2.7 1 0.6 0.6 1 1.6 1.2 2.9h-8.1z"/>
</svg>
