<?xml version="1.0" encoding="UTF-8"?>
<svg enable-background="new 0 0 24 24" version="1.1" viewBox="0 0 24 24" xml:space="preserve" xmlns="http://www.w3.org/2000/svg">
<style type="text/css">
	.st0{fill:#00B398;}
</style>
<path class="st0" d="m18.9 5.8l-3.3-3.3c-0.3-0.3-0.8-0.5-1.3-0.5h-8c-1 0-1.9 0.8-1.9 1.9v16.2c0 1 0.8 1.9 1.9 1.9h11.2c1 0 1.9-0.8 1.9-1.9v-13c0.1-0.4-0.1-0.9-0.5-1.3zm-1.4 1.2h-3v-3l3 3zm-11.1 13.1v-16.2h6.2v4.1c0 0.5 0.4 0.9 0.9 0.9h4.1v11.2h-11.2zm9.7-5.6c-0.5-0.5-1.8-0.3-2.5-0.3-0.7-0.4-1.1-1-1.4-1.8 0.2-0.6 0.4-1.6 0.2-2.2-0.2-1-1.5-0.9-1.7-0.2-0.2 0.6 0 1.5 0.3 2.6-0.4 0.9-1 2.2-1.4 2.9-0.8 0.4-1.8 1-2 1.8-0.1 0.6 1 2.2 3-1.2 0.9-0.3 1.8-0.6 2.7-0.8 0.7 0.4 1.6 0.7 2.2 0.7 1 0 1.1-1.1 0.6-1.5zm-7.7 3.1c0.2-0.5 1-1.2 1.2-1.4-0.7 1.2-1.2 1.4-1.2 1.4zm3.2-7.5c0.3 0 0.3 1.3 0.1 1.6-0.2-0.5-0.2-1.6-0.1-1.6zm-1 5.3c0.4-0.7 0.7-1.4 1-2.1 0.3 0.6 0.7 1.1 1.2 1.4-0.8 0.2-1.5 0.5-2.2 0.7zm5.2-0.2s-0.2 0.2-1.5-0.3c1.4-0.1 1.6 0.3 1.5 0.3z"/>
</svg>
