<?xml version="1.0" encoding="UTF-8"?>
<svg enable-background="new 0 0 24 24" version="1.1" viewBox="0 0 24 24" xml:space="preserve" xmlns="http://www.w3.org/2000/svg">
<style type="text/css">
	.st0{fill:#B2BEC4;}
</style>
<path class="st0" d="m21.7 19.3l-3.9-3.9c-0.2-0.2-0.4-0.3-0.7-0.3h-0.6c1.1-1.4 1.7-3.1 1.7-5 0-4.5-3.6-8.1-8.1-8.1s-8.1 3.6-8.1 8.1 3.6 8.1 8.1 8.1c1.9 0 3.6-0.6 5-1.7v0.6c0 0.2 0.1 0.5 0.3 0.7l3.9 3.9c0.4 0.4 1 0.4 1.3 0l1.1-1.1c0.4-0.3 0.4-0.9 0-1.3zm-11.6-4.2c-2.8 0-5-2.2-5-5s2.2-5 5-5 5 2.2 5 5-2.2 5-5 5z"/>
</svg>
