<?xml version="1.0" encoding="UTF-8"?>
<svg enable-background="new 0 0 24 24" version="1.1" viewBox="0 0 24 24" xml:space="preserve" xmlns="http://www.w3.org/2000/svg">
<style type="text/css">
	.st0{fill:#B2BEC4;}
</style>
<path class="st0" d="m21 16.8c-0.2 0.4-1 0.7-2.4 1-0.1 0.1-0.1 0.5-0.2 0.8-0.1 0.2-0.2 0.3-0.4 0.3-0.3 0-0.7-0.2-1.4-0.2-0.9 0-1.3 0.2-2 0.7-0.8 0.5-1.5 1-2.6 1-1.1 0.1-2-0.6-2.6-1-0.7-0.5-1-0.7-2-0.7-0.7 0-1.1 0.2-1.4 0.2s-0.4-0.2-0.4-0.3c-0.1-0.3-0.2-0.7-0.2-0.8-0.7-0.2-2.4-0.5-2.4-1.2 0-0.2 0.1-0.4 0.3-0.4 2.4-0.4 3.5-2.9 3.6-3 0.1-0.3 0.2-0.5 0.1-0.7-0.2-0.4-0.9-0.6-1.3-0.7-0.8-0.3-0.9-0.7-0.9-1 0.1-0.5 0.8-0.7 1.2-0.5 0.3 0.1 0.6 0.2 0.8 0.2s0.3 0 0.4-0.1c-0.1-1.2-0.3-3 0.2-4 1.2-2.7 3.7-2.9 4.4-2.9h0.4c1.8 0 3.6 0.9 4.5 2.9 0.4 1 0.3 2.8 0.2 4.1 0.1 0 0.2 0.1 0.3 0.1 0.2 0 0.5-0.1 0.8-0.2 0.2-0.1 0.5-0.1 0.7 0 0.3 0.1 0.5 0.4 0.5 0.6 0 0.3-0.3 0.6-0.9 0.9-0.1 0-0.2 0.1-0.3 0.1-0.3 0.1-0.9 0.3-1 0.6-0.1 0.2 0 0.4 0.1 0.7 0 0.1 1.1 2.6 3.6 3 0.2-0.1 0.4 0.2 0.3 0.5z"/>
</svg>
