<?xml version="1.0" encoding="UTF-8"?>
<svg enable-background="new 0 0 24 24" version="1.1" viewBox="0 0 24 24" xml:space="preserve" xmlns="http://www.w3.org/2000/svg">
<style type="text/css">
	.st0{fill:#B2BEC4;}
</style>
<path class="st0" d="m19.9 8v0.5c0 5.4-4.1 11.6-11.7 11.6-2.3 0-4.5-0.7-6.3-1.8 0.3 0 0.6 0.1 1 0.1 1.9 0 3.7-0.6 5.1-1.7-1.8 0-3.3-1.2-3.8-2.8 0.3 0 0.5 0.1 0.8 0.1 0.4 0 0.7-0.1 1.1-0.1-1.9-0.4-3.3-2-3.3-4v-0.3c0.5 0.3 1.2 0.5 1.9 0.5-1.1-0.7-1.8-2-1.8-3.4-0.1-0.7 0.1-1.4 0.5-2 2 2.5 5.1 4.1 8.5 4.3-0.1-0.3-0.1-0.6-0.1-0.9 0-2.3 1.8-4.1 4.1-4.1 1.2 0 2.2 0.5 3 1.3 0.9-0.2 1.8-0.5 2.6-1-0.3 0.9-1 1.7-1.8 2.3 0.8-0.1 1.6-0.3 2.4-0.6-0.7 0.7-1.4 1.4-2.2 2z"/>
</svg>
