<?xml version="1.0" encoding="UTF-8"?>
<svg enable-background="new 0 0 24 24" version="1.1" viewBox="0 0 24 24" xml:space="preserve" xmlns="http://www.w3.org/2000/svg">
<style type="text/css">
	.st0{fill:#B2BEC4;}
</style>
<path class="st0" d="m21.1 7.4c-0.2-0.8-0.9-1.5-1.7-1.7-1.5-0.5-7.4-0.5-7.4-0.5s-5.9 0-7.4 0.4c-0.8 0.3-1.5 0.9-1.7 1.8-0.4 1.5-0.4 4.6-0.4 4.6s0 3.1 0.4 4.7c0.2 0.8 0.9 1.5 1.7 1.7 1.5 0.4 7.4 0.4 7.4 0.4s5.9 0 7.4-0.4c0.8-0.2 1.5-0.8 1.7-1.7 0.4-1.5 0.4-4.7 0.4-4.7s0-3.1-0.4-4.6zm-11 7.5v-5.7l5 2.9-5 2.8z"/>
</svg>
