<?xml version="1.0" standalone="no"?>
<!DOCTYPE svg PUBLIC "-//W3C//DTD SVG 20010904//EN"
 "http://www.w3.org/TR/2001/REC-SVG-20010904/DTD/svg10.dtd">
<svg version="1.0" xmlns="http://www.w3.org/2000/svg"
 width="700.000000pt" height="700.000000pt" viewBox="0 0 700.000000 700.000000"
 preserveAspectRatio="xMidYMid meet">
<metadata>
Created by potrace 1.11, written by Peter Selinger 2001-2013
</metadata>
<g transform="translate(0.000000,700.000000) scale(0.100000,-0.100000)"
fill="#000000" stroke="none">
<path d="M3285 6994 c-203 -20 -276 -28 -375 -45 -610 -105 -1195 -376 -1665
-772 -95 -81 -310 -294 -394 -392 -468 -542 -742 -1176 -833 -1925 -17 -137
-17 -583 0 -720 69 -569 227 -1028 514 -1491 145 -236 311 -440 525 -649 204
-200 371 -332 592 -468 463 -287 922 -445 1491 -514 137 -17 583 -17 720 0
569 69 1028 227 1491 514 360 222 692 528 958 882 323 430 549 960 640 1501
38 223 46 327 46 585 0 258 -8 362 -46 585 -105 627 -382 1216 -800 1700 -84
98 -299 311 -394 392 -518 437 -1148 710 -1845 798 -117 15 -536 28 -625 19z
m-109 -259 c-11 -8 -27 -15 -35 -15 -13 1 -12 4 3 15 11 8 27 15 35 15 13 -1
12 -4 -3 -15z m99 -182 c16 -72 15 -103 -3 -103 -5 0 -19 37 -31 83 -11 45
-27 103 -35 128 -13 42 -13 48 2 63 15 14 17 11 33 -40 10 -31 25 -89 34 -131z
m198 172 c1 -6 -11 -11 -28 -13 -29 -2 -29 -2 -10 13 20 16 35 16 38 0z m405
-21 c40 -9 71 -19 68 -22 -3 -3 -47 0 -98 7 -51 6 -115 14 -142 17 -35 5 -45
9 -35 16 17 11 110 3 207 -18z m-700 -21 c3 -10 22 -76 42 -148 34 -123 37
-130 62 -133 22 -3 28 2 32 20 3 13 12 59 20 103 9 44 22 100 29 125 12 41 16
45 43 42 16 -2 31 -5 33 -8 2 -2 -5 -32 -16 -66 -20 -61 -39 -145 -65 -293
l-13 -70 -57 -3 -57 -3 -29 58 c-17 32 -50 121 -75 198 -25 77 -48 148 -52
157 -5 13 2 18 37 26 24 6 47 10 51 11 4 1 11 -7 15 -16z m322 6 c0 -6 -16
-57 -35 -112 -19 -56 -39 -143 -46 -194 -7 -60 -16 -94 -25 -97 -17 -6 -17 7
-4 94 15 99 58 256 82 303 10 19 28 23 28 6z m335 -22 l90 -12 0 -35 0 -35
-59 0 -59 0 -22 -85 c-13 -47 -26 -118 -30 -157 l-7 -73 56 0 c58 0 65 -6 50
-45 -6 -14 -19 -15 -93 -10 -119 8 -211 25 -211 39 1 31 18 39 73 32 30 -4 58
-3 61 2 6 10 25 141 33 236 7 78 4 81 -69 91 -41 6 -48 10 -48 29 0 13 3 26 7
29 10 10 126 7 228 -6z m329 7 c9 -3 13 -10 10 -15 -6 -10 -45 -12 -69 -3 -13
5 -14 8 -3 15 15 10 40 11 62 3z m-179 -36 c-9 -39 -29 -56 -33 -28 -4 23 14
60 29 60 7 0 8 -12 4 -32z m-1245 16 c0 -6 -65 -34 -81 -34 -19 0 10 28 34 33
36 7 47 7 47 1z m115 -100 c74 -147 111 -210 150 -253 38 -42 43 -56 21 -64
-21 -8 -74 69 -157 226 -38 72 -78 140 -89 152 -15 16 -17 24 -8 33 7 7 17 11
23 9 5 -2 33 -48 60 -103z m1379 -14 c9 -60 25 -133 35 -162 13 -39 15 -62 9
-85 -5 -18 -11 -33 -14 -33 -11 0 -46 100 -59 170 -31 172 -30 219 6 220 3 0
14 -49 23 -110z m-86 77 c6 -7 16 -50 21 -96 18 -143 68 -311 91 -311 12 0 34
63 85 240 20 69 40 129 44 133 9 9 71 -24 71 -38 0 -14 -133 -396 -145 -414
-5 -10 -123 13 -136 26 -4 4 -23 66 -41 136 -18 71 -37 129 -43 130 -9 2 -45
-127 -59 -215 l-7 -36 -37 10 c-20 6 -38 11 -39 12 -3 3 32 158 72 324 l28
112 42 0 c23 0 47 -6 53 -13z m-1375 -29 c13 -18 53 -88 87 -155 35 -68 81
-146 103 -175 l40 -52 -23 -18 c-12 -10 -26 -18 -30 -18 -4 0 -22 22 -39 49
-17 26 -40 56 -51 66 -11 10 -20 24 -20 32 0 14 -24 16 -83 7 l-38 -7 2 -104
c1 -57 -1 -106 -4 -109 -3 -3 -21 -7 -39 -7 l-33 -2 -7 105 c-7 108 -22 254
-33 326 l-7 41 69 25 c37 15 71 27 75 27 4 1 18 -14 31 -31z m1735 23 c10 -6
5 -11 -17 -21 -26 -10 -35 -10 -56 4 -14 9 -25 19 -25 21 0 8 84 5 98 -4z
m-647 -46 c3 -2 -5 -53 -17 -112 -18 -95 -24 -108 -43 -111 -17 -3 -21 2 -21
25 0 31 23 133 39 176 9 24 30 35 42 22z m659 -10 c0 -8 -16 -54 -36 -102 -42
-101 -104 -278 -104 -298 0 -7 -9 -15 -20 -18 -25 -6 -30 -25 58 228 36 105
71 193 76 197 17 12 26 9 26 -7z m-2102 -119 c17 -16 23 -30 18 -42 -6 -16
-10 -14 -33 15 -15 18 -40 40 -57 48 l-31 14 39 -5 c24 -3 50 -15 64 -30z
m2400 5 c50 -26 122 -89 122 -107 0 -26 -30 -27 -68 -1 -52 36 -85 47 -142 47
-41 0 -55 -5 -86 -32 -50 -44 -74 -99 -74 -172 0 -54 3 -61 35 -91 43 -41 104
-54 140 -31 33 22 33 59 0 74 -30 14 -31 23 -5 47 19 17 21 17 75 -20 30 -21
55 -44 55 -50 0 -6 -14 -32 -30 -57 -65 -99 -185 -109 -278 -24 -42 37 -56 76
-56 151 0 101 48 181 149 251 58 40 106 44 163 15z m-2449 -26 c17 -20 31 -40
31 -44 0 -5 -14 -14 -31 -20 -26 -9 -35 -8 -56 9 -58 46 -164 6 -203 -76 -19
-38 -22 -56 -16 -105 3 -33 12 -72 21 -88 19 -38 66 -76 110 -91 32 -10 40 -9
80 15 25 14 52 39 60 55 12 23 22 30 45 30 39 0 43 -11 21 -62 -23 -53 -77
-103 -130 -119 -35 -10 -49 -9 -109 10 -81 26 -123 64 -147 130 -30 86 -11
229 40 296 37 50 130 94 196 95 53 0 59 -3 88 -35z m2581 -24 c19 -17 30 -30
23 -31 -9 0 -81 55 -113 88 -18 18 62 -32 90 -57z m-846 -129 c-7 -15 -14 -32
-14 -38 0 -6 -7 -18 -17 -25 -15 -13 -16 -9 -9 41 4 30 12 73 18 95 l11 40 13
-43 c11 -35 10 -47 -2 -70z m-437 74 c-2 -6 -15 -9 -28 -8 -31 5 -37 11 -20
21 17 11 53 2 48 -13z m-1461 -28 c-55 -64 -64 -127 -28 -195 15 -27 70 -73
88 -73 8 0 14 -5 14 -11 0 -18 -65 -4 -100 21 -44 31 -63 75 -62 142 1 89 46
155 105 157 15 1 12 -7 -17 -41z m2477 27 c-29 -20 -57 -107 -50 -155 3 -22
12 -53 21 -71 23 -45 13 -48 -29 -6 -29 29 -35 42 -35 76 0 72 58 171 99 171
11 0 10 -4 -6 -15z m-803 -15 c8 -5 11 -12 8 -15 -10 -10 -69 5 -62 16 7 12
35 11 54 -1z m1110 2 c0 -13 -23 -32 -39 -32 -11 0 -10 4 4 20 19 21 35 26 35
12z m-2225 -87 c8 -57 3 -85 -15 -85 -6 0 -10 29 -10 70 0 83 16 93 25 15z
m1154 23 c-5 -18 -9 -34 -9 -35 0 -2 -7 -3 -15 -3 -12 0 -14 7 -9 28 9 36 13
42 29 42 11 0 12 -7 4 -32z m992 -110 c16 -12 29 -25 29 -30 0 -19 -38 -4 -75
29 -39 35 -39 35 -11 29 15 -4 41 -17 57 -28z m-2441 -13 c-7 -8 -21 -15 -32
-15 -17 0 -18 3 -8 15 7 8 21 15 32 15 17 0 18 -3 8 -15z m30 -45 c0 -26 -23
-72 -46 -91 -16 -13 -17 -12 -10 6 7 19 23 63 32 93 6 20 24 14 24 -8z m2425
-9 c17 -7 15 -12 -25 -54 -25 -25 -55 -48 -68 -52 -20 -6 -18 -1 17 47 23 29
41 56 41 61 0 9 9 8 35 -2z m-3615 -171 l21 -30 -44 -57 c-78 -100 -90 -142
-66 -226 21 -77 130 -167 201 -167 66 0 147 90 165 182 7 38 18 48 55 48 22 0
28 -6 34 -32 10 -41 8 -48 -22 -128 -99 -264 -417 -218 -514 75 -17 51 -21 82
-17 125 6 68 22 102 74 153 21 21 49 49 63 62 13 14 25 25 26 25 2 0 12 -13
24 -30z m2577 -9 c523 -77 998 -316 1373 -691 389 -389 624 -868 701 -1430 17
-124 17 -488 0 -605 -107 -734 -473 -1327 -1068 -1728 -857 -579 -2000 -549
-2829 74 -501 376 -838 926 -945 1541 -88 507 -13 1025 215 1493 117 239 261
443 449 634 415 424 951 677 1545 731 138 12 405 3 559 -19z m-2711 -33 c-63
-64 -81 -116 -74 -216 14 -182 170 -353 326 -356 40 0 47 -2 30 -9 -86 -32
-275 78 -332 192 -53 105 -59 237 -16 325 32 62 78 116 100 116 14 0 5 -13
-34 -52z m4490 -58 c86 -42 114 -66 139 -124 21 -50 24 -129 6 -149 -14 -14
-71 14 -71 35 0 10 -10 41 -21 68 -18 42 -29 54 -75 76 -105 51 -175 42 -243
-31 -46 -50 -53 -93 -26 -157 19 -46 104 -122 161 -144 39 -15 45 -21 42 -43
-2 -22 -9 -27 -37 -29 -42 -4 -146 46 -197 96 -50 48 -87 135 -79 181 20 116
68 191 144 228 84 40 163 38 257 -7z m102 -9 c63 -52 102 -131 102 -203 0 -42
-4 -58 -13 -58 -10 0 -13 13 -9 53 3 42 -1 63 -23 109 -26 56 -49 77 -150 137
-17 10 -15 11 15 5 19 -3 55 -22 78 -43z m-319 -117 c-20 -21 -24 -36 -24 -83
1 -50 5 -64 30 -94 17 -19 57 -51 90 -71 53 -32 56 -36 32 -36 -35 0 -60 13
-118 61 -86 72 -100 160 -33 218 42 38 57 41 23 5z m-3883 -67 c-14 -72 -101
-168 -152 -167 -11 1 0 11 29 26 49 26 79 63 98 124 6 19 13 41 15 49 9 27 16
2 10 -32z m-628 -183 c2 -1 -18 -41 -44 -88 -25 -48 -45 -88 -43 -90 28 -21
280 -182 327 -209 l63 -37 35 77 c19 42 36 79 38 81 2 2 20 -5 40 -15 l37 -19
-25 -34 c-14 -19 -48 -78 -77 -130 -70 -128 -131 -220 -145 -220 -6 0 -18 8
-28 19 -16 17 -15 21 18 69 19 27 36 62 38 77 3 25 -6 33 -92 84 -52 31 -135
87 -183 125 -49 37 -94 65 -100 63 -7 -2 -25 -28 -42 -59 -47 -87 -52 -91 -85
-71 l-28 16 26 51 c14 28 56 104 94 169 37 65 68 121 68 124 0 3 10 21 21 40
l21 34 32 -28 c17 -15 32 -29 34 -29z m-138 -8 c-10 -24 -48 -95 -84 -158 -36
-64 -66 -120 -66 -125 0 -14 -39 -63 -51 -63 -10 0 25 76 47 101 8 9 39 70 69
135 45 99 81 154 101 154 2 0 -5 -20 -16 -44z m5345 4 c8 -16 15 -34 15 -40 0
-21 -29 -9 -55 22 l-28 33 24 6 c13 4 25 7 26 8 1 1 9 -12 18 -29z m-84 -2
c46 -54 47 -51 -70 -122 -155 -92 -215 -132 -229 -149 -11 -13 -8 -26 17 -76
17 -33 31 -64 31 -69 0 -4 -14 -16 -31 -26 -37 -22 -33 -25 -109 87 -42 61
-51 82 -44 95 6 8 51 43 101 76 161 108 308 204 311 205 2 1 12 -9 23 -21z
m-432 -89 c-22 -14 -29 -11 -29 15 0 31 22 39 34 14 7 -14 6 -22 -5 -29z m471
-9 c-14 -11 -52 -37 -85 -57 -33 -20 -87 -56 -120 -80 -32 -24 -68 -43 -79
-43 -18 0 -18 2 -6 14 22 22 291 186 304 186 6 0 0 -9 -14 -20z m-5247 -197
c117 -91 149 -113 211 -147 56 -31 66 -40 52 -48 -12 -7 -52 14 -170 93 -101
67 -152 107 -149 116 7 19 15 17 56 -14z m397 -42 c-11 -23 -25 -41 -31 -41
-7 0 -5 9 5 23 9 12 21 32 28 45 6 12 13 20 15 18 3 -2 -5 -22 -17 -45z m4596
-8 c11 -27 21 -51 22 -55 2 -5 -5 -8 -15 -8 -11 0 -28 18 -45 49 -34 59 -34
61 -4 61 19 0 27 -10 42 -47z m-5204 -39 c22 -11 27 -19 19 -27 -14 -14 -61 7
-61 28 0 19 4 19 42 -1z m5652 -19 c11 -19 17 -37 15 -39 -2 -2 -44 -25 -94
-51 -145 -76 -185 -106 -185 -137 0 -72 119 -63 318 23 57 25 68 22 78 -27 5
-28 3 -31 -53 -53 -32 -13 -98 -42 -148 -64 -72 -32 -105 -41 -167 -45 -67 -4
-81 -2 -113 18 -92 57 -68 165 57 256 45 33 255 154 268 154 3 0 14 -16 24
-35z m74 3 c18 -16 15 -38 -7 -38 -16 0 -51 38 -51 55 0 8 41 -5 58 -17z
m-515 -59 c-16 -16 -28 -20 -48 -15 -26 7 -27 8 -9 21 11 8 32 15 49 15 l29 0
-21 -21z m-5053 -190 c36 -30 106 -81 155 -113 50 -33 93 -64 97 -70 3 -5 -5
-31 -18 -58 l-24 -48 -53 0 c-64 0 -207 23 -279 45 -29 9 -100 19 -156 22
l-104 6 7 46 c4 25 9 50 12 54 6 10 70 1 223 -33 156 -35 210 -43 210 -31 0 5
-24 26 -52 47 -79 55 -288 225 -288 233 0 4 14 26 31 50 l32 43 71 -70 c39
-38 100 -94 136 -123z m5564 185 c11 -4 -16 -22 -80 -56 -119 -61 -173 -95
-195 -122 -14 -16 -20 -18 -30 -9 -27 27 11 58 180 145 99 51 101 51 125 42z
m-5823 -21 c-19 -35 -39 -58 -46 -51 -10 10 24 68 41 68 11 0 12 -4 5 -17z
m568 -93 c-29 -45 -49 -62 -49 -43 0 11 53 98 64 105 23 15 16 -14 -15 -62z
m-509 -62 c51 -40 117 -92 147 -115 39 -31 49 -43 35 -43 -38 0 -81 12 -84 24
-2 7 -49 54 -105 105 -57 51 -103 95 -103 97 0 13 29 -4 110 -68z m5874 32
c14 -5 26 -16 26 -25 0 -22 -37 -19 -50 4 -18 34 -15 36 24 21z m-5359 -80
c18 -19 17 -20 -2 -20 -12 0 -31 9 -44 20 l-24 19 26 1 c14 0 34 -9 44 -20z
m5354 6 c-24 -25 -143 -83 -217 -106 -92 -30 -158 -41 -92 -15 19 7 96 40 170
72 118 52 155 65 139 49z m-6081 -178 c-12 -22 -13 -22 -16 -2 -1 11 3 34 9
50 l13 29 4 -27 c2 -15 -3 -37 -10 -50z m287 -54 c93 -25 196 -44 244 -44 39
0 42 -2 30 -16 -16 -19 -61 -15 -244 21 -66 13 -158 29 -205 35 -47 7 -92 17
-100 22 -25 16 209 1 275 -18z m5916 -51 l42 -78 -12 -60 c-17 -79 -25 -92
-66 -104 -53 -14 -105 2 -143 45 -35 40 -52 40 -34 -1 21 -46 14 -70 -32 -113
-46 -42 -56 -46 -137 -57 -37 -5 -51 -1 -79 17 -39 27 -70 102 -73 181 -2 47
0 50 28 59 17 6 75 29 130 53 105 46 315 132 327 134 3 0 25 -34 49 -76z m63
-5 c43 -144 43 -150 1 -209 -21 -28 -49 -55 -62 -60 -32 -12 -110 -12 -118 1
-4 6 14 10 48 10 43 0 58 4 74 23 31 34 42 60 49 120 6 51 4 61 -30 120 -20
36 -36 68 -36 71 0 3 11 6 25 6 22 0 27 -8 49 -82z m-6202 -144 c317 -54 456
-115 473 -207 9 -45 -28 -139 -66 -171 -17 -14 -55 -33 -86 -42 -60 -18 -116
-14 -355 23 l-118 17 0 33 c0 17 5 35 10 38 6 3 56 -1 113 -9 56 -9 157 -17
225 -19 l123 -2 30 33 c46 51 35 116 -26 145 -75 36 -279 77 -379 77 l-69 0 7
42 c7 41 13 58 22 58 2 0 46 -7 96 -16z m-138 -41 c-4 -16 -13 -35 -20 -43
-12 -12 -14 -11 -14 8 0 24 20 62 33 62 4 0 4 -12 1 -27z m274 -89 c70 -14
145 -36 167 -48 52 -28 65 -64 39 -103 l-19 -28 -3 25 c-6 47 -26 71 -86 100
-71 34 -188 60 -278 61 -102 2 -127 17 -30 18 53 1 128 -8 210 -25z m5852 1
c31 -37 -119 -125 -213 -125 -31 0 -38 3 -27 10 8 5 29 10 45 10 50 1 112 35
142 79 31 45 35 47 53 26z m-6160 -229 c0 -14 -4 -28 -10 -31 -6 -4 -10 7 -10
24 0 17 5 31 10 31 6 0 10 -11 10 -24z m195 -72 c38 -8 119 -17 179 -21 84 -5
104 -8 85 -16 -35 -13 -149 -10 -274 8 -60 9 -129 19 -153 22 -36 5 -40 8 -30
20 13 16 68 13 193 -13z m6097 -161 c81 -56 101 -155 48 -235 -50 -76 -62 -83
-154 -86 -75 -3 -84 -1 -127 26 -56 36 -83 88 -82 158 0 55 33 128 62 138 9 3
38 14 65 24 63 23 132 14 188 -25z m-5946 -158 c43 -21 60 -36 84 -78 56 -97
53 -139 -18 -218 -61 -68 -93 -81 -167 -69 -110 18 -160 80 -153 190 5 100 57
170 141 190 51 12 57 11 113 -15z m4104 -2761 c0 -17 -22 -14 -28 4 -2 7 3 12
12 12 9 0 16 -7 16 -16z m-2455 -15 c10 -15 -1 -22 -24 -14 -12 3 -19 11 -16
16 8 12 32 11 40 -2z m1255 -204 c74 -154 73 -150 51 -193 -30 -59 -64 -84
-119 -90 -45 -4 -50 -2 -81 34 -31 35 -33 41 -29 95 3 41 15 77 40 126 20 38
42 98 49 133 11 57 13 61 22 40 5 -14 36 -79 67 -145z m-1072 143 c27 -27 -5
-73 -38 -53 -20 12 -4 65 20 65 3 0 11 -5 18 -12z m1485 -36 c3 -27 17 -74 31
-106 42 -95 43 -120 8 -156 -37 -37 -65 -38 -99 -4 -23 24 -25 31 -19 82 3 32
17 89 31 127 14 39 25 78 25 88 0 38 18 14 23 -31z m592 37 c4 -5 4 -21 1 -35
-8 -32 -52 -34 -62 -2 -10 33 44 66 61 37z m-1511 -198 c25 -68 21 -116 -10
-140 -32 -25 -71 -27 -102 -5 -18 12 -22 25 -22 67 0 43 9 69 52 155 l53 102
7 -67 c3 -38 13 -88 22 -112z m-316 137 c20 -20 14 -65 -10 -82 -29 -20 -47
-20 -70 1 -24 22 -23 48 4 73 24 22 58 26 76 8z m1575 -8 c22 -31 10 -78 -25
-96 -27 -14 -32 -14 -54 1 -34 22 -33 67 4 94 34 26 57 26 75 1z"/>
<path d="M2703 6528 c-18 -9 -23 -19 -23 -52 0 -61 9 -69 64 -61 25 4 48 11
51 15 6 9 -54 110 -64 109 -3 0 -16 -5 -28 -11z m45 -50 c18 -31 17 -33 -19
-42 -24 -5 -27 -3 -31 24 -4 29 8 53 25 47 5 -1 16 -15 25 -29z"/>
<path d="M3782 5607 c-23 -12 -88 -65 -144 -117 -147 -135 -130 -127 -175 -87
-21 19 -58 45 -83 57 -25 12 -66 38 -91 56 -49 35 -77 41 -110 23 -15 -8 -24
-7 -35 2 -12 10 -20 8 -42 -8 -44 -32 -143 -154 -165 -203 -22 -49 -82 -134
-115 -163 -20 -18 -62 -16 -62 3 0 15 -97 80 -121 80 -15 0 -43 -21 -82 -62
-108 -115 -232 -263 -287 -341 -29 -42 -58 -77 -62 -77 -5 0 -27 14 -48 31
-21 17 -43 28 -49 24 -17 -10 -53 -84 -46 -95 3 -5 65 -55 137 -112 72 -57
179 -141 237 -187 58 -46 127 -98 153 -115 53 -34 54 -38 33 -80 -8 -15 -13
-32 -10 -37 3 -4 -1 -25 -10 -45 -8 -20 -12 -40 -9 -46 3 -5 0 -15 -6 -23 -10
-12 -9 -16 3 -21 14 -5 12 -10 -9 -32 -13 -15 -22 -33 -19 -40 2 -7 0 -24 -5
-38 -10 -24 -11 -24 -28 -7 -11 10 -32 42 -47 71 -33 60 -59 88 -54 57 2 -11
-5 -34 -14 -52 -9 -18 -17 -43 -17 -58 0 -38 -12 -31 -39 23 -12 26 -27 55
-32 64 -5 10 -9 39 -9 65 0 26 -4 43 -8 38 -18 -22 -30 -83 -25 -125 3 -25 6
-75 7 -112 1 -37 5 -70 9 -74 4 -4 7 -32 6 -63 -1 -55 -1 -55 -12 -24 -7 18
-28 44 -47 58 -34 25 -100 118 -100 140 1 5 8 -3 17 -20 23 -45 54 -75 76 -75
20 0 20 1 -1 23 -12 13 -20 26 -17 29 4 3 -3 21 -14 39 -23 38 -27 65 -10 71
7 2 4 16 -10 38 -11 19 -24 57 -27 83 -6 46 -20 56 -35 26 -29 -60 -50 -118
-46 -126 4 -6 -10 -41 -31 -79 -36 -67 -37 -68 -40 -36 -4 37 -17 42 -25 10
-3 -13 -9 -34 -13 -47 -6 -19 -4 -22 7 -16 8 4 4 -2 -9 -15 -13 -12 -21 -28
-18 -35 2 -7 -11 -28 -30 -46 -19 -18 -34 -38 -34 -43 0 -6 7 -2 16 9 8 11 24
19 34 17 14 -2 23 5 30 23 15 40 32 20 25 -29 -9 -62 -28 -125 -36 -120 -4 2
-12 -3 -19 -11 -8 -9 -30 -15 -57 -15 -46 0 -67 -20 -44 -43 6 -6 11 -21 11
-34 0 -26 10 -29 29 -10 11 10 11 8 2 -10 -6 -12 -11 -31 -11 -43 l0 -21 43
23 c27 15 42 30 42 43 0 13 6 19 17 17 11 -2 23 9 33 28 9 17 25 40 36 51 11
11 25 34 31 50 5 16 14 29 19 29 5 0 9 9 9 19 0 11 5 23 12 27 8 5 9 2 4 -12
-4 -10 -16 -50 -26 -88 -20 -70 -45 -110 -64 -103 -6 2 -19 -12 -28 -30 -16
-32 -16 -37 -1 -59 17 -26 39 -33 29 -9 -9 23 10 63 34 70 30 9 33 3 14 -33
-16 -34 -129 -148 -142 -145 -4 1 -21 -11 -37 -27 -19 -19 -35 -27 -40 -21
-18 17 -65 0 -80 -30 -8 -15 -15 -35 -15 -43 0 -20 40 -32 52 -15 7 11 11 11
15 2 8 -20 30 -15 51 12 11 14 26 25 34 25 8 0 23 9 33 20 10 11 24 20 31 20
7 0 22 19 33 43 11 23 20 34 20 25 2 -32 20 -19 46 32 14 28 28 50 30 50 3 0
5 -24 5 -54 0 -45 -5 -60 -26 -83 l-25 -28 16 33 c9 19 14 36 11 39 -3 3 -15
-17 -28 -43 -12 -27 -45 -72 -73 -99 -52 -53 -136 -115 -154 -115 -6 0 -11 -4
-11 -10 0 -15 37 -12 70 5 16 8 54 37 86 65 31 28 59 48 62 46 2 -3 -3 -17
-11 -33 -9 -15 -18 -40 -21 -55 -4 -16 -36 -57 -74 -95 -92 -93 -122 -115
-144 -110 -21 6 -31 -13 -41 -75 -6 -38 8 -62 23 -38 6 9 10 7 15 -9 9 -31 22
-26 44 17 21 42 93 122 108 122 6 0 18 21 28 48 22 58 33 72 55 72 12 0 22 12
30 35 12 36 27 45 36 21 6 -16 -56 -129 -115 -209 -41 -56 -50 -77 -32 -77 6
0 39 30 75 66 l66 67 0 -42 c0 -44 -21 -105 -45 -130 -39 -42 -65 -75 -65 -81
0 -4 -12 -11 -27 -15 -16 -3 -38 -16 -51 -28 -13 -12 -29 -22 -35 -23 -7 0
-17 -2 -24 -2 -13 -2 -53 -84 -53 -108 0 -20 10 -17 37 8 20 18 23 19 23 5 0
-21 23 -22 39 -3 7 8 28 22 47 31 23 11 42 31 59 66 14 27 32 49 40 49 8 0 19
9 25 20 22 41 32 22 27 -52 -3 -40 -8 -122 -10 -183 -3 -60 -9 -120 -13 -131
-5 -12 -36 -51 -70 -87 -58 -62 -60 -66 -47 -91 7 -14 23 -30 34 -37 28 -15
79 21 164 117 79 87 213 209 222 201 3 -4 12 -116 20 -249 11 -196 11 -274 2
-403 -8 -110 -9 -170 -2 -190 l10 -30 29 55 c56 108 86 210 114 390 10 63 26
144 34 180 9 36 16 79 16 97 0 60 16 42 30 -33 7 -43 17 -73 23 -71 10 3 27
89 56 282 5 33 19 92 32 131 25 80 21 118 -13 128 l-23 7 24 10 c13 5 25 8 27
6 6 -5 32 -171 39 -242 3 -38 17 -149 30 -245 34 -245 65 -623 65 -778 0 -51
18 -6 40 98 25 122 39 224 44 330 10 178 27 355 36 364 7 7 10 -8 10 -41 0
-61 10 -113 21 -113 12 0 25 59 38 165 6 50 14 106 17 125 3 19 9 96 14 170 8
134 15 203 26 290 3 25 9 76 12 114 4 38 12 71 18 73 7 2 9 -89 6 -312 -3
-228 -2 -319 7 -328 7 -7 11 -65 11 -170 0 -122 3 -158 13 -155 28 10 60 169
72 358 4 58 11 137 16 175 5 39 11 84 13 100 10 75 38 230 42 234 2 2 4 -12 4
-33 0 -22 4 -35 10 -31 13 8 29 70 45 182 8 52 19 101 23 109 19 33 43 -121
57 -361 25 -429 28 -465 37 -465 25 0 42 81 68 320 7 58 17 111 23 118 8 10 7
16 -2 22 -8 4 -10 13 -6 20 4 7 9 44 11 84 2 39 12 127 21 196 19 143 24 137
43 -64 6 -67 13 -136 16 -153 5 -35 23 -46 25 -15 3 56 31 -153 48 -365 11
-136 26 -291 32 -343 7 -52 15 -153 19 -225 7 -116 33 -351 46 -413 8 -37 21
-16 33 50 10 62 44 334 56 453 10 98 17 146 22 141 2 -2 8 -70 13 -151 8 -134
13 -166 24 -154 8 9 26 266 27 392 1 72 4 164 8 202 l6 70 8 -120 c39 -641 51
-754 75 -731 4 4 7 179 7 389 0 377 11 609 26 557 4 -14 7 -52 8 -86 1 -33 4
-63 7 -67 11 -10 34 5 34 22 0 10 8 40 18 67 l17 49 6 -100 c4 -55 10 -154 13
-220 8 -138 14 -172 26 -159 15 16 56 259 61 364 0 10 3 8 8 -5 12 -28 29
-227 37 -423 3 -89 10 -165 15 -167 18 -12 44 66 84 250 25 120 51 195 66 195
5 0 8 -116 8 -258 0 -349 11 -634 25 -629 13 4 23 42 76 287 23 107 53 228 67
269 25 74 32 110 54 271 6 47 13 87 15 89 2 2 25 -16 51 -41 27 -25 84 -78
128 -118 44 -40 98 -91 119 -113 l40 -40 28 34 c50 59 48 76 -13 131 -30 27
-91 78 -137 115 l-83 66 6 131 c3 72 8 182 11 244 l6 113 19 -36 c10 -19 19
-40 19 -46 0 -6 9 -22 19 -35 l20 -25 3 28 c3 25 5 22 24 -26 22 -58 52 -86
40 -37 -10 41 3 31 24 -19 11 -25 26 -45 34 -45 7 0 16 -10 19 -22 4 -13 13
-32 22 -43 16 -19 16 -19 12 8 -3 21 -1 27 9 23 45 -19 43 -13 -12 42 -132
130 -212 280 -197 371 4 27 9 38 11 26 2 -11 13 -39 23 -62 10 -23 19 -49 19
-57 0 -22 20 -20 21 2 0 9 5 4 10 -13 5 -16 18 -41 29 -55 17 -21 21 -23 29
-10 8 11 12 9 20 -13 6 -15 14 -39 17 -52 8 -31 24 -33 24 -3 0 20 1 21 20 3
11 -10 22 -16 25 -14 6 7 -60 107 -99 149 -18 19 -42 51 -53 70 -26 44 -75
181 -68 188 3 3 5 0 5 -6 0 -7 6 -12 13 -12 6 0 24 -20 39 -45 15 -25 34 -45
41 -45 8 0 20 -12 27 -27 7 -16 15 -23 17 -16 2 7 -1 21 -7 32 -15 28 5 27 24
-1 9 -12 16 -17 16 -10 0 9 9 7 29 -7 47 -34 59 -24 18 15 -20 20 -54 64 -74
98 -21 33 -52 83 -70 111 -42 63 -42 78 0 37 38 -37 62 -42 54 -12 -7 29 -2
25 23 -16 19 -29 27 -34 47 -30 16 5 25 2 29 -9 7 -16 24 -21 24 -6 0 5 -12
28 -27 50 -19 29 -29 37 -35 29 -6 -10 -8 -10 -8 0 0 9 -7 11 -19 7 -15 -4
-32 13 -84 84 -88 120 -90 125 -82 180 l7 46 16 -25 c9 -14 29 -37 44 -51 15
-14 30 -38 34 -52 3 -15 11 -27 16 -27 6 0 7 7 4 16 -11 29 11 5 24 -26 15
-35 45 -37 44 -3 0 13 4 19 12 16 8 -3 12 3 11 17 -1 12 -11 26 -22 30 -42 17
-185 187 -185 220 0 7 8 10 19 7 16 -4 18 -1 11 17 -27 71 -33 105 -20 121 8
10 23 15 37 12 24 -4 29 8 13 33 -8 12 -10 12 -10 -5 -1 -38 -30 15 -30 54 0
28 -3 33 -11 21 -8 -12 -9 -9 -4 10 4 14 8 39 10 55 1 17 0 20 -2 8 -11 -60
-39 8 -53 129 -6 45 -10 89 -10 97 0 49 -36 -84 -55 -203 -6 -42 -25 -57 -23
-20 1 16 -2 49 -6 74 -4 31 -3 39 3 25 16 -33 12 3 -7 77 -21 78 -28 88 -37
56 -4 -13 -17 -34 -29 -48 -12 -14 -29 -39 -39 -57 -17 -31 -17 -31 4 -26 19
5 19 1 -11 -57 -18 -35 -33 -75 -35 -89 -3 -24 0 -23 35 17 22 24 44 40 52 37
16 -6 16 -82 -1 -113 -16 -30 -14 -39 4 -16 13 18 15 16 17 -21 1 -22 2 -52 1
-67 -1 -16 3 -26 7 -23 22 14 18 -20 -10 -74 -31 -63 -39 -98 -18 -85 7 4 3
-8 -9 -27 -11 -19 -25 -33 -32 -31 -6 1 -11 -6 -11 -17 0 -10 -7 -24 -15 -31
-12 -10 -16 -9 -21 3 -3 9 -3 21 1 27 3 5 -3 23 -14 38 -11 15 -27 61 -37 101
-15 61 -20 72 -36 68 -19 -6 -23 12 -9 48 8 19 8 19 20 -3 6 -12 17 -22 23
-22 9 0 9 3 0 12 -7 7 -12 28 -12 47 l0 35 -25 -34 c-14 -19 -25 -28 -25 -20
0 7 7 21 16 31 9 10 22 43 29 74 11 47 11 55 -1 55 -17 0 -17 5 -3 33 10 21
10 21 -6 2 -8 -11 -21 -38 -27 -60 -9 -32 -13 -35 -16 -17 -6 39 -20 24 -33
-35 -7 -32 -19 -66 -27 -75 -7 -9 -11 -21 -8 -27 6 -9 -19 -71 -28 -71 -12 0
-57 96 -74 160 -21 72 -21 74 -2 50 51 -66 74 -89 82 -84 4 3 -1 18 -11 33
-12 17 -17 31 -11 37 11 11 2 54 -11 54 -5 0 -9 18 -9 41 0 36 2 40 20 34 25
-8 25 -4 -1 47 -28 54 -60 148 -54 158 2 3 1 20 -4 35 -7 27 0 36 83 121 128
128 277 267 339 313 28 22 67 53 86 69 33 28 34 31 21 61 -27 66 -80 78 -133
31 -36 -31 -57 -38 -57 -19 0 11 -47 91 -118 201 -18 28 -42 79 -53 113 -13
42 -31 73 -53 93 -19 17 -42 54 -56 91 -29 78 -66 111 -124 111 -44 0 -65 -11
-133 -70 -35 -31 -53 -38 -100 -43 l-56 -6 -39 43 c-21 24 -49 47 -63 50 -13
3 -31 19 -40 36 -21 40 -76 80 -111 80 -16 0 -48 -10 -72 -23z m111 -27 c15
-12 36 -35 48 -51 18 -26 20 -34 10 -56 -15 -33 -5 -43 15 -15 8 12 23 22 33
22 18 0 57 -35 63 -57 2 -6 -24 -29 -56 -51 -48 -33 -62 -38 -70 -28 -21 25
-64 28 -86 6 -31 -31 -20 -45 29 -42 l42 2 -17 -26 c-19 -28 -12 -28 -137 -6
-33 6 -58 19 -80 40 -29 28 -40 32 -85 32 -42 0 -51 3 -45 13 20 33 210 201
247 218 52 23 58 23 89 -1z m-642 -75 c19 -13 54 -36 79 -51 64 -38 110 -69
149 -101 28 -23 46 -28 102 -31 50 -3 72 -9 85 -23 16 -18 15 -20 -7 -38 -13
-11 -28 -20 -33 -21 -17 0 -46 -33 -46 -51 0 -10 11 -26 25 -35 14 -9 25 -23
25 -30 0 -18 -10 -18 -35 0 -11 7 -38 16 -60 20 -22 4 -48 15 -58 24 -9 8 -39
17 -65 18 -40 2 -52 -1 -77 -25 -39 -36 -90 -71 -104 -71 -6 0 -11 8 -11 17 0
13 -3 14 -12 5 -8 -8 -15 -9 -25 -1 -9 8 -13 8 -13 0 0 -6 -7 -11 -15 -11 -8
0 -32 -16 -54 -35 -21 -19 -45 -35 -52 -35 -8 0 -31 18 -52 40 -41 44 -72 60
-118 60 -34 0 -37 10 -9 35 12 10 46 67 76 125 35 67 78 131 114 171 l58 64
24 -22 c25 -23 55 -32 43 -13 -10 15 2 40 18 40 8 0 29 -11 48 -25z m1187 -15
c23 -14 43 -41 63 -85 l31 -65 -22 -27 c-20 -25 -20 -28 -5 -31 10 -2 22 2 26
10 8 10 12 9 24 -6 17 -23 20 -53 4 -58 -5 -2 -11 -18 -11 -36 -1 -36 49 -115
76 -120 14 -3 16 3 10 40 l-6 43 41 -60 c23 -33 41 -65 41 -71 0 -7 -25 -22
-56 -34 -41 -17 -60 -31 -68 -52 l-12 -28 -85 55 c-46 30 -95 58 -109 61 -14
3 -39 11 -56 19 -36 16 -44 12 -44 -22 0 -36 -31 -29 -75 18 -38 41 -71 59
-104 59 -32 0 -102 -56 -134 -106 l-31 -49 -6 49 c-7 57 -27 76 -82 76 -21 0
-38 4 -38 8 0 4 16 23 35 42 20 19 49 65 66 102 38 81 55 98 144 140 86 41
165 44 232 10 49 -25 53 -26 53 -11 0 14 -26 36 -59 50 l-24 10 29 31 c29 31
76 57 104 58 8 0 30 -9 48 -20z m-541 -156 c-3 -3 -12 -4 -19 -1 -8 3 -5 6 6
6 11 1 17 -2 13 -5z m-172 -90 c13 -8 31 -27 41 -42 16 -25 16 -26 0 -13 -15
13 -18 12 -23 -7 -3 -12 -14 -24 -25 -28 -26 -8 -42 -52 -27 -70 7 -8 9 -18 5
-22 -16 -16 -35 31 -29 73 4 29 1 45 -8 50 -9 6 -11 4 -6 -8 8 -21 -2 -21 -28
-1 -20 15 -20 15 -1 30 24 17 43 18 50 2 4 -9 5 -8 4 2 -1 16 11 50 18 50 3 0
15 -7 29 -16z m82 -11 c18 -22 22 -24 23 -10 0 11 8 17 25 17 25 0 25 0 10
-30 -9 -16 -19 -30 -23 -30 -4 0 -26 18 -47 40 -22 23 -33 40 -25 40 8 0 24
-12 37 -27z m-1097 -52 l45 -39 -44 -13 c-23 -7 -50 -23 -58 -36 -8 -13 -23
-23 -33 -23 -28 0 -71 -40 -90 -84 l-17 -41 -17 33 c-10 20 -24 32 -37 32 -27
0 -20 11 81 119 51 54 93 90 105 91 11 0 40 -18 65 -39z m1890 -29 c0 -12 -3
-12 -15 -2 -8 7 -15 22 -15 34 1 21 1 21 15 2 8 -11 15 -26 15 -34z m-785 -2
c3 -6 -1 -7 -9 -4 -18 7 -21 14 -7 14 6 0 13 -4 16 -10z m-335 -20 c22 -11 51
-20 64 -20 53 0 102 -52 68 -73 -19 -12 -35 2 -21 19 8 10 8 14 0 14 -6 0 -11
-4 -11 -10 0 -5 -18 -9 -41 -8 -22 1 -44 -3 -47 -8 -4 -5 -19 -15 -34 -23 -15
-8 -25 -17 -23 -21 2 -4 -7 -18 -20 -30 -14 -13 -25 -18 -25 -12 0 7 -11 12
-25 12 -18 0 -25 -5 -25 -20 0 -11 -4 -20 -9 -20 -21 0 -18 17 10 58 34 51 36
56 9 42 -11 -6 -18 -15 -15 -21 4 -5 2 -9 -3 -9 -6 0 -20 -18 -31 -41 -37 -71
-73 -109 -92 -99 -18 10 -29 4 -29 -17 0 -8 5 -11 10 -8 16 10 12 -11 -5 -25
-13 -11 -14 -10 -9 4 3 9 2 16 -4 16 -5 0 -13 -12 -18 -27 l-7 -28 -7 30 c-8
30 -8 30 -9 -7 0 -20 -6 -40 -11 -43 -6 -4 -7 -11 -4 -17 4 -7 2 -8 -4 -4 -7
4 -12 31 -12 62 0 30 -4 54 -9 54 -16 0 -23 -38 -10 -58 7 -11 9 -27 6 -36 -8
-22 -7 -32 4 -28 15 4 10 -25 -5 -31 -8 -3 -18 -22 -22 -41 -9 -50 -24 -45
-23 7 0 29 3 36 8 23 13 -34 20 5 10 57 -12 64 -23 156 -23 195 -1 17 -6 32
-12 32 -6 0 -24 17 -41 38 -44 54 -109 87 -145 73 -21 -8 -28 -17 -28 -36 0
-21 8 -29 38 -41 20 -9 52 -27 70 -41 26 -20 41 -24 68 -20 35 6 42 -1 22 -21
-8 -8 -8 -15 2 -27 7 -8 8 -15 3 -15 -14 0 -53 -39 -53 -53 0 -8 4 -7 11 3 8
12 9 9 4 -10 -4 -14 -8 -35 -9 -47 0 -11 -4 -19 -7 -17 -10 6 -19 -24 -13 -40
3 -8 1 -17 -5 -21 -15 -9 -14 25 4 74 14 40 14 41 -5 31 -13 -7 -20 -21 -20
-43 -1 -30 -2 -31 -15 -13 -8 11 -12 31 -9 50 2 17 1 25 -2 17 -4 -9 -9 -10
-13 -3 -4 6 -6 -35 -5 -91 0 -56 -1 -95 -4 -87 -3 8 -10 18 -16 22 -7 5 -7 21
2 54 13 50 10 63 -10 46 -10 -8 -14 1 -16 43 -1 30 2 56 8 60 5 3 10 11 10 18
0 7 -6 6 -15 -4 -16 -15 -24 -117 -11 -138 4 -6 -2 -24 -13 -40 -22 -30 -27
-46 -13 -37 5 3 8 -3 7 -12 -2 -26 -24 -62 -38 -62 -8 0 -9 3 -1 8 6 4 14 20
18 36 6 26 5 28 -9 16 -13 -11 -15 -10 -9 5 6 15 4 16 -14 6 -18 -10 -21 -9
-16 4 4 8 4 15 1 15 -3 0 -14 -25 -23 -55 -10 -30 -21 -56 -26 -56 -4 -1 -13
-2 -20 -3 -6 0 -13 -7 -16 -15 -3 -9 1 -11 17 -6 12 3 21 2 21 -4 0 -18 -22
-24 -36 -9 -19 19 -1 64 29 72 13 3 18 10 14 20 -4 9 -3 16 2 16 5 0 11 14 15
31 4 22 10 29 20 26 10 -4 19 8 30 40 20 58 20 63 0 35 -8 -12 -20 -19 -26
-16 -7 5 -8 2 -3 -6 5 -8 2 -17 -7 -24 -9 -7 -22 -27 -30 -47 -19 -45 -95
-132 -103 -118 -4 5 0 25 9 44 20 41 42 59 34 27 -9 -33 -1 -26 22 18 20 40
28 69 9 38 -5 -10 -15 -18 -21 -18 -6 0 -2 12 7 28 l18 27 -26 -24 c-15 -13
-35 -40 -45 -59 -10 -20 -25 -38 -33 -40 -11 -4 -12 -2 -1 9 6 7 12 20 12 28
0 8 10 25 22 38 l21 23 -22 0 c-12 0 -20 4 -16 10 3 5 12 7 20 3 8 -3 15 0 15
6 0 7 -7 14 -15 17 -8 4 -13 10 -10 15 3 4 12 6 20 2 11 -4 13 -1 9 11 -4 10
-18 16 -35 16 -29 0 -38 13 -19 25 6 4 17 1 25 -5 8 -7 15 -9 15 -5 0 4 6 2
14 -4 11 -9 16 -6 24 18 7 19 7 33 1 36 -5 4 -9 2 -9 -2 0 -7 -18 -8 -63 -4
-11 1 2 42 19 59 19 18 18 33 -2 25 -8 -3 -20 -16 -25 -29 -5 -13 -14 -23 -20
-22 -6 2 -14 -3 -17 -11 -3 -10 0 -12 12 -8 9 4 16 2 16 -3 0 -6 -4 -10 -9
-10 -5 0 -12 -9 -16 -19 -4 -13 -12 -18 -23 -15 -14 5 -14 4 -3 -4 12 -9 12
-13 2 -26 -8 -9 -10 -16 -5 -17 5 0 -1 -4 -14 -10 -17 -6 -22 -14 -17 -28 6
-20 -10 -65 -33 -93 -17 -21 -52 -8 -52 19 0 14 2 14 16 -3 15 -19 15 -19 10
1 -4 13 8 42 35 83 43 66 46 89 8 53 -27 -25 -35 -21 -17 8 11 18 11 23 -2 31
-22 14 -27 12 -34 -14 -7 -29 -45 -43 -43 -16 1 10 4 17 8 14 9 -5 33 65 25
73 -3 4 -6 1 -6 -5 0 -16 -60 -83 -69 -77 -4 2 -17 -9 -29 -25 -15 -20 -27
-27 -42 -23 -24 6 -25 4 19 66 19 26 41 47 49 47 7 0 11 4 8 9 -8 12 45 83 77
104 36 23 54 21 73 -8 27 -41 71 -25 88 32 10 32 34 53 59 53 11 0 35 16 53
35 24 27 39 35 65 35 l34 -1 -31 -28 c-18 -16 -35 -39 -39 -51 -4 -11 -18 -26
-32 -31 -14 -5 -23 -12 -19 -16 3 -3 -2 -15 -11 -25 -9 -10 -18 -26 -19 -36
-3 -30 -9 -47 -19 -54 -6 -5 -5 -11 4 -17 19 -12 51 4 51 24 0 8 7 15 16 15
10 0 14 5 10 15 -8 21 14 65 32 65 10 0 12 7 8 23 -6 26 17 67 38 67 7 0 24 8
37 19 43 33 65 34 123 6 29 -14 59 -37 66 -51 8 -13 24 -27 37 -30 20 -6 23
-13 25 -63 l1 -56 6 59 c8 78 30 88 33 14 1 -52 2 -52 5 -8 6 77 11 89 53 110
32 16 44 18 63 9 30 -14 80 7 122 51 35 37 86 40 145 10z m267 -17 c-9 -9 -20
-13 -24 -9 -4 4 -1 11 7 16 25 16 35 11 17 -7z m438 -98 c45 -36 75 -53 85
-49 27 11 80 15 80 5 0 -5 -5 -11 -12 -13 -13 -5 -2 -28 13 -28 6 0 8 4 5 9
-8 13 4 41 18 41 6 0 17 -14 24 -32 12 -33 5 -47 -26 -48 -17 0 -5 -47 18 -70
9 -9 27 -36 40 -58 24 -42 54 -66 44 -34 -4 10 4 6 20 -11 18 -20 26 -23 26
-13 0 9 7 16 15 16 8 0 15 5 15 10 0 6 -9 10 -20 10 -13 0 -20 7 -20 19 0 10
-13 35 -30 56 -16 21 -30 46 -30 56 0 11 -7 19 -15 19 -9 0 -15 9 -15 25 l0
26 27 -26 c32 -29 43 -31 43 -9 0 8 5 12 10 9 6 -4 8 -10 5 -15 -3 -5 -1 -11
4 -15 6 -3 8 -12 4 -20 -5 -14 11 -19 54 -18 7 1 11 -3 8 -7 -3 -4 2 -13 10
-20 8 -7 15 -26 15 -42 0 -16 6 -31 15 -34 13 -5 12 -11 -6 -36 -12 -16 -27
-27 -34 -24 -8 3 -21 -6 -30 -20 -10 -16 -22 -23 -33 -20 -9 3 -24 1 -32 -4
-12 -8 -12 -10 3 -16 9 -3 14 -10 11 -16 -3 -5 -11 -7 -18 -5 -13 5 -46 -26
-65 -60 -6 -13 -18 -23 -26 -23 -8 0 -15 -7 -15 -15 0 -8 -5 -15 -11 -15 -6 0
-9 9 -6 20 4 15 0 20 -14 20 -18 0 -18 -20 3 -46 8 -11 -9 -31 -41 -49 -9 -5
-12 -4 -7 3 4 6 9 28 11 48 4 26 2 34 -7 31 -7 -2 -12 -10 -10 -16 3 -14 -25
-15 -33 -1 -11 19 12 43 46 47 37 4 48 11 32 21 -6 4 -14 30 -18 57 -5 38 -4
47 5 35 9 -12 10 -11 5 8 -4 13 -1 29 5 37 13 16 -4 60 -20 50 -6 -3 -7 1 -4
9 3 8 -2 29 -12 47 l-16 33 -13 -30 c-13 -30 -10 -48 6 -39 5 4 9 1 9 -4 0 -6
-11 -11 -25 -11 -16 0 -25 -6 -25 -15 0 -8 -7 -15 -16 -15 -13 0 -14 -3 -5
-14 8 -10 9 -26 2 -56 -5 -23 -7 -49 -4 -56 3 -8 1 -14 -5 -14 -14 0 -22 38
-8 44 7 3 6 8 -4 15 -12 8 -12 13 -2 23 14 14 16 38 2 38 -5 0 -10 -8 -10 -17
0 -9 -3 -13 -6 -10 -7 7 -17 68 -17 110 0 15 -4 27 -10 27 -5 0 -7 -16 -5 -35
2 -19 1 -35 -3 -35 -11 0 -19 29 -13 45 4 8 1 15 -4 15 -6 0 -14 20 -18 45 -3
25 -10 45 -15 45 -5 0 -9 7 -9 16 0 8 5 12 10 9 6 -3 10 -2 10 4 0 28 -21 16
-31 -18 -7 -25 -19 -41 -32 -45 -15 -3 -18 -10 -14 -27 3 -12 -2 -39 -11 -60
-14 -33 -21 -39 -45 -37 -21 2 -25 5 -15 13 16 12 23 45 9 45 -5 0 -18 -11
-29 -25 -21 -26 -37 -33 -29 -12 13 35 18 61 9 48 -6 -8 -17 -11 -27 -7 -10 3
-15 9 -12 13 4 3 2 12 -4 19 -9 11 -5 16 17 24 15 6 32 17 38 25 6 7 20 15 31
17 11 2 30 22 43 48 34 65 75 105 112 109 3 1 37 -24 75 -54z m-1251 0 c57
-52 55 -73 -3 -27 -22 18 -45 32 -51 32 -20 0 -51 21 -45 31 13 21 53 7 99
-36z m786 25 c0 -5 -5 -10 -11 -10 -5 0 -7 5 -4 10 3 6 8 10 11 10 2 0 4 -4 4
-10z m170 -29 c0 -16 4 -41 10 -55 11 -31 2 -66 -11 -44 -7 10 -9 9 -9 -4 0
-22 -26 -24 -34 -3 -3 8 -12 12 -21 9 -8 -4 -15 -1 -15 6 0 7 -8 10 -19 7 -15
-3 -17 0 -13 16 4 16 2 19 -11 14 -19 -7 -20 -3 -11 40 5 25 11 30 36 31 17 0
33 3 36 6 3 3 18 6 34 6 24 0 28 -4 28 -29z m-240 -7 c0 -22 -16 -17 -17 6 -1
11 2 18 8 15 5 -4 9 -13 9 -21z m-94 -5 c13 -12 20 -28 17 -37 -4 -9 -2 -13 4
-9 5 4 21 -5 34 -19 13 -14 106 -80 207 -147 100 -66 182 -124 182 -129 0 -15
-124 -9 -147 7 -12 9 -42 22 -65 31 -24 8 -73 33 -109 54 -36 22 -73 40 -81
40 -23 0 -31 -32 -19 -75 11 -39 3 -44 -39 -20 -29 17 -113 20 -140 5 -10 -5
-33 -35 -50 -65 -17 -30 -36 -55 -41 -55 -14 0 -10 43 6 64 8 11 15 30 15 42
0 30 -47 84 -73 84 -19 0 -19 2 9 31 16 17 54 48 84 69 30 21 79 64 108 94 29
31 58 56 65 56 6 0 21 -9 33 -21z m821 5 c-3 -3 -12 -4 -19 -1 -8 3 -5 6 6 6
11 1 17 -2 13 -5z m366 -62 c-4 -20 -2 -23 6 -12 9 13 11 12 16 -1 7 -17 -34
-88 -50 -89 -6 0 -15 -8 -22 -19 -8 -13 -19 -17 -38 -13 -17 3 -23 7 -15 12
15 9 4 30 -13 26 -7 -1 -9 -1 -5 1 4 3 3 15 -2 29 -15 38 4 70 57 98 41 21 50
23 59 10 6 -8 9 -26 7 -42z m-328 39 c3 -5 1 -12 -5 -16 -5 -3 -10 1 -10 9 0
18 6 21 15 7z m-1044 -54 c-13 -13 -26 -3 -16 12 3 6 11 8 17 5 6 -4 6 -10 -1
-17z m-55 -43 c-4 -12 -10 -14 -17 -7 -5 5 -7 17 -3 27 4 12 10 14 17 7 5 -5
7 -17 3 -27z m437 1 c-3 -8 -10 -15 -15 -15 -7 0 -6 5 1 13 6 8 7 18 3 22 -4
5 -2 5 5 1 7 -4 10 -13 6 -21z m-1103 11 c0 -3 -4 -8 -10 -11 -5 -3 -10 -1
-10 4 0 6 5 11 10 11 6 0 10 -2 10 -4z m630 -36 c0 -5 -4 -10 -10 -10 -5 0
-10 5 -10 10 0 6 5 10 10 10 6 0 10 -4 10 -10z m515 -10 c3 -5 1 -10 -4 -10
-6 0 -11 5 -11 10 0 6 2 10 4 10 3 0 8 -4 11 -10z m55 -9 c0 -5 3 -18 7 -28 6
-17 6 -17 -10 -1 -19 18 -22 38 -7 38 6 0 10 -4 10 -9z m-620 -35 c0 -3 -4 -8
-10 -11 -5 -3 -10 -1 -10 4 0 6 5 11 10 11 6 0 10 -2 10 -4z m-190 -42 c0 -22
-16 -17 -17 6 -1 11 2 18 8 15 5 -4 9 -13 9 -21z m1605 16 c-3 -5 -11 -10 -16
-10 -6 0 -7 5 -4 10 3 6 11 10 16 10 6 0 7 -4 4 -10z m-2112 -32 c-6 -32 -23
-63 -23 -41 0 13 21 73 26 73 2 0 1 -15 -3 -32z m661 7 c-4 -8 -8 -15 -10 -15
-2 0 -4 7 -4 15 0 8 4 15 10 15 5 0 7 -7 4 -15z m916 -1 c0 -8 -4 -12 -10 -9
-5 3 -10 10 -10 16 0 5 5 9 10 9 6 0 10 -7 10 -16z m-1771 -23 c-8 -21 -8 -22
6 -11 18 15 20 0 2 -24 -12 -16 -16 -17 -35 -5 -36 22 -25 65 17 65 16 0 17
-4 10 -25z m1304 13 c18 -9 44 -27 59 -40 15 -12 44 -28 64 -34 21 -7 52 -21
69 -31 25 -15 50 -19 116 -18 80 2 144 -14 123 -30 -14 -10 -12 -51 3 -51 14
0 17 -12 6 -23 -10 -11 -33 13 -33 34 0 11 -7 19 -16 19 -15 0 -15 -2 0 -25 9
-14 14 -31 10 -37 -4 -6 -3 -9 2 -6 5 3 15 -1 23 -9 11 -12 10 -14 -4 -11 -10
2 -20 -3 -23 -11 -3 -8 0 -11 7 -7 13 9 14 -4 1 -24 -8 -13 -10 -13 -10 1 0 9
-7 19 -14 22 -10 4 -13 1 -10 -8 3 -7 1 -23 -6 -34 -9 -17 -13 -19 -24 -9 -7
7 -11 20 -9 28 5 19 -22 45 -37 35 -5 -3 -10 -14 -10 -22 0 -13 -5 -12 -22 7
-21 22 -28 37 -30 68 -1 7 -7 11 -15 8 -8 -3 -13 2 -13 14 0 11 -4 20 -10 20
-9 0 -14 -15 -11 -34 1 -4 -6 -14 -16 -22 -17 -12 -16 -13 5 -14 37 0 24 -34
-13 -35 l-30 0 -1 -80 0 -80 3 77 4 77 20 -20 c16 -16 19 -29 15 -67 -5 -45
-5 -45 6 -14 10 29 38 46 38 22 0 -5 -6 -10 -12 -10 -9 0 -9 -3 1 -9 11 -7 12
-13 4 -23 -7 -9 -4 -22 14 -47 12 -19 23 -28 23 -21 0 7 2 11 5 8 3 -3 3 -13
-1 -22 -6 -15 -7 -15 -20 1 -11 14 -13 15 -14 3 0 -8 5 -22 10 -30 9 -13 12
-12 25 4 20 27 19 17 -5 -38 -12 -25 -30 -50 -40 -56 -11 -6 -20 -17 -20 -25
0 -8 -4 -15 -10 -15 -5 0 -10 5 -10 10 0 19 -18 10 -24 -12 -5 -18 -8 -20 -15
-9 -13 20 -2 41 26 52 18 7 23 14 18 29 -5 14 -2 20 9 20 9 0 16 5 16 10 0 16
-12 12 -37 -12 -22 -20 -23 -21 -23 -2 0 14 -2 16 -9 5 -5 -7 -6 -23 -4 -35 3
-11 -5 -3 -17 18 -13 24 -20 50 -18 68 3 15 1 28 -3 28 -8 0 -18 52 -26 133
-5 62 -23 79 -23 23 0 -19 -5 -38 -10 -41 -6 -3 -7 -18 -4 -32 6 -22 4 -25
-10 -20 -18 7 -23 -17 -6 -28 7 -4 8 -35 4 -85 -5 -53 -3 -84 4 -93 6 -7 11
-33 12 -57 0 -25 1 -56 1 -69 1 -12 -4 -28 -11 -35 -8 -8 -9 -6 -4 9 7 20 7
20 -14 1 -12 -11 -22 -16 -22 -12 0 4 -11 -5 -24 -21 -21 -25 -22 -29 -8 -39
15 -11 15 -14 -3 -34 l-20 -22 -7 38 c-6 37 -4 42 48 93 30 30 54 58 54 64 0
12 -28 -9 -57 -43 -11 -14 -24 -22 -28 -18 -9 9 36 69 47 62 4 -3 8 5 8 18 -1
22 -2 21 -29 -11 -16 -19 -33 -31 -39 -27 -6 4 -20 2 -31 -3 -15 -9 -20 -7
-25 12 -3 12 -1 26 4 31 5 5 5 16 -1 28 -6 10 -7 29 -3 41 4 12 9 38 10 57 1
19 5 83 8 143 5 76 4 107 -4 107 -6 0 -8 5 -4 12 5 8 2 9 -9 5 -14 -5 -17 0
-17 23 0 16 5 32 10 35 12 8 13 45 1 45 -15 0 -33 -28 -26 -40 4 -6 -1 -20
-10 -30 -9 -10 -14 -23 -11 -28 3 -5 -4 -23 -16 -38 l-22 -29 27 24 c22 20 27
22 27 8 0 -9 -5 -17 -10 -17 -10 0 -29 -39 -34 -66 -3 -16 -66 -94 -77 -94
-16 0 -10 26 13 56 l22 29 -22 -19 c-33 -29 -26 -2 9 33 41 41 28 39 -29 -5
l-47 -36 -5 27 c-5 27 -5 26 -37 -19 -32 -45 -52 -58 -54 -33 0 6 -4 2 -9 -10
-5 -13 -15 -23 -21 -23 -8 0 -8 4 1 14 6 8 10 25 8 38 -2 17 2 24 18 26 21 3
38 37 28 54 -3 4 -16 8 -30 8 -17 0 -27 -8 -34 -25 -8 -22 -30 -36 -30 -19 0
18 44 64 61 64 13 0 18 4 13 13 -6 10 -4 10 7 0 18 -18 26 -16 32 8 3 12 3 18
0 15 -4 -3 -14 1 -23 9 -15 14 -22 8 -81 -63 -36 -42 -71 -77 -79 -77 -8 0
-15 -8 -15 -17 0 -10 -5 -18 -10 -19 -6 0 -16 -5 -23 -11 -7 -6 -15 -8 -19 -4
-3 3 -1 6 5 6 7 0 12 10 12 23 0 15 23 45 64 86 50 50 62 66 53 76 -7 7 -16
10 -22 7 -6 -3 -6 -1 -2 4 5 5 14 9 20 9 6 0 14 12 18 28 5 20 4 27 -7 27 -8
0 -14 -4 -14 -9 0 -5 -10 -11 -21 -14 -14 -4 -20 -11 -16 -20 4 -10 -4 -19
-23 -27 -16 -6 -36 -20 -45 -30 -10 -11 -24 -16 -33 -13 -11 5 -14 2 -10 -9 4
-10 -6 -27 -26 -47 -41 -40 -51 -39 -30 1 32 62 95 136 157 184 70 54 79 66
116 137 35 69 54 79 86 46 l26 -26 -17 -62 c-17 -60 -17 -64 -1 -76 25 -18 57
-7 76 28 50 91 75 103 162 76 79 -25 123 -22 127 7 2 14 -6 27 -22 38 -15 9
-26 23 -26 31 0 19 4 19 43 -1z m637 -3 c0 -5 -6 -12 -12 -15 -10 -5 -10 -7 0
-12 15 -7 17 -134 2 -134 -5 0 -9 6 -7 13 1 7 -7 11 -20 9 -24 -3 -31 12 -12
24 7 4 8 9 0 17 -12 12 5 51 20 42 16 -11 10 7 -8 20 -15 11 -15 15 -4 29 15
17 41 22 41 7z m-1378 -53 c-10 -22 -11 -21 -11 12 -1 26 2 31 11 22 8 -8 8
-17 0 -34z m103 -13 c1 -25 0 -45 -2 -45 -10 0 -22 55 -17 76 9 35 18 21 19
-31z m27 33 c-7 -7 -12 -8 -12 -2 0 6 3 14 7 17 3 4 9 5 12 2 2 -3 -1 -11 -7
-17z m1064 -13 c-15 -15 -16 -15 -16 3 0 10 3 22 7 26 4 3 11 2 16 -3 6 -6 4
-16 -7 -26z m-1711 5 c-3 -5 -11 -10 -16 -10 -6 0 -7 5 -4 10 3 6 11 10 16 10
6 0 7 -4 4 -10z m181 -53 c-1 -13 -9 -23 -21 -25 -28 -6 -45 -21 -45 -43 0
-23 18 -25 26 -4 8 21 22 10 20 -16 0 -12 14 -38 31 -57 18 -20 30 -38 28 -41
-3 -3 -18 8 -33 25 -15 16 -34 30 -42 32 -22 4 -65 55 -51 60 6 2 11 12 11 22
0 23 26 39 51 33 17 -5 18 -1 13 28 -4 23 -3 30 4 21 5 -8 9 -23 8 -35z m364
17 c0 -8 -4 -12 -10 -9 -5 3 -10 13 -10 21 0 8 5 12 10 9 6 -3 10 -13 10 -21z
m-555 6 c3 -5 1 -10 -5 -10 -6 0 -8 -5 -4 -12 4 -7 3 -8 -4 -4 -14 9 -16 36
-3 36 6 0 13 -4 16 -10z m116 -27 c-8 -15 -10 -15 -11 -2 0 17 10 32 18 25 2
-3 -1 -13 -7 -23z m496 -10 c2 -6 -3 -18 -12 -27 -9 -9 -16 -26 -15 -39 4 -38
0 -42 -16 -19 -14 20 -14 24 0 44 9 12 16 31 16 41 0 19 21 19 27 0z m-258
-49 c-17 -21 -21 -11 -8 22 10 23 13 25 16 11 3 -10 -1 -25 -8 -33z m106 26
c7 -12 -12 -40 -26 -40 -10 0 -12 34 -2 43 9 10 21 9 28 -3z m200 -9 c3 -5 1
-12 -5 -16 -5 -3 -10 -15 -10 -25 0 -11 -9 -24 -20 -30 -24 -13 -24 -11 -4 40
16 40 27 49 39 31z m35 -15 c0 -3 -4 -8 -10 -11 -5 -3 -10 -1 -10 4 0 6 5 11
10 11 6 0 10 -2 10 -4z m1070 -33 c0 -13 -3 -13 -15 -3 -8 7 -15 16 -15 21 0
5 7 6 15 3 8 -4 15 -13 15 -21z m100 12 c0 -8 -9 -15 -20 -15 -22 0 -27 15 -7
23 21 9 27 7 27 -8z m-1483 -30 c-4 -24 -2 -33 5 -29 7 5 8 2 3 -5 -6 -10 -10
-10 -22 1 -10 11 -11 21 -4 41 15 38 25 33 18 -8z m38 15 c3 -5 1 -10 -4 -10
-6 0 -11 5 -11 10 0 6 2 10 4 10 3 0 8 -4 11 -10z m45 0 c0 -5 -4 -10 -10 -10
-5 0 -10 5 -10 10 0 6 5 10 10 10 6 0 10 -4 10 -10z m1335 -10 c3 -5 -1 -10
-9 -10 -9 0 -16 5 -16 10 0 6 4 10 9 10 6 0 13 -4 16 -10z m-1295 -11 c0 -15
-18 -19 -23 -6 -3 8 1 14 9 14 8 0 14 -4 14 -8z m-60 -13 c0 -8 -4 -17 -9 -20
-10 -7 -23 19 -14 28 11 11 23 6 23 -8z m-185 -5 c3 -5 1 -12 -5 -16 -5 -3
-10 1 -10 9 0 18 6 21 15 7z m80 -22 c-5 -14 -3 -19 3 -15 6 4 8 -2 5 -15 -4
-13 -9 -17 -16 -10 -9 9 -2 61 9 61 3 0 2 -10 -1 -21z m175 11 c0 -5 -5 -10
-11 -10 -5 0 -7 5 -4 10 3 6 8 10 11 10 2 0 4 -4 4 -10z m-44 -26 c-4 -9 -9
-15 -11 -12 -3 3 -3 13 1 22 4 9 9 15 11 12 3 -3 3 -13 -1 -22z m98 11 c-4 -8
-10 -15 -15 -15 -5 0 -9 7 -9 15 0 8 7 15 15 15 9 0 12 -6 9 -15z m932 -42
c-11 -12 -27 13 -20 32 7 17 8 17 17 -3 6 -12 7 -25 3 -29z m-1179 -24 c-2
-24 -13 -25 -20 -1 -2 9 -8 26 -13 37 -7 20 -7 20 14 2 11 -11 20 -27 19 -38z
m100 45 c-3 -3 -12 -4 -19 -1 -8 3 -5 6 6 6 11 1 17 -2 13 -5z m63 -19 c-7 -9
-15 -13 -18 -10 -3 2 1 11 8 20 7 9 15 13 18 10 3 -2 -1 -11 -8 -20z m241 -28
c-13 -12 -20 -15 -16 -7 14 26 28 41 33 35 3 -3 -5 -16 -17 -28z m1009 23 c0
-5 -2 -10 -4 -10 -3 0 -8 5 -11 10 -3 6 -1 10 4 10 6 0 11 -4 11 -10z m151
-33 c-13 -13 -15 1 -4 30 7 17 8 17 11 -1 2 -10 -1 -23 -7 -29z m-1444 11 c-3
-8 -6 -5 -6 6 -1 11 2 17 5 13 3 -3 4 -12 1 -19z m1025 -10 c-8 -8 -9 -4 -5
13 4 13 8 18 11 10 2 -7 -1 -18 -6 -23z m118 -3 c14 -19 14 -19 -2 -6 -10 7
-18 18 -18 24 0 6 1 8 3 6 1 -2 9 -13 17 -24z m-920 11 c0 -3 -4 -8 -10 -11
-5 -3 -10 -1 -10 4 0 6 5 11 10 11 6 0 10 -2 10 -4z m-275 -26 c10 -11 13 -20
7 -20 -6 0 -16 9 -22 20 -6 11 -9 20 -7 20 2 0 12 -9 22 -20z m66 -13 c-8 -8
-11 -7 -11 4 0 20 13 34 18 19 3 -7 -1 -17 -7 -23z m69 13 c-6 -11 -13 -20
-16 -20 -2 0 0 9 6 20 6 11 13 20 16 20 2 0 0 -9 -6 -20z m1027 -2 c-3 -8 -6
-5 -6 6 -1 11 2 17 5 13 3 -3 4 -12 1 -19z m103 12 c0 -5 -5 -10 -11 -10 -5 0
-7 5 -4 10 3 6 8 10 11 10 2 0 4 -4 4 -10z m-1272 -49 c3 -9 10 -19 16 -23 7
-5 6 -8 -3 -8 -15 0 -61 38 -61 51 0 14 42 -4 48 -20z m1239 -3 c-3 -8 -6 -5
-6 6 -1 11 2 17 5 13 3 -3 4 -12 1 -19z m69 -4 c-5 -14 -9 -14 -22 -3 -14 12
-14 14 3 20 23 8 27 4 19 -17z m61 -1 c1 -19 -1 -22 -8 -12 -11 17 -12 39 -1
39 4 0 8 -12 9 -27z m44 -6 c-10 -9 -11 -8 -5 6 3 10 9 15 12 12 3 -3 0 -11
-7 -18z m247 -9 c-11 -35 -35 -90 -61 -146 -19 -39 -13 -69 9 -51 12 10 13 8
8 -7 -4 -10 -16 -32 -27 -47 -29 -42 -10 -47 25 -7 l30 35 -21 -35 c-12 -19
-33 -56 -47 -82 -26 -52 -37 -58 -53 -30 -10 16 -10 15 -11 -3 l-1 -20 -9 20
c-5 11 -9 16 -10 10 -3 -26 -30 62 -31 99 0 38 -1 39 -11 16 -6 -14 -10 -61
-10 -105 0 -44 -5 -85 -10 -92 -5 -7 -7 -21 -3 -32 4 -12 -3 -29 -19 -48 -14
-15 -26 -23 -26 -17 0 6 7 17 15 24 8 7 15 17 15 22 0 6 -7 4 -16 -3 -14 -11
-20 -10 -40 14 -25 30 -39 73 -50 155 -6 49 -5 55 22 84 16 16 62 53 103 81
41 27 109 83 150 123 42 40 79 74 83 74 3 0 2 -15 -4 -32z m-1551 -3 c-4 -8
-11 -15 -17 -15 -14 0 -13 27 3 33 16 6 21 1 14 -18z m130 -3 c-10 -10 -17
-24 -17 -30 0 -7 -4 -12 -10 -12 -5 0 -10 2 -10 5 0 13 33 55 43 55 5 0 3 -8
-6 -18z m920 -4 c-3 -8 -6 -5 -6 6 -1 11 2 17 5 13 3 -3 4 -12 1 -19z m54 8
c5 3 9 -2 9 -10 0 -8 -4 -18 -10 -21 -5 -3 -10 -2 -10 4 0 5 -2 15 -3 23 -2 7
-2 10 0 5 3 -4 9 -5 14 -1z m-1021 -3 c0 -10 -32 -43 -42 -43 -5 0 -1 11 9 25
17 23 33 32 33 18z m299 -71 c-18 -20 -40 -42 -49 -49 -15 -11 -16 -9 -12 12
2 14 10 25 18 25 7 0 26 21 41 48 24 41 28 44 31 24 2 -15 -8 -36 -29 -60z
m795 69 c3 -4 -1 -16 -8 -26 -12 -17 -13 -16 -18 8 -5 26 13 39 26 18z m-349
-56 c-3 -26 -9 -45 -12 -42 -2 3 -1 26 2 52 4 25 10 44 12 41 3 -3 2 -26 -2
-51z m408 41 c4 -10 1 -13 -9 -9 -7 3 -14 9 -14 14 0 14 17 10 23 -5z m50 -1
c-3 -9 -8 -14 -10 -11 -3 3 -2 9 2 15 9 16 15 13 8 -4z m-1269 -19 c-6 -16
-24 -23 -24 -8 0 10 22 33 27 28 2 -2 1 -11 -3 -20z m-44 -8 c0 -11 -5 -18
-12 -16 -19 7 -21 35 -3 35 8 0 15 -9 15 -19z m490 13 c0 -5 -9 -19 -20 -32
-21 -26 -27 -10 -8 21 13 21 28 27 28 11z m105 -32 c-30 -24 -38 -24 -25 1 8
14 8 20 0 20 -6 0 -9 4 -5 10 4 6 15 5 30 -2 l24 -11 -24 -18z m-492 16 c-3
-9 -8 -14 -10 -11 -3 3 -2 9 2 15 9 16 15 13 8 -4z m192 6 c3 -5 1 -12 -5 -16
-5 -3 -10 1 -10 9 0 18 6 21 15 7z m932 -36 c-2 -19 -8 -40 -15 -47 -7 -7 -12
-9 -12 -4 0 4 -22 -19 -49 -51 -65 -77 -159 -168 -166 -161 -3 3 8 17 25 31
16 14 30 33 30 41 0 8 17 32 38 53 21 21 49 55 61 75 20 33 25 36 47 28 18 -7
24 -7 23 3 -2 13 11 67 17 67 1 0 2 -16 1 -35z m-691 -29 c-9 -18 -22 -39 -31
-46 -22 -18 -20 17 3 43 12 15 13 18 2 12 -8 -4 -4 4 10 19 30 33 38 18 16
-28z m-548 -90 c74 -58 83 -77 57 -112 -16 -22 -19 -34 -7 -34 5 0 16 16 26
36 21 46 31 38 16 -14 -6 -23 -9 -44 -8 -49 3 -15 -30 -78 -56 -105 -30 -31
-35 -50 -7 -24 13 12 20 13 23 6 2 -7 16 10 31 37 28 50 32 45 18 -22 -5 -22
-6 -71 -1 -110 l7 -70 3 85 c2 93 10 131 25 131 6 0 14 -14 19 -31 8 -26 6
-34 -7 -41 -9 -5 -14 -16 -11 -24 4 -8 2 -15 -3 -15 -10 0 -10 -86 0 -96 4 -4
7 0 7 9 0 16 67 63 76 54 9 -8 -15 -49 -49 -84 -36 -39 -47 -41 -48 -10 0 21
-1 21 -9 2 -7 -18 -12 -15 -58 32 -81 83 -85 91 -87 206 l-3 102 20 -62 c12
-40 24 -63 33 -63 21 0 19 4 -25 95 -21 44 -39 71 -39 60 -1 -11 -12 -33 -26
-48 -29 -30 -31 -31 -40 -17 -3 5 6 15 21 23 l27 14 -42 7 c-40 6 -53 19 -28
29 9 4 8 8 -3 16 -12 9 -12 11 3 17 23 8 21 26 -4 42 -16 10 -18 16 -9 27 8 9
8 15 0 20 -8 5 -9 79 -1 115 1 2 20 -14 44 -36 23 -22 75 -66 115 -98z m81
111 c0 -9 -2 -8 -6 1 -2 6 -10 9 -15 6 -7 -4 -8 -2 -4 5 9 13 26 5 25 -12z
m56 2 c-2 -32 -45 -54 -45 -23 0 8 4 13 9 9 5 -3 12 4 16 15 8 26 22 26 20 -1z
m315 2 c0 -5 -3 -17 -6 -26 -5 -13 -8 -14 -15 -3 -6 9 -9 6 -9 -10 0 -13 -4
-21 -8 -18 -9 5 -9 3 -14 -44 -2 -14 -16 -37 -33 -52 -29 -26 -30 -27 -33 -7
-6 37 7 66 54 118 44 49 64 62 64 42z m182 -23 c-9 -9 -12 -7 -12 12 0 19 3
21 12 12 9 -9 9 -15 0 -24z m532 20 c-3 -4 -9 -8 -15 -8 -5 0 -9 4 -9 8 0 5 7
9 15 9 8 0 12 -4 9 -9z m-894 -17 c-15 -29 -30 -35 -30 -12 0 11 8 22 18 24 9
3 18 5 20 6 1 0 -2 -8 -8 -18z m67 -11 c-5 -37 -11 -44 -25 -27 -9 10 -8 19 4
35 20 29 24 28 21 -8z m273 20 c0 -5 -5 -10 -11 -10 -5 0 -7 5 -4 10 3 6 8 10
11 10 2 0 4 -4 4 -10z m-122 -17 c-2 -9 -8 -18 -15 -20 -7 -3 -9 3 -6 16 6 25
26 28 21 4z m1547 -27 c-4 -20 -13 -36 -20 -36 -11 0 -10 8 2 40 19 48 27 46
18 -4z m-1748 2 c-3 -8 -6 -5 -6 6 -1 11 2 17 5 13 3 -3 4 -12 1 -19z m319 -9
c-3 -28 -26 -66 -26 -43 0 6 6 16 13 23 10 10 8 14 -8 23 -19 11 -19 11 0 19
11 4 21 8 22 8 2 1 1 -13 -1 -30z m1054 1 c6 -11 8 -20 6 -20 -3 0 -10 9 -16
20 -6 11 -8 20 -6 20 3 0 10 -9 16 -20z m-1430 -1 c0 -18 -13 -38 -21 -33 -15
9 -10 41 6 41 8 0 15 -4 15 -8z m856 -9 c0 -11 -6 -20 -14 -20 -9 0 -11 -7 -7
-20 5 -16 3 -19 -11 -13 -13 5 -16 3 -12 -9 8 -19 -28 -81 -42 -73 -12 8 5 48
48 108 18 26 35 47 36 47 1 0 2 -9 2 -20z m544 -13 c0 -5 -4 -5 -10 -2 -5 3
-10 14 -10 23 0 15 2 15 10 2 5 -8 10 -19 10 -23z m433 -82 c4 -67 3 -102 -3
-90 -8 19 -14 213 -6 204 2 -2 6 -53 9 -114z m-1597 57 c-32 -32 -35 -12 -4
24 13 15 24 20 27 13 2 -6 -8 -23 -23 -37z m171 11 c-3 -10 -5 -4 -5 12 0 17
2 24 5 18 2 -7 2 -21 0 -30z m-203 12 c-4 -8 -14 -15 -23 -15 -14 1 -13 3 3
15 25 19 27 19 20 0z m429 -10 c-7 -21 -13 -19 -13 6 0 11 4 18 10 14 5 -3 7
-12 3 -20z m-550 9 c7 -8 -3 -34 -13 -34 -5 0 -8 9 -7 20 1 20 8 25 20 14z
m-60 -36 c-4 -7 -8 -19 -9 -26 -4 -21 -14 -28 -14 -9 0 23 11 47 22 47 5 0 6
-6 1 -12z m271 -12 c-3 -9 -10 -16 -15 -16 -5 0 -4 9 3 20 14 22 21 20 12 -4z
m46 8 c0 -8 -5 -12 -10 -9 -6 4 -8 11 -5 16 9 14 15 11 15 -7z m31 -11 c-8
-15 -10 -15 -11 -2 0 17 10 32 18 25 2 -3 -1 -13 -7 -23z m1365 -23 c-14 -22
-29 -40 -32 -40 -4 0 0 10 8 23 8 12 20 33 27 45 7 13 15 21 18 18 3 -3 -6
-24 -21 -46z m-1553 -5 c-25 -19 -30 1 -7 27 17 18 19 18 22 3 2 -9 -5 -23
-15 -30z m464 23 c-3 -8 -6 -5 -6 6 -1 11 2 17 5 13 3 -3 4 -12 1 -19z m736 8
c4 -10 1 -13 -8 -9 -8 3 -12 9 -9 14 7 12 11 11 17 -5z m-1412 -13 c13 -16 12
-17 -3 -4 -17 13 -22 21 -14 21 2 0 10 -8 17 -17z m79 -3 c0 -11 -7 -20 -15
-20 -13 0 -14 4 -5 20 6 11 13 20 15 20 3 0 5 -9 5 -20z m200 14 c0 -15 -22
-44 -31 -39 -11 7 7 45 21 45 6 0 10 -3 10 -6z m-176 -19 c-4 -8 -8 -15 -10
-15 -2 0 -4 7 -4 15 0 8 4 15 10 15 5 0 7 -7 4 -15z m246 -16 c0 -15 -18 -19
-23 -6 -3 8 1 14 9 14 8 0 14 -4 14 -8z m1036 -15 c-4 -9 -9 -15 -11 -12 -3 3
-3 13 1 22 4 9 9 15 11 12 3 -3 3 -13 -1 -22z m-1066 -20 c0 -22 -2 -24 -14
-14 -8 6 -12 18 -9 26 9 23 23 16 23 -12z m73 11 c4 -8 2 -17 -3 -20 -6 -4
-10 3 -10 14 0 25 6 27 13 6z m-253 -25 c1 21 30 -18 30 -39 -1 -14 -3 -13
-14 2 -7 9 -18 17 -25 17 -6 0 -11 10 -10 23 0 21 1 21 9 2 6 -14 9 -15 10 -5z
m80 8 c0 -9 4 -8 10 2 8 12 10 10 9 -10 -1 -14 -4 -35 -8 -48 -6 -23 -6 -23
-29 8 -13 17 -21 38 -18 46 7 17 36 19 36 2z m500 8 c0 -3 -4 -8 -10 -11 -5
-3 -10 -1 -10 4 0 6 5 11 10 11 6 0 10 -2 10 -4z m-725 -121 c-3 -22 -9 -43
-14 -48 -13 -13 -53 41 -62 85 -15 80 -13 83 37 41 43 -36 45 -40 39 -78z
m1005 107 c0 -4 -21 -43 -46 -87 -53 -93 -64 -152 -26 -148 33 4 28 -19 -23
-114 -25 -46 -42 -83 -39 -83 4 0 1 -7 -6 -15 -6 -8 -9 -23 -6 -33 4 -11 0
-24 -9 -32 -13 -11 -18 -6 -34 31 -28 65 -34 89 -22 89 15 0 14 42 -2 65 -7
11 -19 35 -27 53 l-13 34 124 124 c68 68 125 124 126 124 2 0 3 -3 3 -8z
m-722 -49 c-16 -15 -18 -15 -24 0 -3 9 -3 25 0 34 6 15 8 15 24 0 15 -16 15
-18 0 -34z m82 16 c0 -21 -16 -26 -23 -6 -6 17 3 38 14 31 5 -3 9 -14 9 -25z
m-889 -47 c11 -15 25 -28 30 -28 5 -1 12 -2 16 -3 3 0 -2 -10 -12 -21 -26 -29
-11 -36 24 -11 l30 22 11 -21 c8 -15 8 -31 -1 -60 -13 -44 -38 -56 -56 -25 -8
12 -12 15 -13 6 0 -22 -40 18 -40 41 0 10 -7 18 -16 18 -12 0 -14 3 -6 13 11
13 9 44 -6 92 -8 25 -11 27 -17 12 -4 -11 -3 -23 4 -30 19 -19 12 -58 -21
-108 -34 -52 -42 -53 -51 -3 -5 24 -1 36 13 49 11 10 20 24 20 32 0 18 30 76
44 85 6 4 14 -2 18 -13 5 -12 17 -33 29 -47z m949 47 c0 -6 -4 -8 -9 -5 -5 4
-11 1 -13 -6 -3 -7 -7 -5 -11 6 -4 10 -3 15 3 11 6 -3 10 -1 10 5 0 6 5 8 10
5 6 -3 10 -11 10 -16z m40 -20 c0 -11 -4 -17 -10 -14 -5 3 -10 13 -10 21 0 8
5 14 10 14 6 0 10 -9 10 -21z m48 3 c2 -7 -3 -12 -12 -12 -9 0 -16 7 -16 16 0
17 22 14 28 -4z m1123 -15 c-12 -30 -31 -44 -31 -23 0 14 31 56 38 51 1 -1 -2
-14 -7 -28z m-271 -42 c-6 -19 -17 -35 -24 -35 -6 0 -17 -15 -24 -32 -22 -60
-49 -97 -69 -92 -31 9 -55 75 -47 133 l7 51 27 -20 c35 -25 46 -25 53 0 3 11
14 20 25 20 10 0 27 9 38 21 16 18 19 19 22 5 2 -9 -2 -32 -8 -51z m-2014 14
c12 -14 11 -18 -5 -33 -16 -14 -18 -23 -10 -49 5 -19 5 -46 -2 -70 -8 -31 -8
-42 3 -48 11 -8 11 -11 -1 -18 -10 -6 -10 -10 -1 -16 12 -7 46 26 71 69 9 14
8 17 -2 11 -9 -6 -11 -3 -6 9 4 10 7 23 7 29 1 7 7 1 15 -13 14 -25 14 -24 8
10 l-6 35 47 -49 c50 -54 52 -58 33 -74 -21 -17 -41 2 -33 32 4 15 2 26 -4 26
-5 0 -10 -5 -10 -11 0 -5 -4 -8 -9 -4 -6 3 -11 -15 -13 -42 -3 -44 -5 -48 -36
-57 -19 -5 -41 -20 -49 -32 -12 -20 -18 -21 -36 -12 -12 6 -28 14 -36 18 -19
8 -46 104 -36 127 6 15 9 12 17 -14 5 -18 13 -33 18 -33 6 0 10 -7 10 -16 0
-8 4 -13 9 -10 5 4 9 43 9 89 -1 144 1 174 12 157 8 -12 10 -10 11 10 0 15 3
19 6 10 3 -8 12 -22 19 -31z m974 -9 c0 -20 -2 -22 -10 -10 -9 13 -10 13 -10
0 0 -13 -1 -13 -10 0 -5 8 -9 24 -9 35 l0 20 9 -20 c8 -18 9 -18 9 5 1 20 3
22 11 10 5 -8 10 -26 10 -40z m411 26 c-7 -8 -10 -20 -6 -26 3 -5 1 -10 -4
-10 -6 0 -11 5 -11 11 0 16 21 51 27 45 3 -3 0 -12 -6 -20z m-327 -17 c-10
-16 -24 -9 -24 12 0 18 2 19 15 9 8 -7 12 -16 9 -21z m-49 -9 c3 -5 1 -10 -4
-10 -6 0 -11 5 -11 10 0 6 2 10 4 10 3 0 8 -4 11 -10z m160 -49 c-1 -18 -8
-38 -15 -44 -10 -10 -12 -7 -7 12 3 13 1 34 -4 48 -11 30 -2 48 16 30 7 -8 12
-28 10 -46z m1365 0 l-12 -26 -9 23 c-6 15 -5 31 2 44 11 20 12 20 21 4 7 -13
6 -26 -2 -45z m-1206 43 c18 -7 22 -39 6 -49 -6 -3 -7 1 -4 9 4 11 0 16 -10
16 -9 0 -16 7 -16 15 0 17 2 18 24 9z m1322 -37 c-2 -18 -4 -36 -5 -42 -1 -5
-6 -3 -11 5 -11 17 -13 63 -4 73 14 13 24 -5 20 -36z m-2921 -47 c-17 -52 -23
-58 -42 -39 -7 7 -1 26 21 63 35 61 45 49 21 -24z m1355 70 c0 -5 -4 -10 -10
-10 -5 0 -10 5 -10 10 0 6 5 10 10 10 6 0 10 -4 10 -10z m-226 -108 c54 -45
126 -107 159 -138 l61 -55 -78 -71 c-83 -76 -100 -83 -188 -75 -34 3 -88 59
-88 92 0 14 2 25 4 25 2 0 20 -16 39 -35 31 -31 77 -50 62 -25 -3 6 -12 10
-20 10 -17 0 -60 53 -46 58 6 2 37 -9 70 -23 32 -15 67 -25 77 -23 27 5 28 27
2 37 -85 33 -112 48 -138 78 -16 18 -33 45 -36 58 -3 14 -12 25 -20 25 -19 0
-18 24 1 40 13 11 19 9 38 -7 27 -25 67 -39 67 -24 0 6 -15 28 -34 48 -31 35
-66 93 -66 109 0 8 6 3 134 -104z m447 50 c-11 -21 -51 -37 -51 -20 0 5 9 12
20 15 11 3 20 12 20 20 0 9 -6 13 -14 10 -19 -8 -28 3 -15 19 9 11 15 10 31
-5 16 -15 18 -23 9 -39z m-985 13 c-7 -36 6 -48 19 -17 7 15 9 14 15 -8 7 -22
8 -20 9 13 1 26 5 37 14 35 16 -6 22 -115 7 -133 -14 -16 -40 -9 -40 11 0 8
-5 14 -10 14 -16 0 -49 79 -43 101 3 10 12 19 20 19 12 0 14 -8 9 -35z m800
-1 c-7 -19 -26 -9 -26 14 0 15 2 15 10 2 8 -12 10 -12 11 5 0 11 3 14 6 7 3
-7 2 -20 -1 -28z m-50 -14 c0 -22 -22 -35 -32 -18 -5 8 19 38 31 38 0 0 1 -9
1 -20z m1450 -42 c-14 -24 -26 -39 -26 -34 0 13 43 86 48 82 2 -3 -8 -24 -22
-48z m-2679 10 c26 -25 33 -40 33 -70 0 -21 -4 -38 -8 -38 -13 0 -39 33 -40
50 0 8 -7 32 -16 53 -20 45 -12 47 31 5z m2274 -38 c7 0 9 -11 6 -30 -6 -28
-4 -30 23 -30 25 0 30 -5 35 -34 4 -19 4 -44 0 -56 l-7 -22 -23 22 c-37 35
-73 112 -80 170 l-6 55 21 -37 c11 -21 25 -38 31 -38z m-991 17 c0 -5 -4 -5
-10 -2 -5 3 -10 14 -10 23 0 15 2 15 10 2 5 -8 10 -19 10 -23z m606 -17 c15 0
23 -4 19 -10 -4 -6 -10 -8 -15 -5 -4 2 -13 -9 -20 -25 -7 -17 -16 -30 -20 -30
-12 0 -30 58 -30 94 l1 31 20 -27 c13 -18 30 -28 45 -28z m-670 15 c-14 -14
-16 -14 -16 -2 0 9 6 17 13 20 19 7 21 -1 3 -18z m171 -5 c1 -10 -6 -24 -15
-31 -14 -11 -15 -11 -4 1 16 19 15 30 -3 30 -15 0 -20 12 -9 23 11 10 30 -3
31 -23z m621 -10 c9 -16 23 -30 30 -30 15 0 16 -12 0 -28 -7 -7 -8 -12 -3 -12
5 0 24 14 42 32 18 18 33 28 33 22 0 -13 -95 -114 -107 -114 -5 0 -15 19 -22
42 -9 30 -15 37 -21 27 -5 -8 -7 -23 -4 -35 4 -14 -1 -26 -13 -35 -11 -8 -22
-22 -26 -33 -6 -15 -10 -16 -22 -6 -19 16 -19 41 0 66 8 10 14 24 15 29 0 6
-8 -2 -18 -17 -14 -22 -21 -25 -30 -16 -14 14 -16 32 -3 23 6 -3 18 6 28 20
49 69 50 70 67 56 14 -12 16 -10 16 13 0 35 17 33 38 -4z m-2167 10 c13 0 1
-40 -17 -59 -11 -12 -15 -10 -25 12 -14 32 -5 61 17 53 9 -3 20 -6 25 -6z
m2529 -10 c-6 -11 -15 -20 -21 -20 -6 0 -6 7 1 20 6 11 15 20 21 20 6 0 6 -7
-1 -20z m-1045 0 c-3 -5 -11 -10 -16 -10 -6 0 -7 5 -4 10 3 6 11 10 16 10 6 0
7 -4 4 -10z m864 -32 c1 -71 -27 -144 -70 -183 -22 -19 -43 -35 -48 -35 -15 0
-41 42 -41 65 0 16 2 17 9 6 12 -19 34 -2 51 40 11 25 17 29 37 25 23 -6 34 9
12 16 -7 2 -1 23 17 56 16 28 30 52 30 52 1 0 2 -19 3 -42z m-1699 2 c6 -11 8
-20 6 -20 -3 0 -10 9 -16 20 -6 11 -8 20 -6 20 3 0 10 -9 16 -20z m177 -93
c18 -17 31 -33 28 -36 -9 -8 -125 112 -125 128 0 9 14 -1 32 -23 18 -22 47
-53 65 -69z m623 88 c0 -17 -2 -18 -24 -9 -23 9 -20 24 4 24 11 0 20 -7 20
-15z m843 0 c-3 -9 -8 -14 -10 -11 -3 3 -2 9 2 15 9 16 15 13 8 -4z m-623 -66
c-28 -58 -18 -76 16 -34 l25 30 -7 -55 c-4 -30 -13 -67 -21 -83 -16 -33 -29
-28 -87 31 l-39 41 64 70 c35 39 66 66 68 60 2 -6 -7 -33 -19 -60z m-185 42
c-3 -6 -14 -11 -23 -11 -13 0 -13 2 4 14 21 15 30 14 19 -3z m1385 15 c0 -3
-4 -8 -10 -11 -5 -3 -10 -1 -10 4 0 6 5 11 10 11 6 0 10 -2 10 -4z m90 -17 c0
-6 -4 -7 -10 -4 -5 3 -10 11 -10 16 0 6 5 7 10 4 6 -3 10 -11 10 -16z m-2810
-32 c14 -32 17 -51 11 -73 -10 -33 -16 -22 -25 43 -3 23 -9 48 -12 57 -14 36
9 13 26 -27z m564 27 c15 -39 -5 -59 -31 -33 -9 9 -9 16 0 30 14 23 23 24 31
3z m-599 -36 c4 -17 3 -28 -3 -28 -12 0 -22 24 -22 53 0 27 16 11 25 -25z
m409 0 c-15 -28 -16 -29 -29 -12 -18 25 -2 54 25 47 18 -5 18 -7 4 -35z m2086
16 c0 -8 -4 -12 -10 -9 -5 3 -10 13 -10 21 0 8 5 12 10 9 6 -3 10 -13 10 -21z
m242 -6 c-16 -16 -15 -28 2 -28 24 0 24 -32 -1 -82 -13 -27 -26 -48 -29 -48
-2 0 0 9 6 21 21 39 2 31 -26 -10 -21 -32 -30 -39 -40 -30 -32 26 -26 48 32
119 31 38 59 70 62 70 3 0 1 -5 -6 -12z m104 -53 c6 -35 5 -38 -8 -27 -17 14
-31 69 -22 84 9 14 20 -8 30 -57z m-2157 10 c51 -44 52 -45 24 -45 -16 0 -40
8 -53 17 -14 10 -27 15 -30 13 -3 -3 -6 10 -8 28 -2 17 1 32 5 32 5 0 33 -20
62 -45z m1211 0 c0 -5 -5 -3 -10 5 -5 8 -10 20 -10 25 0 6 5 3 10 -5 5 -8 10
-19 10 -25z m644 19 c16 -16 20 -28 17 -52 -1 -8 4 -20 11 -29 10 -13 9 -18
-7 -29 -26 -19 -27 -18 -47 17 -22 38 -22 43 -2 63 8 9 11 16 5 16 -6 0 -11 7
-11 15 0 19 14 19 34 -1z m-414 -14 c-6 -11 -13 -20 -16 -20 -2 0 0 9 6 20 6
11 13 20 16 20 2 0 0 -9 -6 -20z m-1740 -41 c0 -16 -15 -9 -34 17 l-19 26 27
-17 c14 -10 26 -21 26 -26z m50 21 c0 -5 -5 -10 -11 -10 -5 0 -7 5 -4 10 3 6
8 10 11 10 2 0 4 -4 4 -10z m140 -37 c0 -6 3 -20 6 -30 4 -13 3 -15 -4 -4 -8
11 -10 11 -14 0 -6 -16 -38 41 -38 66 0 14 3 14 25 -2 13 -10 25 -23 25 -30z
m-440 -18 c0 -5 -5 -3 -10 5 -5 8 -10 20 -10 25 0 6 5 3 10 -5 5 -8 10 -19 10
-25z m227 -28 c-18 -44 -33 -44 -40 -1 -8 49 8 72 34 48 16 -14 17 -20 6 -47z
m1630 16 c-3 -10 -5 -2 -5 17 0 19 2 27 5 18 2 -10 2 -26 0 -35z m-1696 -53
c-9 -52 -17 -69 -56 -112 -25 -27 -45 -55 -45 -62 -1 -16 -40 33 -40 50 0 19
10 18 26 -3 8 -11 13 -13 14 -5 0 6 7 12 15 12 18 0 19 17 0 50 -9 18 -10 29
-3 38 8 10 7 11 -8 5 -10 -4 5 16 34 44 28 29 52 58 52 65 0 8 4 7 11 -4 6
-11 6 -38 0 -78z m1530 53 c-10 -17 -10 -16 -11 3 0 23 13 41 18 25 2 -6 -1
-18 -7 -28z m467 7 c14 0 32 -32 32 -57 0 -10 -8 -29 -17 -42 l-16 -24 -10 24
c-6 13 -13 48 -17 78 -5 42 -4 50 5 37 7 -9 17 -16 23 -16z m-2292 -36 c13
-44 13 -47 -1 -33 -9 8 -18 33 -22 55 -8 51 4 39 23 -22z m94 31 c1 26 3 27
10 10 14 -32 11 -49 -10 -63 -19 -12 -20 -10 -19 35 1 43 2 45 9 18 l8 -30 2
30z m780 2 c0 -11 -9 -40 -21 -63 -16 -35 -29 -46 -67 -60 -26 -10 -53 -22
-59 -27 -9 -6 -19 2 -34 27 -11 20 -24 34 -28 31 -10 -6 -41 60 -41 87 0 20 1
20 18 5 10 -10 26 -17 35 -17 8 0 19 -9 22 -20 3 -11 10 -20 15 -20 5 0 15 -6
23 -14 12 -13 16 -12 25 7 6 12 14 36 18 52 l7 30 7 -25 7 -25 10 25 c14 33
63 39 63 7z m-678 -19 c-15 -15 -24 -6 -16 16 5 12 10 14 17 7 8 -8 8 -14 -1
-23z m1868 13 c0 -10 7 -24 15 -31 14 -11 13 -15 -6 -28 -13 -9 -17 -17 -10
-21 6 -4 1 -12 -12 -20 -19 -13 -20 -12 -10 1 14 16 0 38 -24 38 -8 0 -13 13
-13 34 0 35 1 35 53 45 4 0 7 -7 7 -18z m-1462 -58 l-3 -28 -15 30 c-14 27
-14 32 0 45 13 14 15 14 18 -2 2 -10 2 -30 0 -45z m-198 40 c0 -10 -4 -24 -9
-31 -6 -11 -9 -10 -13 5 -3 10 -3 24 -1 31 7 18 23 15 23 -5z m1385 -25 c-4
-18 -11 -37 -15 -43 -7 -9 -40 -103 -40 -113 0 -2 6 -2 14 1 12 5 25 -18 26
-45 0 -34 -107 66 -119 110 -9 30 -8 32 9 27 16 -5 18 -3 13 11 -5 13 -3 16 9
11 11 -4 18 1 21 14 3 10 10 19 17 19 6 0 8 -4 5 -10 -15 -24 13 -7 33 20 29
38 35 38 27 -2z m-2056 -19 c-20 -12 -22 -4 -8 23 12 21 13 21 17 4 2 -10 -2
-22 -9 -27z m2708 19 c-3 -8 -6 -5 -6 6 -1 11 2 17 5 13 3 -3 4 -12 1 -19z
m180 -43 c-11 -20 -11 -20 -15 -1 -4 19 -5 18 -16 -3 l-13 -23 -17 27 c-17 25
-16 27 6 44 22 18 23 18 44 -2 18 -18 20 -25 11 -42z m-1982 15 c9 -18 21 -28
27 -24 7 4 8 3 4 -5 -4 -6 -2 -19 5 -27 7 -9 -4 -5 -24 8 -27 17 -36 30 -37
51 0 35 6 34 25 -3z m1595 -12 c0 -49 -12 -74 -30 -63 -9 6 -9 3 -2 -12 20
-37 -116 -143 -190 -149 -24 -1 -28 2 -27 25 1 14 4 39 8 55 l6 28 24 -19 24
-20 56 61 c36 39 63 60 75 58 13 -1 16 2 12 13 -6 17 20 65 35 65 5 0 9 -19 9
-42z m240 16 c0 -22 -2 -24 -14 -14 -8 6 -12 18 -9 26 9 23 23 16 23 -12z
m-2113 -6 c-3 -8 -6 -5 -6 6 -1 11 2 17 5 13 3 -3 4 -12 1 -19z m1623 -40 c0
-15 -4 -28 -10 -28 -14 0 -30 35 -30 66 0 26 0 27 20 9 11 -10 20 -31 20 -47z
m-438 -83 c34 -28 36 -31 23 -55 -14 -25 -14 -25 -15 -2 0 12 -4 22 -10 22 -5
0 -10 -13 -10 -28 0 -49 -14 -46 -27 5 -13 48 -13 48 -9 -35 1 -46 0 -85 -4
-87 -4 -2 -12 44 -19 103 -15 128 -30 164 -32 77 -2 -78 -15 -187 -19 -155 -2
14 -2 40 -1 58 2 18 -2 38 -7 45 -6 7 -12 23 -14 37 l-4 25 -12 -27 c-8 -20
-9 -43 -1 -84 6 -31 8 -58 5 -61 -6 -6 -10 4 -21 52 l-8 30 -8 -30 c-6 -22 -4
-37 11 -62 19 -33 15 -44 -8 -21 -10 10 -10 6 -1 -20 8 -23 8 -36 1 -45 -18
-22 -23 -67 -23 -197 1 -94 -2 -121 -10 -107 -13 22 -16 99 -6 152 5 28 5 36
-2 25 -8 -11 -11 12 -11 80 0 52 -5 102 -10 110 -7 11 -10 5 -11 -25 -1 -36
-3 -33 -17 29 -13 58 -13 78 -3 130 17 82 36 100 27 25 -6 -46 -4 -58 8 -62
10 -4 16 -18 16 -36 0 -16 4 -32 9 -35 9 -6 21 63 21 120 0 18 5 36 10 39 6 3
10 15 10 26 0 11 7 43 16 70 l17 50 56 -53 c31 -30 73 -67 93 -83z m247 91
c-6 -21 -12 -36 -14 -34 -3 2 0 21 6 42 6 21 12 36 14 34 3 -2 0 -21 -6 -42z
m20 0 c-9 -8 -10 -7 -5 7 3 10 7 24 7 30 1 7 3 4 6 -7 3 -10 -1 -23 -8 -30z
m921 36 c0 -5 -7 -17 -15 -28 -14 -18 -14 -17 -4 9 12 27 19 34 19 19z m-2718
-56 c7 -13 7 -16 -1 -12 -6 4 -18 22 -27 39 -14 30 -14 31 1 12 9 -11 21 -28
27 -39z m433 13 c8 -36 1 -47 -20 -29 -22 19 -18 60 6 60 4 0 10 -14 14 -31z
m2313 -29 c1 -33 -2 -60 -7 -60 -15 0 -22 -32 -10 -46 8 -10 5 -23 -14 -54
-20 -33 -26 -38 -36 -27 -6 8 -13 27 -15 43 -2 16 -8 52 -12 79 -7 50 -7 50
14 32 13 -12 22 -15 27 -8 3 6 0 11 -7 12 -10 0 -10 2 1 6 20 8 46 36 47 51 4
52 9 40 12 -28z m-1128 35 c0 -8 -4 -15 -10 -15 -5 0 -10 7 -10 15 0 8 5 15
10 15 6 0 10 -7 10 -15z m384 0 c-6 -16 -24 -21 -24 -7 0 11 11 22 21 22 5 0
6 -7 3 -15z m516 -18 c0 -5 -4 -5 -10 -2 -5 3 -10 14 -10 23 0 15 2 15 10 2 5
-8 10 -19 10 -23z m369 -12 c0 -5 -6 -1 -14 9 -8 11 -15 24 -15 30 0 5 7 1 15
-10 8 -10 14 -23 14 -29z m-523 -7 c-4 -24 -14 -48 -22 -55 -9 -6 -13 -16 -10
-22 11 -17 -11 -22 -25 -5 -10 13 -8 24 14 70 33 66 52 72 43 12z m-2366 -32
c0 -5 -9 -1 -20 9 -11 10 -20 25 -20 34 0 12 6 9 20 -9 11 -14 20 -29 20 -34z
m1245 35 c-3 -6 -11 -8 -17 -5 -6 4 -5 9 3 15 16 10 23 4 14 -10z m689 -16
c20 -30 20 -35 1 -35 -12 0 -45 47 -45 64 0 12 30 -8 44 -29z m-884 8 c2 -2
-22 -29 -53 -61 -51 -51 -59 -55 -68 -39 -6 9 -14 15 -20 12 -5 -4 -9 12 -9
35 0 33 3 41 14 37 8 -3 16 -1 18 4 7 21 98 31 118 12z m-472 -68 l2 -60 -19
30 c-10 17 -22 44 -25 61 -6 28 -5 31 16 30 21 -1 23 -6 26 -61z m-159 46 c11
-7 8 -18 -14 -55 -25 -43 -28 -45 -42 -29 -13 16 -13 15 -7 -16 4 -23 3 -31
-5 -27 -13 8 -15 52 -2 60 4 3 6 16 4 29 -3 17 2 26 19 34 29 14 30 15 47 4z
m441 -11 c0 -10 -6 -23 -14 -27 -7 -4 -26 -32 -41 -62 -19 -39 -30 -50 -38
-42 -8 8 -6 15 9 25 16 13 17 18 6 36 -11 18 -11 26 3 47 9 13 23 22 30 19 7
-2 16 2 19 10 8 21 26 17 26 -6z m367 14 c-3 -3 -12 -4 -19 -1 -8 3 -5 6 6 6
11 1 17 -2 13 -5z m827 -19 c-13 -20 -20 -23 -35 -14 -10 5 -19 12 -19 15 0 3
4 3 9 0 4 -3 17 1 27 9 29 22 36 18 18 -10z m406 15 c13 -8 13 -11 0 -24 -18
-19 -43 -6 -34 17 7 19 13 21 34 7z m490 -42 c0 -17 -10 -6 -25 25 l-16 32 20
-25 c11 -14 21 -28 21 -32z m-2973 -16 c-20 -49 -27 -47 -27 8 0 52 0 53 19
36 17 -15 18 -22 8 -44z m643 48 c0 -5 -2 -10 -4 -10 -3 0 -8 5 -11 10 -3 6
-1 10 4 10 6 0 11 -4 11 -10z m1305 -60 c37 -74 37 -90 -1 -115 -19 -12 -25
-13 -29 -3 -17 48 -45 132 -45 137 1 3 12 -15 26 -41 13 -27 29 -48 35 -48 6
0 6 6 1 18 -5 9 -12 33 -15 52 -3 19 -8 43 -12 53 -4 9 -4 17 -1 17 3 0 21
-31 41 -70z m-1660 -3 c-10 -15 -12 -28 -6 -31 5 -3 12 0 14 6 4 8 6 7 6 -4 1
-23 -15 -32 -23 -12 -5 13 -9 14 -21 4 -22 -18 -19 -4 13 53 21 40 28 46 30
29 2 -11 -4 -32 -13 -45z m957 48 c0 -5 -6 -14 -15 -19 -17 -11 -51 10 -41 26
7 12 54 6 56 -7z m578 -35 c0 -38 -4 -50 -15 -50 -8 0 -15 5 -15 11 0 15 22
89 27 89 1 0 3 -22 3 -50z m-1720 20 c0 -5 -2 -10 -4 -10 -3 0 -8 5 -11 10 -3
6 -1 10 4 10 6 0 11 -4 11 -10z m690 0 c0 -5 -2 -10 -4 -10 -3 0 -8 5 -11 10
-3 6 -1 10 4 10 6 0 11 -4 11 -10z m1190 -11 c0 -11 -4 -17 -10 -14 -5 3 -10
13 -10 21 0 8 5 14 10 14 6 0 10 -9 10 -21z m-799 -43 c-6 -7 -9 -20 -5 -29 7
-20 -16 -34 -27 -16 -13 20 -11 73 3 87 17 17 44 -23 29 -42z m1206 32 c-3 -8
-6 -5 -6 6 -1 11 2 17 5 13 3 -3 4 -12 1 -19z m-1712 -8 c4 -6 11 -8 16 -5 5
4 9 -12 9 -34 0 -28 -4 -41 -14 -41 -20 0 -39 27 -32 45 3 9 2 13 -4 10 -6 -3
-10 -13 -10 -21 0 -8 -4 -12 -10 -9 -5 3 -10 14 -10 24 0 32 40 55 55 31z
m1895 7 c0 -2 -13 -16 -30 -32 l-30 -29 0 26 c0 21 4 25 19 21 10 -3 22 0 25
6 7 10 16 15 16 8z m-2460 -22 c0 -8 -4 -15 -10 -15 -5 0 -10 7 -10 15 0 8 5
15 10 15 6 0 10 -7 10 -15z m638 -1 c17 -12 22 -25 22 -60 0 -48 -5 -52 -38
-28 -17 12 -22 25 -22 60 0 48 5 52 38 28z m917 -43 c10 -12 22 -45 26 -74 4
-29 12 -85 18 -126 6 -40 11 -96 12 -125 1 -28 6 -56 11 -63 5 -6 8 -24 6 -40
-3 -26 -5 -24 -22 22 -26 67 -32 72 -33 28 -1 -24 2 -32 8 -22 10 16 12 8 3
-15 -3 -9 -11 -13 -16 -10 -6 4 -8 -1 -5 -12 20 -70 20 -69 6 -56 -10 9 -14
51 -16 155 -2 178 -3 191 -13 181 -12 -14 -20 -143 -10 -149 6 -4 10 -18 9
-33 0 -24 -1 -25 -9 -7 -6 13 -8 -6 -8 -59 1 -44 5 -71 9 -60 6 17 8 15 19
-11 18 -46 24 -85 12 -85 -5 0 -13 11 -16 25 -6 25 -7 25 -36 10 -34 -18 -40
-30 -10 -22 11 3 20 2 21 -1 0 -4 3 -61 5 -126 2 -66 8 -122 13 -125 17 -11
23 -53 11 -81 -6 -16 -10 -37 -7 -47 3 -15 5 -14 15 7 6 14 11 18 11 10 1 -9
-3 -20 -8 -25 -14 -15 -16 -48 -4 -70 17 -33 24 -73 13 -80 -5 -3 -10 -1 -10
5 0 6 -4 8 -10 5 -5 -3 -10 -16 -10 -27 0 -12 -3 -18 -7 -15 -3 4 -12 94 -19
200 -7 105 -17 217 -23 247 -11 64 -39 279 -46 362 -4 50 12 230 30 336 l6 33
27 -20 c15 -10 36 -29 47 -40z m515 38 c-7 -11 -14 -18 -17 -15 -3 3 0 12 7
21 18 21 23 19 10 -6z m490 -23 c0 -12 -5 -7 -19 24 -11 24 -11 24 3 6 9 -11
16 -24 16 -30z m-2620 17 c0 -36 -12 -61 -31 -66 -23 -6 -23 -7 -3 43 17 41
34 53 34 23z m280 -58 l-6 -50 -5 58 c-4 60 0 78 12 55 3 -7 3 -35 -1 -63z
m890 60 c0 -8 -4 -15 -10 -15 -5 0 -10 7 -10 15 0 8 5 15 10 15 6 0 10 -7 10
-15z m1781 -138 c8 -14 -3 -8 -31 18 -42 40 -61 69 -75 115 -8 25 84 -90 106
-133z m-2991 135 c0 -5 -7 -17 -15 -28 -14 -18 -14 -17 -4 9 12 27 19 34 19
19z m2226 -64 c-5 -41 -14 -70 -27 -84 -11 -12 -22 -34 -25 -49 -4 -25 -3 -27
21 -23 l25 5 0 -84 0 -85 -61 56 c-34 32 -85 75 -114 96 -30 22 -57 44 -60 50
-10 16 15 41 34 36 10 -4 28 11 51 41 19 25 36 40 38 33 3 -7 13 -4 28 11 20
19 24 20 24 6 0 -9 7 -17 15 -17 8 0 15 2 15 4 0 2 3 12 7 22 4 12 3 15 -5 10
-7 -4 -12 -2 -12 4 0 7 7 9 15 6 9 -3 18 1 21 9 13 32 16 12 10 -47z m-1106 1
c0 -15 -16 -10 -34 10 -10 11 -15 25 -10 32 5 9 12 6 26 -10 10 -13 18 -27 18
-32z m750 11 c0 -13 -1 -13 -10 0 -5 8 -10 22 -10 30 0 13 1 13 10 0 5 -8 10
-22 10 -30z m409 4 c-15 -18 -22 -13 -13 10 3 9 10 13 16 10 5 -3 4 -12 -3
-20z m-1985 -10 c3 -9 6 -25 5 -37 0 -21 -1 -21 -9 -2 -8 18 -9 18 -9 -5 -1
-14 -6 -32 -11 -40 -8 -13 -11 -13 -26 1 -16 17 -12 59 7 59 5 0 9 9 9 20 0
24 25 27 34 4z m236 -62 c0 -47 -3 -63 -10 -52 -13 20 -13 133 0 125 6 -3 10
-36 10 -73z m600 -8 c0 -17 -4 -22 -15 -18 -8 4 -15 12 -15 20 0 8 -5 14 -12
14 -6 0 -19 7 -29 16 -16 14 -18 14 -24 -6 -4 -12 -4 -24 -1 -27 3 -4 6 1 6
10 0 10 3 17 6 17 12 0 33 -35 34 -54 0 -15 -5 -17 -27 -11 l-28 7 22 -24 21
-23 -19 -25 c-16 -18 -19 -32 -14 -58 5 -26 3 -33 -7 -30 -16 6 -39 205 -26
230 4 9 18 24 29 32 20 14 25 12 60 -16 25 -20 39 -40 39 -54z m1396 58 c-17
-16 -18 -16 -5 5 7 12 15 20 18 17 3 -2 -3 -12 -13 -22z m120 -50 c-11 -10
-25 13 -31 48 l-6 35 21 -38 c12 -22 19 -42 16 -45z m-2596 55 c0 -7 -7 -22
-15 -33 -13 -17 -13 -16 -3 14 13 34 18 40 18 19z m533 -115 c-1 -64 0 -110 4
-102 3 8 14 23 24 32 11 11 21 40 25 78 5 49 10 60 23 58 12 -2 17 -18 19 -66
l3 -63 -70 -72 -71 -72 0 148 c0 96 4 154 12 166 25 40 33 12 31 -107z m-133
108 c0 -5 -7 -10 -16 -10 -8 0 -12 5 -9 10 3 6 10 10 16 10 5 0 9 -4 9 -10z
m-444 -32 c-1 -13 -11 -38 -20 -57 -16 -30 -20 -32 -28 -17 -12 22 -6 68 9 73
10 4 10 -3 2 -27 -6 -17 -9 -34 -5 -37 3 -4 6 -1 6 6 0 15 27 81 34 81 2 0 3
-10 2 -22z m2010 -6 c-17 -16 -18 -16 -5 5 7 12 15 20 18 17 3 -2 -3 -12 -13
-22z m829 -24 c15 -52 13 -80 -3 -37 -14 35 -24 89 -18 89 3 0 12 -23 21 -52z
m-480 20 c11 -13 18 -30 16 -38 -3 -17 -48 -81 -91 -130 l-30 -34 6 79 c6 71
10 84 37 113 17 17 34 32 37 32 3 0 14 -10 25 -22z m166 -1 c-10 -9 -11 -8 -5
6 3 10 9 15 12 12 3 -3 0 -11 -7 -18z m382 -9 c6 -22 5 -22 -8 -4 -17 22 -20
40 -6 32 5 -3 11 -16 14 -28z m-963 7 c-7 -9 -15 -13 -17 -11 -7 7 7 26 19 26
6 0 6 -6 -2 -15z m-1541 -15 c1 21 3 22 11 8 6 -9 15 -74 20 -145 6 -70 13
-141 15 -158 4 -24 -1 -34 -24 -53 l-30 -22 -6 42 c-16 120 -12 390 6 328 l7
-25 1 25z m220 3 c-1 -10 -5 -31 -9 -48 -7 -27 -8 -25 -9 18 0 26 4 47 9 47 6
0 9 -8 9 -17z m783 -15 c-9 -9 -12 -7 -12 12 0 19 3 21 12 12 9 -9 9 -15 0
-24z m-681 -9 c-2 -8 -4 -20 -4 -26 0 -7 -9 -20 -19 -30 -17 -15 -18 -14 -18
25 0 38 12 54 35 47 6 -1 8 -9 6 -16z m388 -13 c15 -18 17 -87 3 -112 -10 -18
-11 -18 -17 -1 -4 9 -2 23 4 31 9 11 7 15 -11 21 l-23 7 25 7 c24 7 25 7 3 13
-16 4 -20 11 -16 27 6 25 16 27 32 7z m285 -12 c3 -8 2 -12 -4 -9 -6 3 -10 10
-10 16 0 14 7 11 14 -7z m459 -60 c-5 -15 -23 -20 -23 -6 0 5 -7 17 -15 28
-14 17 -15 8 -14 -96 0 -63 -2 -131 -5 -150 -6 -33 -6 -33 5 -10 20 42 24 -4
4 -52 -9 -22 -13 -43 -11 -46 3 -3 10 6 15 19 5 13 10 18 10 11 1 -7 -9 -32
-21 -55 -13 -23 -26 -51 -29 -62 -12 -34 -10 75 3 165 6 47 12 132 13 190 2
141 0 135 39 105 21 -16 33 -32 29 -41z m636 33 c0 -21 -1 -21 -9 -2 -12 28
-12 37 0 30 6 -3 10 -16 9 -28z m-2114 -262 c6 -41 4 -54 -9 -64 -9 -8 -18
-12 -19 -10 -1 2 -27 33 -57 69 -88 104 -89 105 -28 67 l56 -36 0 70 c0 39 3
73 6 76 3 4 6 -39 6 -95 0 -62 4 -103 11 -108 8 -4 9 25 4 104 -4 61 -4 132 1
159 7 44 9 37 15 -67 4 -63 10 -138 14 -165z m2352 250 c15 19 15 19 9 -5 -3
-14 -6 -30 -6 -37 0 -21 -42 -9 -51 15 -12 32 0 50 18 26 14 -19 15 -19 30 1z
m-1762 -5 c3 -5 1 -10 -4 -10 -6 0 -11 5 -11 10 0 6 2 10 4 10 3 0 8 -4 11
-10z m382 -37 c-3 -10 -5 -2 -5 17 0 19 2 27 5 18 2 -10 2 -26 0 -35z m53 26
c0 -5 -4 -9 -10 -9 -5 0 -10 7 -10 16 0 8 5 12 10 9 6 -3 10 -10 10 -16z
m-880 -78 c0 -50 -4 -93 -10 -96 -6 -4 -10 28 -10 89 0 57 4 96 10 96 6 0 10
-36 10 -89z m380 58 c0 -6 -7 -6 -20 1 -11 6 -20 15 -20 21 0 6 7 6 20 -1 11
-6 20 -15 20 -21z m1990 -31 c0 -10 -4 -18 -10 -18 -5 0 -10 4 -10 9 0 5 -3
24 -6 42 l-5 34 15 -25 c8 -14 15 -33 16 -42z m-2036 17 c4 -14 2 -33 -3 -42
-7 -14 -9 -13 -15 5 -10 29 -30 29 -23 0 4 -12 1 -29 -6 -37 -10 -11 -9 -13 3
-9 17 5 40 -38 32 -60 -3 -10 -7 -10 -20 0 -13 11 -15 10 -10 -9 4 -13 2 -26
-4 -29 -5 -3 -6 -20 -2 -37 3 -18 3 -29 0 -26 -4 3 -13 48 -21 99 l-15 92 32
38 c18 21 36 39 39 39 4 1 10 -10 13 -24z m203 -17 c-3 -8 -6 -5 -6 6 -1 11 2
17 5 13 3 -3 4 -12 1 -19z m793 -6 c0 -15 -2 -15 -10 -2 -13 20 -13 33 0 25 6
-3 10 -14 10 -23z m796 -48 c24 -57 9 -50 -17 8 -32 72 -34 76 -15 51 9 -13
24 -39 32 -59z m37 52 c3 3 11 -4 17 -16 8 -15 8 -20 1 -16 -6 4 -11 1 -11 -8
0 -21 -21 -31 -31 -15 -15 23 -10 34 6 13 18 -24 19 -7 0 26 -18 31 -19 51 -1
28 7 -10 16 -15 19 -12z m-2802 -9 c-10 -9 -11 -8 -5 6 3 10 9 15 12 12 3 -3
0 -11 -7 -18z m379 14 c0 -5 8 -7 19 -4 14 3 20 -2 23 -21 6 -31 -1 -32 -36
-5 -26 21 -34 39 -16 39 6 0 10 -4 10 -9z m-290 -10 c0 -12 -20 -25 -27 -18
-7 7 6 27 18 27 5 0 9 -4 9 -9z m1128 -27 c-10 -10 -28 6 -28 24 0 15 1 15 17
-1 9 -9 14 -19 11 -23z m845 4 c20 -14 26 -25 21 -37 -4 -9 -9 -28 -12 -43 -6
-38 -42 -39 -42 -2 0 14 -4 23 -10 19 -6 -3 -7 -18 -4 -32 6 -23 -6 -42 -28
-43 -10 0 -10 47 -1 118 5 48 8 52 27 46 12 -4 34 -16 49 -26z m-1923 18 c0
-2 -8 -10 -17 -17 -16 -13 -17 -12 -4 4 13 16 21 21 21 13z m2432 -41 c-3 -32
0 -45 9 -45 12 0 3 -15 -9 -15 -4 0 -13 -4 -19 -8 -10 -6 -13 3 -13 37 0 52 8
76 24 76 7 0 10 -16 8 -45z m-2412 22 c0 -2 -10 -12 -22 -23 l-23 -19 19 23
c18 21 26 27 26 19z m1007 -29 c-3 -8 -6 -5 -6 6 -1 11 2 17 5 13 3 -3 4 -12
1 -19z m320 0 c-3 -8 -6 -5 -6 6 -1 11 2 17 5 13 3 -3 4 -12 1 -19z m989 -39
c-3 -34 -6 -73 -6 -85 0 -13 -5 -24 -11 -24 -13 0 -89 61 -89 72 0 11 91 98
103 98 6 0 7 -24 3 -61z m-1339 15 c-2 -13 0 -24 4 -24 5 0 9 -5 9 -11 0 -8
-5 -8 -15 1 -17 14 -21 75 -4 64 6 -3 9 -17 6 -30z m93 26 c0 -5 -7 -10 -15
-10 -8 0 -15 5 -15 10 0 6 7 10 15 10 8 0 15 -4 15 -10z m-1398 -22 c-7 -7
-12 -8 -12 -2 0 14 12 26 19 19 2 -3 -1 -11 -7 -17z m590 -13 c10 -13 10 -25
0 -25 -4 0 -16 15 -27 33 -18 32 -18 32 1 17 10 -8 22 -19 26 -25z m578 -14
c0 -11 -3 -11 -15 -1 -8 7 -15 22 -15 33 0 20 0 20 15 1 8 -10 15 -25 15 -33z
m1388 29 c-12 -19 -28 -27 -28 -14 0 6 30 33 38 34 1 0 -3 -9 -10 -20z m662
-8 c0 -15 -2 -15 -10 -2 -13 20 -13 33 0 25 6 -3 10 -14 10 -23z m-2180 8 c0
-5 -4 -10 -10 -10 -5 0 -10 5 -10 10 0 6 5 10 10 10 6 0 10 -4 10 -10z m1260
-7 c11 -10 20 -21 20 -26 0 -5 -6 -4 -13 2 -8 6 -16 8 -19 6 -3 -3 -8 3 -11
15 -6 24 -3 25 23 3z m510 -2 c0 -11 -39 -59 -40 -49 0 14 23 58 32 58 4 0 8
-4 8 -9z m-1762 -30 c3 -8 -1 -12 -9 -9 -7 2 -15 10 -17 17 -3 8 1 12 9 9 7
-2 15 -10 17 -17z m605 4 c4 -8 2 -17 -3 -20 -6 -4 -10 3 -10 14 0 25 6 27 13
6z m-689 -42 c-4 -23 0 -32 25 -48 35 -23 41 -40 11 -30 -11 3 -20 3 -20 -2 0
-4 -3 -19 -7 -33 -3 -14 -2 -22 2 -18 11 10 35 -10 35 -29 0 -13 -3 -13 -15
-3 -13 11 -15 8 -15 -19 0 -18 4 -30 9 -27 15 10 41 -5 41 -23 0 -14 -2 -14
-10 -1 -7 12 -12 12 -21 3 -10 -10 -9 -16 4 -31 9 -10 17 -31 17 -46 0 -23 -4
-27 -20 -23 -16 4 -20 0 -20 -19 0 -13 -4 -24 -10 -24 -5 0 -10 -4 -10 -10 0
-5 6 -7 13 -5 12 5 37 -37 37 -63 0 -18 -30 11 -30 30 0 8 -5 6 -11 -5 -6 -9
-14 -15 -19 -12 -13 8 -20 -30 -17 -102 2 -57 6 -68 30 -64 4 0 7 -3 7 -9 0
-5 -4 -10 -10 -10 -5 0 -10 -8 -10 -17 0 -13 -3 -14 -11 -6 -7 7 -20 90 -30
185 -10 95 -27 223 -38 283 l-19 110 46 48 c53 54 74 60 66 20z m341 -14 c-4
-5 1 -21 9 -34 20 -30 7 -33 -17 -5 -17 20 -23 61 -10 74 10 9 26 -22 18 -35z
m1039 19 c3 -13 6 -27 6 -33 -1 -15 -30 27 -30 42 0 22 17 15 24 -9z m-1783
-40 c39 -49 40 -51 9 -23 -40 35 -59 57 -60 68 0 14 9 6 51 -45z m-631 12 c-6
-12 -14 -20 -17 -17 -2 3 1 14 8 26 17 26 24 19 9 -9z m331 17 c-6 -8 -9 -17
-6 -21 3 -3 0 -2 -6 3 -12 10 -4 31 13 31 7 0 7 -4 -1 -13z m739 -19 c0 -5 -4
-8 -10 -8 -5 0 -10 10 -10 23 0 18 2 19 10 7 5 -8 10 -18 10 -22z m60 23 c2
-1 -1 -6 -7 -12 -13 -13 -47 -4 -39 10 4 5 14 8 24 6 9 -2 19 -4 22 -4z m1947
-28 l1 -38 -20 25 c-18 22 -18 25 -4 28 9 2 16 8 16 13 0 5 1 9 3 9 2 0 4 -17
4 -37z m-617 7 c0 -5 -4 -12 -10 -15 -5 -3 -10 -4 -10 -1 0 2 -3 12 -6 20 -5
12 -2 15 10 10 9 -3 16 -10 16 -14z m-1234 -1 c10 -17 -13 -36 -27 -22 -12 12
-4 33 11 33 5 0 12 -5 16 -11z m174 -10 c0 -6 -4 -7 -10 -4 -5 3 -10 11 -10
16 0 6 5 7 10 4 6 -3 10 -11 10 -16z m-969 -7 c-5 -9 -19 -26 -32 -37 -19 -16
-18 -13 5 18 30 39 43 49 27 19z m1829 7 c0 -12 -25 -39 -35 -39 -4 0 -5 7 -1
15 3 8 1 15 -4 15 -6 0 -10 5 -10 10 0 6 11 10 25 10 14 0 25 -5 25 -11z m532
-11 c-7 -7 -12 -8 -12 -2 0 6 3 14 7 17 3 4 9 5 12 2 2 -3 -1 -11 -7 -17z
m-1682 2 c8 -5 12 -11 9 -14 -3 -3 -14 1 -25 9 -21 16 -8 20 16 5z m1750 -19
c-4 -15 -13 -38 -19 -49 -16 -29 -13 -41 4 -18 15 20 15 20 15 0 0 -11 -6 -28
-12 -37 -12 -14 -15 -14 -41 7 l-29 23 39 51 c43 59 55 65 43 23z m220 -50 c0
-19 -3 -21 -14 -12 -8 6 -16 22 -19 34 -2 12 -8 31 -12 42 -5 14 1 11 19 -10
14 -16 25 -41 26 -54z m-589 46 c-10 -9 -11 -8 -5 6 3 10 9 15 12 12 3 -3 0
-11 -7 -18z m-2136 -27 c-16 -16 -31 -28 -34 -25 -2 3 8 19 24 35 16 16 31 28
34 25 2 -3 -8 -19 -24 -35z m1692 8 c-3 -8 -6 -5 -6 6 -1 11 2 17 5 13 3 -3 4
-12 1 -19z m476 7 c4 -8 2 -17 -3 -20 -6 -4 -10 3 -10 14 0 25 6 27 13 6z
m-1869 -16 c36 -21 44 -33 27 -43 -10 -7 -71 41 -71 55 0 13 4 12 44 -12z
m461 11 c3 -5 1 -10 -4 -10 -6 0 -11 5 -11 10 0 6 2 10 4 10 3 0 8 -4 11 -10z
m1155 1 c0 -6 -4 -13 -10 -16 -5 -3 -10 1 -10 9 0 9 5 16 10 16 6 0 10 -4 10
-9z m497 -13 c-3 -8 -6 -5 -6 6 -1 11 2 17 5 13 3 -3 4 -12 1 -19z m-2254 -8
c3 -11 1 -18 -4 -14 -5 3 -9 12 -9 20 0 20 7 17 13 -6z m857 -1 c0 -5 -4 -9
-10 -9 -5 0 -10 7 -10 16 0 8 5 12 10 9 6 -3 10 -10 10 -16z m-478 -11 c-7 -7
-12 -8 -12 -2 0 6 3 14 7 17 3 4 9 5 12 2 2 -3 -1 -11 -7 -17z m1348 12 c0 -5
-4 -10 -10 -10 -5 0 -10 5 -10 10 0 6 5 10 10 10 6 0 10 -4 10 -10z m724 -11
c-3 -5 -1 -8 4 -7 12 3 76 -81 68 -89 -9 -9 -86 80 -86 99 0 11 5 16 10 13 6
-4 8 -11 4 -16z m-372 -16 c15 -16 32 -48 38 -72 10 -39 10 -47 -4 -57 -22
-15 -20 -24 4 -24 15 0 20 -7 20 -26 0 -20 -4 -24 -19 -19 -13 4 -23 0 -30
-12 -9 -15 -10 -13 -11 15 0 17 -5 32 -11 32 -5 0 -8 4 -4 9 3 5 1 12 -4 15
-5 4 -12 2 -15 -3 -4 -5 -2 -12 4 -16 5 -3 10 -21 10 -39 0 -39 19 -59 46 -50
11 4 4 -6 -16 -25 l-35 -32 -3 33 c-2 18 -9 36 -15 40 -22 14 -11 258 12 258
4 0 19 -12 33 -27z m-2156 -9 c-4 -9 -9 -15 -11 -12 -3 3 -3 13 1 22 4 9 9 15
11 12 3 -3 3 -13 -1 -22z m777 19 c-7 -2 -19 -2 -25 0 -7 3 -2 5 12 5 14 0 19
-2 13 -5z m1034 -31 c-20 -20 -27 -23 -27 -10 0 15 41 50 49 42 3 -3 -7 -17
-22 -32z m-1846 9 c-13 -24 -81 -105 -81 -96 0 7 82 115 88 115 1 0 -2 -8 -7
-19z m1699 4 c0 -8 -2 -15 -4 -15 -2 0 -6 7 -10 15 -3 8 -1 15 4 15 6 0 10 -7
10 -15z m411 -48 c-13 -13 -15 11 -4 40 7 16 8 15 11 -6 2 -13 -1 -28 -7 -34z
m-255 -5 c-17 -17 -26 -22 -26 -12 0 19 44 64 48 50 3 -7 -7 -24 -22 -38z
m181 26 c-3 -8 -6 -5 -6 6 -1 11 2 17 5 13 3 -3 4 -12 1 -19z m-1792 -6 c-3
-3 -11 0 -18 7 -9 10 -8 11 6 5 10 -3 15 -9 12 -12z m205 14 c0 -3 -4 -8 -10
-11 -5 -3 -10 -1 -10 4 0 6 5 11 10 11 6 0 10 -2 10 -4z m514 -12 c3 -8 2 -12
-4 -9 -6 3 -10 10 -10 16 0 14 7 11 14 -7z m1704 -9 c-3 -3 -9 2 -12 12 -6 14
-5 15 5 6 7 -7 10 -15 7 -18z m-1958 -6 c0 -6 -4 -7 -10 -4 -5 3 -10 11 -10
16 0 6 5 7 10 4 6 -3 10 -11 10 -16z m944 -32 c-9 -40 -22 -32 -20 13 0 33 3
37 14 26 8 -8 11 -23 6 -39z m-1221 29 c23 -18 22 -23 -5 -22 -24 1 -27 -12
-12 -48 4 -11 4 -17 -2 -14 -5 4 -10 -14 -11 -39 -1 -25 -7 -50 -15 -54 -16
-10 -16 -10 -23 41 -3 25 -8 58 -11 74 -5 23 -1 33 22 52 34 27 34 27 57 10z
m-428 -23 c-9 -16 -32 -46 -51 -68 -32 -38 -34 -39 -34 -15 0 15 15 40 42 67
48 49 67 56 43 16z m134 -3 c12 -24 12 -24 -5 -5 -17 20 -17 16 1 -28 3 -7 -9
-26 -26 -42 l-32 -30 7 25 c3 14 9 38 13 55 5 24 24 58 29 51 1 0 7 -12 13
-26z m1623 -23 c-11 -24 -25 -48 -32 -52 -14 -9 -14 -9 20 57 30 59 39 55 12
-5z m840 -1 c47 -61 62 -67 27 -10 l-23 37 32 -23 c30 -22 32 -28 31 -79 0
-31 -4 -64 -7 -74 -7 -15 -12 -12 -42 20 -90 97 -94 103 -83 114 9 9 20 -4 44
-46 18 -32 34 -54 36 -48 2 6 -9 30 -25 54 -34 51 -56 109 -41 109 5 0 28 -25
51 -54z m-2382 38 c0 -8 -19 -13 -24 -6 -3 5 1 9 9 9 8 0 15 -2 15 -3z m-232
-201 c-58 -59 -72 -57 -66 11 4 45 12 64 54 121 l49 67 3 -78 3 -77 -43 -44z
m1690 126 c-18 -12 -22 14 -6 43 l13 23 3 -29 c2 -16 -2 -32 -10 -37z m-1208
42 c0 -15 -16 -22 -34 -15 -25 9 -19 24 9 24 14 0 25 -4 25 -9z m257 -23 c-3
-7 -5 -2 -5 12 0 14 2 19 5 13 2 -7 2 -19 0 -25z m580 0 c-3 -8 -6 -5 -6 6 -1
11 2 17 5 13 3 -3 4 -12 1 -19z m534 -11 c-8 -8 -11 -7 -11 4 0 20 13 34 18
19 3 -7 -1 -17 -7 -23z m-2119 1 c-7 -7 -12 -8 -12 -2 0 14 12 26 19 19 2 -3
-1 -11 -7 -17z m608 7 c0 -8 -2 -15 -4 -15 -2 0 -6 7 -10 15 -3 8 -1 15 4 15
6 0 10 -7 10 -15z m1429 -62 c-16 -35 -23 -43 -26 -30 -3 11 6 39 19 63 30 58
36 30 7 -33z m-143 11 c-4 -14 0 -37 9 -55 9 -17 14 -36 11 -42 -2 -7 -5 -3
-5 7 -1 11 -4 17 -7 13 -4 -3 -13 0 -21 8 -11 12 -13 28 -7 71 5 44 9 53 16
40 5 -10 7 -28 4 -42z m736 -10 c-24 -33 -32 -29 -19 11 8 27 13 32 23 24 11
-9 10 -15 -4 -35z m-2058 1 c9 -13 16 -32 16 -42 -1 -13 -5 -11 -16 10 -8 15
-19 27 -24 27 -6 0 -10 7 -10 15 0 23 16 18 34 -10z m20 10 c3 -8 1 -15 -4
-15 -6 0 -10 7 -10 15 0 8 2 15 4 15 2 0 6 -7 10 -15z m419 -16 c-4 -13 -9
-17 -16 -10 -12 12 -1 45 12 37 5 -3 7 -15 4 -27z m956 -21 c1 -5 -3 -8 -9 -8
-5 0 -10 12 -9 28 0 24 1 25 9 7 5 -11 9 -23 9 -27z m-1429 1 c0 -11 7 -22 15
-25 10 -4 15 -20 15 -48 0 -22 4 -36 8 -29 8 13 62 5 62 -9 0 -6 -9 -8 -20 -5
-11 3 -18 1 -14 -4 3 -5 -4 -9 -15 -9 -12 0 -26 11 -34 26 l-14 27 -7 -33 c-6
-32 -7 -33 -21 -14 -11 15 -14 16 -15 4 0 -8 -3 -26 -6 -40 -4 -19 -3 -21 5
-10 8 12 13 12 30 -4 21 -19 21 -19 21 9 0 34 14 23 24 -17 6 -27 -8 -49 -17
-26 -4 8 -6 7 -6 -4 -1 -9 4 -20 9 -23 13 -8 13 -35 0 -35 -6 0 -13 13 -16 30
-6 25 -9 28 -25 19 -22 -12 -26 -31 -4 -23 10 4 15 0 15 -11 0 -9 9 -19 20
-22 11 -3 20 -9 20 -14 0 -13 -24 -11 -38 3 -7 7 -12 8 -12 2 0 -6 11 -17 25
-24 25 -13 29 -38 6 -32 -6 1 -11 -5 -11 -14 0 -9 -5 -12 -12 -8 -7 5 -9 2 -5
-9 4 -12 2 -14 -11 -10 -15 6 -15 5 -3 -10 12 -15 12 -21 0 -44 l-14 -25 -6
23 c-4 14 -6 6 -4 -21 2 -25 4 -56 4 -69 1 -20 4 -22 29 -16 25 6 26 5 11 -10
-13 -13 -21 -15 -37 -6 -25 13 -29 33 -42 231 -6 91 -15 187 -21 214 -9 46 -8
51 18 78 27 28 51 39 37 16 -13 -21 -12 -67 2 -72 22 -8 32 23 21 66 -8 31 -7
42 4 48 18 11 29 3 29 -21z m1039 -13 c-3 -3 -11 5 -18 17 -13 21 -12 21 5 5
10 -10 16 -20 13 -22z m338 12 c-3 -8 -6 -5 -6 6 -1 11 2 17 5 13 3 -3 4 -12
1 -19z m760 0 c-2 -19 3 -23 24 -21 19 1 39 -11 74 -47 39 -40 46 -52 39 -71
l-7 -24 -10 28 -9 29 -19 -41 c-10 -23 -24 -41 -32 -41 -8 0 -17 -8 -21 -17
-3 -10 -9 -24 -12 -30 -13 -28 27 -11 41 18 9 17 19 28 22 25 6 -5 -68 -136
-95 -169 -9 -9 -13 -20 -10 -23 3 -3 21 15 39 40 33 47 50 56 28 14 -7 -12
-27 -43 -46 -67 -22 -29 -34 -56 -35 -80 0 -20 -5 65 -9 188 -6 206 -5 228 12
268 20 47 30 55 26 21z m-318 -34 c-18 -22 -22 -11 -7 22 10 21 14 24 16 10 2
-9 -2 -24 -9 -32z m-1729 -16 c0 -4 -7 -8 -15 -8 -10 0 -15 10 -15 28 1 26 1
26 15 8 8 -11 15 -23 15 -28z m340 17 c0 -28 -15 -34 -24 -9 -10 25 -7 34 9
34 9 0 15 -9 15 -25z m1000 -16 c0 -23 -16 -25 -24 -3 -10 25 -7 34 9 28 8 -4
15 -15 15 -25z m-1260 -10 c0 -11 -4 -17 -10 -14 -5 3 -10 13 -10 21 0 8 5 14
10 14 6 0 10 -9 10 -21z m290 6 c0 -8 -4 -15 -10 -15 -5 0 -10 7 -10 15 0 8 5
15 10 15 6 0 10 -7 10 -15z m38 -110 c0 -16 -2 -22 -5 -12 -2 9 -10 17 -17 17
-9 0 -10 14 -2 63 l11 62 7 -50 c3 -27 6 -63 6 -80z m1109 73 c-3 -7 -5 -2 -5
12 0 14 2 19 5 13 2 -7 2 -19 0 -25z m-1517 12 c0 -5 -4 -10 -10 -10 -5 0 -10
5 -10 10 0 6 5 10 10 10 6 0 10 -4 10 -10z m1898 -17 c-2 -18 -10 -29 -23 -32
-17 -3 -18 -1 -6 13 21 25 -8 21 -36 -6 -17 -16 -23 -18 -23 -7 0 14 63 58 83
59 5 0 7 -12 5 -27z m64 5 c-7 -7 -12 -8 -12 -2 0 14 12 26 19 19 2 -3 -1 -11
-7 -17z m-555 -10 c-3 -8 -6 -5 -6 6 -1 11 2 17 5 13 3 -3 4 -12 1 -19z
m-1354 -4 c8 -8 -3 -34 -14 -34 -5 0 -9 9 -9 20 0 19 11 26 23 14z m316 -1 c0
-5 -4 -17 -9 -28 -8 -18 -9 -17 -9 8 -1 15 4 27 9 27 6 0 10 -3 9 -7z m971
-34 c0 -18 -4 -28 -10 -24 -5 3 -10 20 -10 36 0 18 4 28 10 24 6 -3 10 -20 10
-36z m-1026 -5 c20 -19 21 -38 2 -31 -10 4 -12 0 -9 -14 4 -15 2 -18 -11 -13
-10 4 -16 18 -16 40 0 37 10 43 34 18z m1581 -14 c-23 -25 -75 -52 -75 -39 0
27 20 46 43 42 14 -3 28 0 31 6 4 6 10 11 13 11 3 0 -2 -9 -12 -20z m-1830 0
c3 -5 1 -10 -4 -10 -6 0 -11 5 -11 10 0 6 2 10 4 10 3 0 8 -4 11 -10z m1239
-6 c3 -8 2 -12 -4 -9 -6 3 -10 10 -10 16 0 14 7 11 14 -7z m213 -6 c-3 -8 -6
-5 -6 6 -1 11 2 17 5 13 3 -3 4 -12 1 -19z m-1134 -49 c-4 -13 -9 -17 -15 -11
-11 11 -3 32 12 32 4 0 6 -9 3 -21z m-103 1 c0 -5 -2 -10 -4 -10 -3 0 -8 5
-11 10 -3 6 -1 10 4 10 6 0 11 -4 11 -10z m1632 -12 c-7 -7 -12 -8 -12 -2 0
14 12 26 19 19 2 -3 -1 -11 -7 -17z m-1572 -9 c0 -5 -4 -9 -10 -9 -5 0 -10 7
-10 16 0 8 5 12 10 9 6 -3 10 -10 10 -16z m989 -138 c0 -45 -1 -44 -29 44 -37
116 -37 135 0 61 21 -41 30 -73 29 -105z m5 134 c3 -8 1 -15 -4 -15 -6 0 -10
7 -10 15 0 8 2 15 4 15 2 0 6 -7 10 -15z m512 -33 c-18 -18 -29 -12 -20 11 3
9 12 13 21 10 13 -5 13 -8 -1 -21z m-1479 -24 c-3 -8 -6 -5 -6 6 -1 11 2 17 5
13 3 -3 4 -12 1 -19z m1478 -29 c-6 -33 -15 -36 -15 -6 0 15 4 27 9 27 6 0 8
-10 6 -21z m-1479 -16 c-10 -10 -19 5 -10 18 6 11 8 11 12 0 2 -7 1 -15 -2
-18z m1767 -3 c-3 -12 -8 -19 -11 -16 -5 6 5 36 12 36 2 0 2 -9 -1 -20z
m-1837 -46 c-4 -9 -9 -15 -11 -12 -3 3 -3 13 1 22 4 9 9 15 11 12 3 -3 3 -13
-1 -22z m994 -7 c0 -5 -4 -5 -10 -2 -5 3 -10 14 -10 23 0 15 2 15 10 2 5 -8
10 -19 10 -23z m-1356 -11 c-6 -15 -34 -23 -34 -10 0 8 34 34 38 30 1 -2 0
-11 -4 -20z m1322 -31 c-6 -29 -4 -34 9 -29 10 4 15 0 15 -14 0 -11 3 -27 6
-36 3 -9 1 -16 -5 -16 -6 0 -11 8 -12 18 0 15 -1 15 -8 -2 -7 -18 -8 -18 -14
-2 -11 29 -8 116 4 116 7 0 9 -12 5 -35z m881 3 c-3 -8 -6 -5 -6 6 -1 11 2 17
5 13 3 -3 4 -12 1 -19z m-82 -27 c-19 -38 -25 -39 -25 -5 0 14 4 23 10 19 6
-3 13 1 16 10 4 9 8 14 11 11 2 -2 -3 -18 -12 -35z m45 20 c-5 -11 -15 -23
-22 -27 -7 -5 -8 -2 -3 7 21 37 44 55 25 20z m-2187 -6 c0 -6 -7 -11 -16 -13
-12 -3 -15 1 -11 13 7 17 25 17 27 0z m2214 -27 c-3 -8 -6 -5 -6 6 -1 11 2 17
5 13 3 -3 4 -12 1 -19z m-2232 -18 c3 -5 -1 -10 -9 -10 -9 0 -16 5 -16 10 0 6
4 10 9 10 6 0 13 -4 16 -10z m392 -32 c-3 -7 -5 -2 -5 12 0 14 2 19 5 13 2 -7
2 -19 0 -25z m1755 -18 c-2 -16 -6 -30 -8 -30 -2 0 -4 14 -4 30 0 17 4 30 8
30 5 0 7 -13 4 -30z m-1682 6 c0 -3 -4 -8 -10 -11 -5 -3 -10 -1 -10 4 0 6 5
11 10 11 6 0 10 -2 10 -4z m918 -74 c-5 -45 -28 -38 -28 8 0 37 2 41 16 30 8
-7 14 -25 12 -38z m32 4 c0 -26 -6 -18 -14 19 -5 22 -4 26 4 15 5 -8 10 -24
10 -34z m707 12 c-3 -8 -6 -5 -6 6 -1 11 2 17 5 13 3 -3 4 -12 1 -19z m43 -17
c-5 -11 -15 -23 -22 -27 -7 -5 -8 -2 -3 7 21 37 44 55 25 20z m-2223 -63 c-2
-13 -4 -3 -4 22 0 25 2 35 4 23 2 -13 2 -33 0 -45z m63 52 c0 -5 -5 -10 -11
-10 -5 0 -7 5 -4 10 3 6 8 10 11 10 2 0 4 -4 4 -10z m2107 -42 c-3 -8 -6 -5
-6 6 -1 11 2 17 5 13 3 -3 4 -12 1 -19z m-1667 -18 c0 -5 -4 -10 -9 -10 -6 0
-13 5 -16 10 -3 6 1 10 9 10 9 0 16 -4 16 -10z m-36 -15 c3 -8 1 -15 -4 -15
-6 0 -10 7 -10 15 0 8 2 15 4 15 2 0 6 -7 10 -15z m36 -25 c0 -5 -4 -10 -10
-10 -5 0 -10 5 -10 10 0 6 5 10 10 10 6 0 10 -4 10 -10z m1689 -42 c-8 -14
-14 -18 -17 -10 -4 13 17 46 25 38 3 -2 -1 -15 -8 -28z"/>
<path d="M3757 5405 c-36 -37 -51 -81 -24 -73 18 7 70 84 65 99 -2 7 -18 -2
-41 -26z"/>
<path d="M2996 5231 c-38 -51 -46 -85 -22 -94 19 -8 65 43 81 89 24 72 -8 74
-59 5z m14 -31 c-6 -11 -13 -20 -16 -20 -2 0 0 9 6 20 6 11 13 20 16 20 2 0 0
-9 -6 -20z"/>
<path d="M3107 5233 c-13 -21 -27 -96 -22 -113 9 -27 31 -25 50 4 13 20 14 31
4 70 -11 43 -22 56 -32 39z m9 -101 c-12 -12 -18 8 -10 35 l8 28 4 -28 c2 -16
1 -31 -2 -35z"/>
<path d="M3161 5164 c0 -11 3 -14 6 -6 3 7 2 16 -1 19 -3 4 -6 -2 -5 -13z"/>
<path d="M4356 5323 c-3 -3 9 -19 27 -37 18 -17 51 -66 75 -109 41 -74 62 -95
62 -61 0 8 -13 34 -29 57 -15 23 -37 63 -48 88 -15 34 -29 49 -51 57 -17 6
-33 8 -36 5z"/>
<path d="M4288 5253 c-12 -3 -20 -20 -25 -56 -6 -47 -8 -49 -13 -22 -6 28 -7
27 -14 -17 -13 -74 9 -105 37 -52 l13 25 14 -25 c20 -38 41 -34 36 7 -3 17
-10 47 -16 65 -7 18 -9 44 -6 57 6 25 5 26 -26 18z"/>
<path d="M3994 5162 c-39 -34 -69 -91 -56 -104 14 -14 46 5 78 47 14 19 30 33
34 30 5 -3 7 7 6 22 -4 37 -24 39 -62 5z m17 -30 c-11 -16 -28 -35 -38 -43
-16 -13 -16 -12 1 16 17 27 44 55 54 55 2 0 -6 -13 -17 -28z"/>
<path d="M4195 5129 c-4 -6 -5 -12 -2 -15 2 -3 7 2 10 11 7 17 1 20 -8 4z"/>
<path d="M3680 5160 c0 -5 5 -10 10 -10 6 0 10 5 10 10 0 6 -4 10 -10 10 -5 0
-10 -4 -10 -10z"/>
<path d="M3841 5204 c0 -11 3 -14 6 -6 3 7 2 16 -1 19 -3 4 -6 -2 -5 -13z"/>
<path d="M2566 5129 c-40 -47 -45 -69 -18 -69 20 0 52 31 71 66 8 17 7 25 -3
33 -11 9 -21 3 -50 -30z"/>
<path d="M3220 5030 c0 -5 5 -10 10 -10 6 0 10 5 10 10 0 6 -4 10 -10 10 -5 0
-10 -4 -10 -10z"/>
<path d="M3397 5014 c-8 -8 1 -24 14 -24 5 0 9 7 9 15 0 15 -12 20 -23 9z"/>
<path d="M3207 5003 c-4 -3 -7 -11 -7 -17 0 -6 5 -5 12 2 6 6 9 14 7 17 -3 3
-9 2 -12 -2z"/>
<path d="M3175 4960 c3 -5 8 -10 11 -10 2 0 4 5 4 10 0 6 -5 10 -11 10 -5 0
-7 -4 -4 -10z"/>
<path d="M2580 4940 c0 -5 5 -10 10 -10 6 0 10 5 10 10 0 6 -4 10 -10 10 -5 0
-10 -4 -10 -10z"/>
<path d="M2726 4942 c-3 -6 -1 -14 5 -17 15 -10 25 3 12 16 -7 7 -13 7 -17 1z"/>
<path d="M2406 4893 c-6 -14 -5 -15 5 -6 7 7 10 15 7 18 -3 3 -9 -2 -12 -12z"/>
<path d="M3103 4903 c-7 -2 -13 -12 -13 -20 0 -9 6 -13 14 -10 9 4 17 -1 19
-11 3 -9 5 -2 6 16 1 32 -2 35 -26 25z"/>
<path d="M2461 4886 c-9 -11 -8 -17 4 -29 8 -9 15 -22 16 -29 0 -7 4 -4 9 7 4
11 4 24 0 29 -5 5 -6 15 -3 22 7 18 -11 18 -26 0z"/>
<path d="M2675 4870 c3 -5 8 -10 11 -10 2 0 4 5 4 10 0 6 -5 10 -11 10 -5 0
-7 -4 -4 -10z"/>
<path d="M2723 4854 c-27 -30 -28 -34 -9 -34 7 0 21 10 30 23 l17 22 -5 -22
c-4 -24 8 -31 20 -12 3 6 -2 19 -12 30 -19 18 -20 18 -41 -7z"/>
<path d="M2330 4815 c-7 -9 -10 -18 -7 -21 3 -3 10 4 17 15 13 25 8 27 -10 6z"/>
<path d="M2295 4810 c-3 -5 -1 -10 4 -10 6 0 11 5 11 10 0 6 -2 10 -4 10 -3 0
-8 -4 -11 -10z"/>
<path d="M2715 4800 c-3 -5 -2 -10 4 -10 5 0 13 5 16 10 3 6 2 10 -4 10 -5 0
-13 -4 -16 -10z"/>
<path d="M2690 4729 c-7 -11 -10 -23 -7 -25 2 -2 9 7 15 21 14 30 7 33 -8 4z"/>
<path d="M2425 4650 c3 -5 10 -10 16 -10 5 0 9 5 9 10 0 6 -7 10 -16 10 -8 0
-12 -4 -9 -10z"/>
<path d="M4020 4915 c0 -17 2 -18 24 -9 23 9 20 24 -4 24 -11 0 -20 -7 -20
-15z"/>
<path d="M4125 4910 c-3 -5 1 -10 9 -10 9 0 16 5 16 10 0 6 -4 10 -9 10 -6 0
-13 -4 -16 -10z"/>
<path d="M3982 4859 c2 -6 8 -10 13 -10 5 0 11 4 13 10 2 6 -4 11 -13 11 -9 0
-15 -5 -13 -11z"/>
<path d="M4250 4859 c0 -5 5 -7 10 -4 6 3 10 8 10 11 0 2 -4 4 -10 4 -5 0 -10
-5 -10 -11z"/>
<path d="M3980 4801 c0 -6 5 -13 10 -16 6 -3 10 1 10 9 0 9 -4 16 -10 16 -5 0
-10 -4 -10 -9z"/>
<path d="M4429 4703 c-1 -21 -3 -53 -5 -70 -1 -18 2 -33 7 -33 5 0 9 32 9 70
0 73 -9 98 -11 33z"/>
<path d="M4373 4685 c0 -22 2 -30 4 -17 2 12 2 30 0 40 -3 9 -5 -1 -4 -23z"/>
<path d="M4530 4710 c0 -5 5 -10 11 -10 5 0 7 5 4 10 -3 6 -8 10 -11 10 -2 0
-4 -4 -4 -10z"/>
<path d="M4460 4702 c1 -17 19 -34 29 -28 17 11 13 23 -9 29 -11 3 -20 2 -20
-1z"/>
<path d="M4320 4640 c0 -5 4 -10 9 -10 6 0 13 5 16 10 3 6 -1 10 -9 10 -9 0
-16 -4 -16 -10z"/>
<path d="M4360 4605 c-3 -21 0 -48 5 -53 9 -9 53 31 48 44 -8 21 -23 17 -23
-6 0 -30 -18 -24 -23 8 -3 19 -5 21 -7 7z"/>
<path d="M3800 4980 c0 -5 5 -10 10 -10 6 0 10 5 10 10 0 6 -4 10 -10 10 -5 0
-10 -4 -10 -10z"/>
<path d="M3373 4813 c-20 -7 -15 -27 10 -51 27 -26 55 -28 64 -6 4 10 -4 25
-22 40 -29 25 -32 26 -52 17z"/>
<path d="M3668 4619 c-27 -15 -22 -43 12 -67 37 -28 44 -28 96 5 51 33 67 58
30 49 -15 -4 -28 0 -36 9 -14 17 -76 20 -102 4z m90 -29 c1 -8 -7 -21 -19 -28
-18 -11 -24 -11 -40 4 -10 9 -19 23 -19 31 0 20 74 13 78 -7z"/>
<path d="M3440 4550 c0 -5 4 -10 9 -10 6 0 13 5 16 10 3 6 -1 10 -9 10 -9 0
-16 -4 -16 -10z"/>
<path d="M3260 4481 c0 -22 16 -36 24 -22 8 12 -3 41 -15 41 -5 0 -9 -9 -9
-19z"/>
<path d="M3995 4490 c3 -5 8 -10 11 -10 2 0 4 5 4 10 0 6 -5 10 -11 10 -5 0
-7 -4 -4 -10z"/>
<path d="M3325 4441 c-3 -5 -1 -12 5 -16 5 -3 10 1 10 9 0 18 -6 21 -15 7z"/>
<path d="M3411 4367 c-13 -21 -12 -21 5 -5 10 10 16 20 13 22 -3 3 -11 -5 -18
-17z"/>
<path d="M3630 4379 c0 -5 5 -7 10 -4 6 3 10 8 10 11 0 2 -4 4 -10 4 -5 0 -10
-5 -10 -11z"/>
<path d="M3772 4264 c-8 -8 -11 -23 -7 -32 6 -14 9 -13 17 8 9 23 11 24 17 5
7 -17 8 -16 13 8 4 20 1 27 -11 27 -9 -1 -22 -8 -29 -16z"/>
<path d="M3632 4210 c0 -14 2 -19 5 -12 2 6 2 18 0 25 -3 6 -5 1 -5 -13z"/>
<path d="M3601 4194 c0 -11 3 -14 6 -6 3 7 2 16 -1 19 -3 4 -6 -2 -5 -13z"/>
<path d="M3622 4125 c0 -16 2 -22 5 -12 2 9 2 23 0 30 -3 6 -5 -1 -5 -18z"/>
<path d="M3570 4094 c0 -8 5 -12 10 -9 6 3 10 10 10 16 0 5 -4 9 -10 9 -5 0
-10 -7 -10 -16z"/>
<path d="M4250 4650 c0 -5 5 -10 10 -10 6 0 10 5 10 10 0 6 -4 10 -10 10 -5 0
-10 -4 -10 -10z"/>
<path d="M4217 4133 c-4 -3 -7 -11 -7 -17 0 -6 5 -5 12 2 6 6 9 14 7 17 -3 3
-9 2 -12 -2z"/>
<path d="M4237 4103 c-3 -5 -1 -26 3 -48 l8 -40 1 48 c1 45 -2 56 -12 40z"/>
<path d="M4177 4013 c-4 -3 -7 -11 -7 -17 0 -6 5 -5 12 2 6 6 9 14 7 17 -3 3
-9 2 -12 -2z"/>
<path d="M4142 3968 c-14 -14 -16 -28 -3 -28 9 0 24 30 18 36 -2 2 -9 -2 -15
-8z"/>
<path d="M3910 4090 c0 -5 5 -10 11 -10 5 0 7 5 4 10 -3 6 -8 10 -11 10 -2 0
-4 -4 -4 -10z"/>
<path d="M3507 3143 c-4 -3 -7 -13 -7 -22 1 -13 3 -13 11 2 11 19 8 33 -4 20z"/>
<path d="M3760 3068 c0 -16 5 -28 10 -28 13 0 13 20 0 40 -8 12 -10 9 -10 -12z"/>
<path d="M3755 2967 c-4 -10 -5 -21 -1 -24 10 -10 18 4 13 24 -4 17 -4 17 -12
0z"/>
<path d="M3763 2915 c-3 -9 -3 -18 -1 -21 3 -3 8 4 11 16 6 23 -1 27 -10 5z"/>
<path d="M3762 2826 c-7 -15 -12 -35 -12 -44 1 -9 7 -2 16 17 17 41 14 66 -4
27z"/>
<path d="M3770 2655 c0 -8 2 -15 4 -15 2 0 6 7 10 15 3 8 1 15 -4 15 -6 0 -10
-7 -10 -15z"/>
<path d="M3792 2545 c0 -16 2 -22 5 -12 2 9 2 23 0 30 -3 6 -5 -1 -5 -18z"/>
<path d="M2820 2780 c0 -5 4 -10 9 -10 6 0 13 5 16 10 3 6 -1 10 -9 10 -9 0
-16 -4 -16 -10z"/>
<path d="M2815 2720 c3 -5 10 -10 16 -10 5 0 9 5 9 10 0 6 -7 10 -16 10 -8 0
-12 -4 -9 -10z"/>
<path d="M2822 2679 c-7 -11 -11 -23 -9 -25 7 -7 29 24 25 36 -2 6 -9 1 -16
-11z"/>
<path d="M2851 2674 c0 -11 3 -14 6 -6 3 7 2 16 -1 19 -3 4 -6 -2 -5 -13z"/>
<path d="M2827 2613 c-4 -3 -7 -11 -7 -17 0 -6 5 -5 12 2 6 6 9 14 7 17 -3 3
-9 2 -12 -2z"/>
<path d="M2850 2568 c0 -4 7 -8 15 -8 8 0 15 4 15 8 0 5 -7 9 -15 9 -8 0 -15
-4 -15 -9z"/>
<path d="M2830 2535 c0 -9 9 -25 20 -37 l20 -22 0 25 c0 13 -9 30 -20 37 -17
10 -20 10 -20 -3z"/>
<path d="M2837 2460 c-3 -11 -1 -23 4 -26 5 -3 9 6 9 20 0 31 -6 34 -13 6z"/>
<path d="M4400 2639 c0 -5 5 -7 10 -4 6 3 10 8 10 11 0 2 -4 4 -10 4 -5 0 -10
-5 -10 -11z"/>
<path d="M4383 2603 c9 -2 23 -2 30 0 6 3 -1 5 -18 5 -16 0 -22 -2 -12 -5z"/>
<path d="M2411 2245 c0 -81 13 -167 21 -145 15 38 17 50 8 50 -5 0 -7 7 -4 15
4 8 1 22 -6 30 -7 9 -10 29 -8 48 3 17 2 41 -3 52 -5 13 -8 -5 -8 -50z"/>
<path d="M4620 2423 c0 -13 5 -23 10 -23 13 0 13 11 0 30 -8 12 -10 11 -10 -7z"/>
<path d="M4690 2420 c0 -21 7 -25 27 -12 9 6 7 11 -7 20 -17 11 -20 10 -20 -8z"/>
<path d="M4655 2350 c3 -5 10 -10 16 -10 5 0 9 5 9 10 0 6 -7 10 -16 10 -8 0
-12 -4 -9 -10z"/>
<path d="M4607 2323 c-13 -12 -7 -23 13 -23 13 0 18 5 14 15 -7 16 -17 19 -27
8z"/>
<path d="M4610 2221 c-12 -24 -13 -58 -1 -65 5 -3 14 6 19 22 5 15 13 35 17
45 10 24 -21 23 -35 -2z"/>
<path d="M5036 4148 c-11 -41 -6 -53 9 -24 17 32 19 46 6 46 -5 0 -11 -10 -15
-22z"/>
<path d="M4685 4146 c-5 -12 -3 -21 6 -26 15 -10 29 -4 29 13 0 8 -4 7 -9 -2
-7 -11 -10 -9 -13 10 -4 22 -5 22 -13 5z"/>
<path d="M4816 4055 c-9 -14 -23 -37 -32 -52 -15 -27 -15 -27 1 -8 17 20 17
19 10 -10 -3 -16 -7 -40 -7 -52 0 -13 -4 -20 -9 -17 -5 3 -14 -6 -21 -20 -6
-14 -14 -26 -18 -26 -11 0 -23 74 -13 77 11 4 4 83 -7 83 -14 0 -17 -113 -4
-158 16 -54 34 -78 45 -60 6 9 9 6 9 -10 0 -21 2 -22 15 -8 12 12 14 20 5 36
-8 14 -8 32 1 63 6 23 12 51 14 62 4 31 16 55 25 50 4 -3 10 2 14 10 3 8 1 15
-5 15 -5 0 -7 11 -3 25 3 14 4 25 1 25 -2 0 -12 -11 -21 -25z m-41 -175 c-4
-12 -9 -19 -12 -17 -3 3 -2 15 2 27 4 12 9 19 12 17 3 -3 2 -15 -2 -27z"/>
<path d="M2246 3947 c-9 -44 -7 -57 7 -52 13 6 37 51 37 71 0 7 -9 12 -19 11
-13 -1 -21 -11 -25 -30z"/>
<path d="M4750 3951 c-12 -24 -13 -34 -1 -27 9 6 22 46 15 46 -2 0 -8 -9 -14
-19z"/>
<path d="M4786 3734 c-4 -14 -5 -29 -2 -31 3 -3 8 7 12 21 3 15 4 29 1 32 -2
3 -8 -7 -11 -22z"/>
<path d="M5070 3710 c0 -5 5 -10 11 -10 5 0 7 5 4 10 -3 6 -8 10 -11 10 -2 0
-4 -4 -4 -10z"/>
<path d="M5120 3668 c1 -22 36 -62 44 -49 4 6 2 11 -3 11 -6 0 -11 5 -11 11 0
6 -7 17 -15 25 -12 12 -15 12 -15 2z"/>
<path d="M6450 4376 c-27 -71 66 -120 101 -54 16 29 -17 72 -59 76 -27 3 -34
-1 -42 -22z m56 -18 c-3 -13 -6 -29 -6 -37 0 -11 -3 -11 -15 -1 -26 22 -18 60
13 60 10 0 13 -7 8 -22z m34 -18 c0 -5 -5 -10 -11 -10 -5 0 -7 5 -4 10 3 6 8
10 11 10 2 0 4 -4 4 -10z"/>
<path d="M6177 4282 c-24 -26 -21 -49 8 -77 26 -27 62 -32 88 -12 14 10 15 18
7 49 -16 56 -70 77 -103 40z m47 -19 c-4 -10 -7 -28 -7 -41 1 -22 0 -22 -18
-6 -24 21 -24 40 -1 53 26 15 35 13 26 -6z m28 -35 c-7 -7 -12 -8 -12 -2 0 14
12 26 19 19 2 -3 -1 -11 -7 -17z"/>
<path d="M3404 548 c-8 -12 24 -40 37 -32 5 3 9 12 9 21 0 13 -2 14 -17 2 -15
-12 -16 -12 -10 4 7 19 -8 24 -19 5z"/>
<path d="M3402 478 c12 -9 15 -22 11 -40 -7 -38 -21 -35 -26 5 l-4 32 -1 -36
c-1 -19 4 -44 12 -55 14 -18 15 -18 21 11 3 17 10 40 15 51 9 24 -4 44 -29 44
-12 0 -12 -2 1 -12z"/>
<path d="M3917 604 c-11 -11 -8 -44 3 -44 15 0 24 30 13 41 -5 5 -12 6 -16 3z"/>
<path d="M3875 520 c-7 -30 11 -81 31 -87 14 -5 14 100 0 109 -19 13 -24 9
-31 -22z m34 -2 c-1 -7 -5 -24 -9 -38 -7 -22 -8 -21 -9 13 -1 20 4 37 9 37 6
0 10 -6 9 -12z"/>
<path d="M2940 565 c0 -8 7 -15 15 -15 9 0 12 6 9 15 -4 8 -10 15 -15 15 -5 0
-9 -7 -9 -15z"/>
<path d="M2909 509 c-8 -17 -8 -32 1 -61 6 -22 14 -37 18 -33 12 12 31 87 25
101 -8 21 -31 17 -44 -7z m28 -38 c-12 -25 -12 -25 -15 -2 -2 12 -1 30 3 39 5
13 8 14 15 3 5 -8 3 -25 -3 -40z"/>
</g>
</svg>
