<svg xmlns="http://www.w3.org/2000/svg" xmlns:xlink="http://www.w3.org/1999/xlink" width="20" height="20" viewBox="0 0 20 20">
  <defs>
    <path id="instagram-a" d="M10.0021194,5.12863996 C7.30630229,5.12863996 5.13184607,7.30358139 5.13184607,10 C5.13184607,12.6964186 7.30630229,14.87136 10.0021194,14.87136 C12.6979364,14.87136 14.8723926,12.6964186 14.8723926,10 C14.8723926,7.30358139 12.6979364,5.12863996 10.0021194,5.12863996 Z M10.0021194,13.16702 C8.26001115,13.16702 6.83580591,11.7467366 6.83580591,10 C6.83580591,8.25326342 8.25577245,6.83298003 10.0021194,6.83298003 C11.7484663,6.83298003 13.1684328,8.25326342 13.1684328,10 C13.1684328,11.7467366 11.7442276,13.16702 10.0021194,13.16702 Z M16.2075851,4.92937632 C16.2075851,5.56108446 15.6989403,6.06560303 15.0716118,6.06560303 C14.4400446,6.06560303 13.9356386,5.55684481 13.9356386,4.92937632 C13.9356386,4.30190784 14.4442833,3.79314962 15.0716118,3.79314962 C15.6989403,3.79314962 16.2075851,4.30190784 16.2075851,4.92937632 Z M19.4332404,6.08256164 C19.3611824,4.56052661 19.0136085,3.2123173 17.8988288,2.10152851 C16.7882878,0.990739708 15.4403793,0.643088252 13.9186838,0.566774517 C12.3503625,0.477741828 7.64963748,0.477741828 6.08131623,0.566774517 C4.56385945,0.6388486 3.21595092,0.986500056 2.10117122,2.09728885 C0.986391523,3.20807765 0.64305633,4.55628696 0.566759621,6.07832199 C0.477746793,7.64699319 0.477746793,12.3487672 0.566759621,13.9174384 C0.638817624,15.4394734 0.986391523,16.7876827 2.10117122,17.8984715 C3.21595092,19.0092603 4.55962075,19.3569117 6.08131623,19.4332255 C7.64963748,19.5222582 12.3503625,19.5222582 13.9186838,19.4332255 C15.4403793,19.3611514 16.7882878,19.0134999 17.8988288,17.8984715 C19.0093698,16.7876827 19.3569437,15.4394734 19.4332404,13.9174384 C19.5222532,12.3487672 19.5222532,7.65123285 19.4332404,6.08256164 Z M17.4071389,15.6005802 C17.0765198,16.4315519 16.4364752,17.0717394 15.6014501,17.4066719 C14.3510318,17.9027111 11.3839375,17.7882405 10.0021194,17.7882405 C8.62030117,17.7882405 5.64896821,17.8984715 4.40278862,17.4066719 C3.57200223,17.075979 2.93195761,16.4357916 2.59709983,15.6005802 C2.10117122,14.3498829 2.21561629,11.3821265 2.21561629,10 C2.21561629,8.61787348 2.10540993,5.6458775 2.59709983,4.39941984 C2.92771891,3.56844806 3.56776352,2.92826063 4.40278862,2.59332813 C5.65320692,2.09728885 8.62030117,2.21175946 10.0021194,2.21175946 C11.3839375,2.21175946 14.3552705,2.10152851 15.6014501,2.59332813 C16.4322365,2.92402098 17.0722811,3.56420841 17.4071389,4.39941984 C17.9030675,5.65011715 17.7886224,8.61787348 17.7886224,10 C17.7886224,11.3821265 17.9030675,14.3541225 17.4071389,15.6005802 Z"/>
  </defs>
  <g fill="none" fill-rule="evenodd">
    <use fill="#000" fill-rule="nonzero" xlink:href="#instagram-a"/>
  </g>
</svg>
